<svg width="490mm" height="30mm" viewBox="0 0 490 30" xmlns="http://www.w3.org/2000/svg" version="1.1" preserveAspectRatio="xMidYMid meet"><g id="svgGroup" stroke-linecap="round" fill-rule="evenodd" font-size="9pt" stroke="#000" stroke-width="0.25mm" fill="none" style="stroke:#000;stroke-width:0.25mm;fill:none"><path d="M 0 0 L 0 7.875 L 3 7.875 L 3 22.125 L 0 22.125 L 0 30 L 24.125 30 L 24.125 27 L 38.375 27 L 38.375 30 L 52.625 30 L 52.625 27 L 66.875 27 L 66.875 30 L 81.125 30 L 81.125 27 L 95.375 27 L 95.375 30 L 109.625 30 L 109.625 27 L 123.875 27 L 123.875 30 L 138.125 30 L 138.125 27 L 152.375 27 L 152.375 30 L 166.625 30 L 166.625 27 L 180.875 27 L 180.875 30 L 195.125 30 L 195.125 27 L 209.375 27 L 209.375 30 L 223.625 30 L 223.625 27 L 237.875 27 L 237.875 30 L 252.125 30 L 252.125 27 L 266.375 27 L 266.375 30 L 280.625 30 L 280.625 27 L 294.875 27 L 294.875 30 L 309.125 30 L 309.125 27 L 323.375 27 L 323.375 30 L 337.625 30 L 337.625 27 L 351.875 27 L 351.875 30 L 366.125 30 L 366.125 27 L 380.375 27 L 380.375 30 L 394.625 30 L 394.625 27 L 408.875 27 L 408.875 30 L 423.125 30 L 423.125 27 L 437.375 27 L 437.375 30 L 451.625 30 L 451.625 27 L 465.875 27 L 465.875 30 L 490 30 L 490 22.125 L 487 22.125 L 487 7.875 L 490 7.875 L 490 0 L 0 0 Z" id="back_outsideCutPath" stroke="#000000" stroke-width="0.1" style="stroke:#000000;stroke-width:0.1" vector-effect="non-scaling-stroke"/></g></svg>