0
SECTION
2
HEADER
9
$INSUNITS
70
4
0
ENDSEC
0
SECTION
2
TABLES
0
TABLE
2
LTYPE
0
LTYPE
72
65
70
64
2
CONTINUOUS
3
______
73
0
40
0
0
ENDTAB
0
TABLE
2
LAYER
0
ENDTAB
0
ENDSEC
0
SECTION
2
ENTITIES
0
LINE
8
left_outsideCutPath
10
3
20
30
11
3
21
22.125
0
LINE
8
left_outsideCutPath
10
3
20
22.125
11
0
21
22.125
0
LINE
8
left_outsideCutPath
10
0
20
22.125
11
0
21
7.875
0
LINE
8
left_outsideCutPath
10
0
20
7.875
11
3
21
7.875
0
LINE
8
left_outsideCutPath
10
3
20
7.875
11
3
21
0
0
LINE
8
left_outsideCutPath
10
3
20
0
11
24.125
21
0
0
LINE
8
left_outsideCutPath
10
24.125
20
0
11
24.125
21
3
0
LINE
8
left_outsideCutPath
10
24.125
20
3
11
38.375
21
3
0
LINE
8
left_outsideCutPath
10
38.375
20
3
11
38.375
21
0
0
LINE
8
left_outsideCutPath
10
38.375
20
0
11
52.625
21
0
0
LINE
8
left_outsideCutPath
10
52.625
20
0
11
52.625
21
3
0
LINE
8
left_outsideCutPath
10
52.625
20
3
11
66.875
21
3
0
LINE
8
left_outsideCutPath
10
66.875
20
3
11
66.875
21
0
0
LINE
8
left_outsideCutPath
10
66.875
20
0
11
81.125
21
0
0
LINE
8
left_outsideCutPath
10
81.125
20
0
11
81.125
21
3
0
LINE
8
left_outsideCutPath
10
81.125
20
3
11
95.375
21
3
0
LINE
8
left_outsideCutPath
10
95.375
20
3
11
95.375
21
0
0
LINE
8
left_outsideCutPath
10
95.375
20
0
11
109.625
21
0
0
LINE
8
left_outsideCutPath
10
109.625
20
0
11
109.625
21
3
0
LINE
8
left_outsideCutPath
10
109.625
20
3
11
123.875
21
3
0
LINE
8
left_outsideCutPath
10
123.875
20
3
11
123.875
21
0
0
LINE
8
left_outsideCutPath
10
123.875
20
0
11
138.125
21
0
0
LINE
8
left_outsideCutPath
10
138.125
20
0
11
138.125
21
3
0
LINE
8
left_outsideCutPath
10
138.125
20
3
11
152.375
21
3
0
LINE
8
left_outsideCutPath
10
152.375
20
3
11
152.375
21
0
0
LINE
8
left_outsideCutPath
10
152.375
20
0
11
166.625
21
0
0
LINE
8
left_outsideCutPath
10
166.625
20
0
11
166.625
21
3
0
LINE
8
left_outsideCutPath
10
166.625
20
3
11
180.875
21
3
0
LINE
8
left_outsideCutPath
10
180.875
20
3
11
180.875
21
0
0
LINE
8
left_outsideCutPath
10
180.875
20
0
11
195.125
21
0
0
LINE
8
left_outsideCutPath
10
195.125
20
0
11
195.125
21
3
0
LINE
8
left_outsideCutPath
10
195.125
20
3
11
209.375
21
3
0
LINE
8
left_outsideCutPath
10
209.375
20
3
11
209.375
21
0
0
LINE
8
left_outsideCutPath
10
209.375
20
0
11
223.625
21
0
0
LINE
8
left_outsideCutPath
10
223.625
20
0
11
223.625
21
3
0
LINE
8
left_outsideCutPath
10
223.625
20
3
11
237.875
21
3
0
LINE
8
left_outsideCutPath
10
237.875
20
3
11
237.875
21
0
0
LINE
8
left_outsideCutPath
10
237.875
20
0
11
252.125
21
0
0
LINE
8
left_outsideCutPath
10
252.125
20
0
11
252.125
21
3
0
LINE
8
left_outsideCutPath
10
252.125
20
3
11
266.375
21
3
0
LINE
8
left_outsideCutPath
10
266.375
20
3
11
266.375
21
0
0
LINE
8
left_outsideCutPath
10
266.375
20
0
11
280.625
21
0
0
LINE
8
left_outsideCutPath
10
280.625
20
0
11
280.625
21
3
0
LINE
8
left_outsideCutPath
10
280.625
20
3
11
294.875
21
3
0
LINE
8
left_outsideCutPath
10
294.875
20
3
11
294.875
21
0
0
LINE
8
left_outsideCutPath
10
294.875
20
0
11
309.125
21
0
0
LINE
8
left_outsideCutPath
10
309.125
20
0
11
309.125
21
3
0
LINE
8
left_outsideCutPath
10
309.125
20
3
11
323.375
21
3
0
LINE
8
left_outsideCutPath
10
323.375
20
3
11
323.375
21
0
0
LINE
8
left_outsideCutPath
10
323.375
20
0
11
337.625
21
0
0
LINE
8
left_outsideCutPath
10
337.625
20
0
11
337.625
21
3
0
LINE
8
left_outsideCutPath
10
337.625
20
3
11
351.875
21
3
0
LINE
8
left_outsideCutPath
10
351.875
20
3
11
351.875
21
0
0
LINE
8
left_outsideCutPath
10
351.875
20
0
11
366.125
21
0
0
LINE
8
left_outsideCutPath
10
366.125
20
0
11
366.125
21
3
0
LINE
8
left_outsideCutPath
10
366.125
20
3
11
380.375
21
3
0
LINE
8
left_outsideCutPath
10
380.375
20
3
11
380.375
21
0
0
LINE
8
left_outsideCutPath
10
380.375
20
0
11
394.625
21
0
0
LINE
8
left_outsideCutPath
10
394.625
20
0
11
394.625
21
3
0
LINE
8
left_outsideCutPath
10
394.625
20
3
11
408.875
21
3
0
LINE
8
left_outsideCutPath
10
408.875
20
3
11
408.875
21
0
0
LINE
8
left_outsideCutPath
10
408.875
20
0
11
423.125
21
0
0
LINE
8
left_outsideCutPath
10
423.125
20
0
11
423.125
21
3
0
LINE
8
left_outsideCutPath
10
423.125
20
3
11
437.375
21
3
0
LINE
8
left_outsideCutPath
10
437.375
20
3
11
437.375
21
0
0
LINE
8
left_outsideCutPath
10
437.375
20
0
11
451.625
21
0
0
LINE
8
left_outsideCutPath
10
451.625
20
0
11
451.625
21
3
0
LINE
8
left_outsideCutPath
10
451.625
20
3
11
465.875
21
3
0
LINE
8
left_outsideCutPath
10
465.875
20
3
11
465.875
21
0
0
LINE
8
left_outsideCutPath
10
465.875
20
0
11
487
21
0
0
LINE
8
left_outsideCutPath
10
487
20
0
11
487
21
7.875
0
LINE
8
left_outsideCutPath
10
487
20
7.875
11
490
21
7.875
0
LINE
8
left_outsideCutPath
10
490
20
7.875
11
490
21
22.125
0
LINE
8
left_outsideCutPath
10
490
20
22.125
11
487
21
22.125
0
LINE
8
left_outsideCutPath
10
487
20
22.125
11
487
21
30
0
LINE
8
left_outsideCutPath
10
487
20
30
11
3
21
30
0
ENDSEC
0
EOF