<svg width="490mm" height="490mm" viewBox="0 0 490 490" xmlns="http://www.w3.org/2000/svg" version="1.1" preserveAspectRatio="xMidYMid meet"><g id="svgGroup" stroke-linecap="round" fill-rule="evenodd" font-size="9pt" stroke="#000" stroke-width="0.25mm" fill="none" style="stroke:#000;stroke-width:0.25mm;fill:none"><path d="M 3 3 L 3 24.125 L 0 24.125 L 0 38.375 L 3 38.375 L 3 52.625 L 0 52.625 L 0 66.875 L 3 66.875 L 3 81.125 L 0 81.125 L 0 95.375 L 3 95.375 L 3 109.625 L 0 109.625 L 0 123.875 L 3 123.875 L 3 138.125 L 0 138.125 L 0 152.375 L 3 152.375 L 3 166.625 L 0 166.625 L 0 180.875 L 3 180.875 L 3 195.125 L 0 195.125 L 0 209.375 L 3 209.375 L 3 223.625 L 0 223.625 L 0 237.875 L 3 237.875 L 3 252.125 L 0 252.125 L 0 266.375 L 3 266.375 L 3 280.625 L 0 280.625 L 0 294.875 L 3 294.875 L 3 309.125 L 0 309.125 L 0 323.375 L 3 323.375 L 3 337.625 L 0 337.625 L 0 351.875 L 3 351.875 L 3 366.125 L 0 366.125 L 0 380.375 L 3 380.375 L 3 394.625 L 0 394.625 L 0 408.875 L 3 408.875 L 3 423.125 L 0 423.125 L 0 437.375 L 3 437.375 L 3 451.625 L 0 451.625 L 0 465.875 L 3 465.875 L 3 487 L 24.125 487 L 24.125 490 L 38.375 490 L 38.375 487 L 52.625 487 L 52.625 490 L 66.875 490 L 66.875 487 L 81.125 487 L 81.125 490 L 95.375 490 L 95.375 487 L 109.625 487 L 109.625 490 L 123.875 490 L 123.875 487 L 138.125 487 L 138.125 490 L 152.375 490 L 152.375 487 L 166.625 487 L 166.625 490 L 180.875 490 L 180.875 487 L 195.125 487 L 195.125 490 L 209.375 490 L 209.375 487 L 223.625 487 L 223.625 490 L 237.875 490 L 237.875 487 L 252.125 487 L 252.125 490 L 266.375 490 L 266.375 487 L 280.625 487 L 280.625 490 L 294.875 490 L 294.875 487 L 309.125 487 L 309.125 490 L 323.375 490 L 323.375 487 L 337.625 487 L 337.625 490 L 351.875 490 L 351.875 487 L 366.125 487 L 366.125 490 L 380.375 490 L 380.375 487 L 394.625 487 L 394.625 490 L 408.875 490 L 408.875 487 L 423.125 487 L 423.125 490 L 437.375 490 L 437.375 487 L 451.625 487 L 451.625 490 L 465.875 490 L 465.875 487 L 487 487 L 487 465.875 L 490 465.875 L 490 451.625 L 487 451.625 L 487 437.375 L 490 437.375 L 490 423.125 L 487 423.125 L 487 408.875 L 490 408.875 L 490 394.625 L 487 394.625 L 487 380.375 L 490 380.375 L 490 366.125 L 487 366.125 L 487 351.875 L 490 351.875 L 490 337.625 L 487 337.625 L 487 323.375 L 490 323.375 L 490 309.125 L 487 309.125 L 487 294.875 L 490 294.875 L 490 280.625 L 487 280.625 L 487 266.375 L 490 266.375 L 490 252.125 L 487 252.125 L 487 237.875 L 490 237.875 L 490 223.625 L 487 223.625 L 487 209.375 L 490 209.375 L 490 195.125 L 487 195.125 L 487 180.875 L 490 180.875 L 490 166.625 L 487 166.625 L 487 152.375 L 490 152.375 L 490 138.125 L 487 138.125 L 487 123.875 L 490 123.875 L 490 109.625 L 487 109.625 L 487 95.375 L 490 95.375 L 490 81.125 L 487 81.125 L 487 66.875 L 490 66.875 L 490 52.625 L 487 52.625 L 487 38.375 L 490 38.375 L 490 24.125 L 487 24.125 L 487 3 L 465.875 3 L 465.875 0 L 451.625 0 L 451.625 3 L 437.375 3 L 437.375 0 L 423.125 0 L 423.125 3 L 408.875 3 L 408.875 0 L 394.625 0 L 394.625 3 L 380.375 3 L 380.375 0 L 366.125 0 L 366.125 3 L 351.875 3 L 351.875 0 L 337.625 0 L 337.625 3 L 323.375 3 L 323.375 0 L 309.125 0 L 309.125 3 L 294.875 3 L 294.875 0 L 280.625 0 L 280.625 3 L 266.375 3 L 266.375 0 L 252.125 0 L 252.125 3 L 237.875 3 L 237.875 0 L 223.625 0 L 223.625 3 L 209.375 3 L 209.375 0 L 195.125 0 L 195.125 3 L 180.875 3 L 180.875 0 L 166.625 0 L 166.625 3 L 152.375 3 L 152.375 0 L 138.125 0 L 138.125 3 L 123.875 3 L 123.875 0 L 109.625 0 L 109.625 3 L 95.375 3 L 95.375 0 L 81.125 0 L 81.125 3 L 66.875 3 L 66.875 0 L 52.625 0 L 52.625 3 L 38.375 3 L 38.375 0 L 24.125 0 L 24.125 3 L 3 3 Z" id="bottom_outsideCutPath" stroke="#000000" stroke-width="0.1" style="stroke:#000000;stroke-width:0.1" vector-effect="non-scaling-stroke"/></g></svg>