0
SECTION
2
HEADER
9
$INSUNITS
70
4
0
ENDSEC
0
SECTION
2
TABLES
0
TABLE
2
LTYPE
0
LTYPE
72
65
70
64
2
CONTINUOUS
3
______
73
0
40
0
0
ENDTAB
0
TABLE
2
LAYER
0
ENDTAB
0
ENDSEC
0
SECTION
2
ENTITIES
0
LINE
8
bottom_outsideCutPath
10
3
20
487
11
3
21
465.875
0
LINE
8
bottom_outsideCutPath
10
3
20
465.875
11
0
21
465.875
0
LINE
8
bottom_outsideCutPath
10
0
20
465.875
11
0
21
451.625
0
LINE
8
bottom_outsideCutPath
10
0
20
451.625
11
3
21
451.625
0
LINE
8
bottom_outsideCutPath
10
3
20
451.625
11
3
21
437.375
0
LINE
8
bottom_outsideCutPath
10
3
20
437.375
11
0
21
437.375
0
LINE
8
bottom_outsideCutPath
10
0
20
437.375
11
0
21
423.125
0
LINE
8
bottom_outsideCutPath
10
0
20
423.125
11
3
21
423.125
0
LINE
8
bottom_outsideCutPath
10
3
20
423.125
11
3
21
408.875
0
LINE
8
bottom_outsideCutPath
10
3
20
408.875
11
0
21
408.875
0
LINE
8
bottom_outsideCutPath
10
0
20
408.875
11
0
21
394.625
0
LINE
8
bottom_outsideCutPath
10
0
20
394.625
11
3
21
394.625
0
LINE
8
bottom_outsideCutPath
10
3
20
394.625
11
3
21
380.375
0
LINE
8
bottom_outsideCutPath
10
3
20
380.375
11
0
21
380.375
0
LINE
8
bottom_outsideCutPath
10
0
20
380.375
11
0
21
366.125
0
LINE
8
bottom_outsideCutPath
10
0
20
366.125
11
3
21
366.125
0
LINE
8
bottom_outsideCutPath
10
3
20
366.125
11
3
21
351.875
0
LINE
8
bottom_outsideCutPath
10
3
20
351.875
11
0
21
351.875
0
LINE
8
bottom_outsideCutPath
10
0
20
351.875
11
0
21
337.625
0
LINE
8
bottom_outsideCutPath
10
0
20
337.625
11
3
21
337.625
0
LINE
8
bottom_outsideCutPath
10
3
20
337.625
11
3
21
323.375
0
LINE
8
bottom_outsideCutPath
10
3
20
323.375
11
0
21
323.375
0
LINE
8
bottom_outsideCutPath
10
0
20
323.375
11
0
21
309.125
0
LINE
8
bottom_outsideCutPath
10
0
20
309.125
11
3
21
309.125
0
LINE
8
bottom_outsideCutPath
10
3
20
309.125
11
3
21
294.875
0
LINE
8
bottom_outsideCutPath
10
3
20
294.875
11
0
21
294.875
0
LINE
8
bottom_outsideCutPath
10
0
20
294.875
11
0
21
280.625
0
LINE
8
bottom_outsideCutPath
10
0
20
280.625
11
3
21
280.625
0
LINE
8
bottom_outsideCutPath
10
3
20
280.625
11
3
21
266.375
0
LINE
8
bottom_outsideCutPath
10
3
20
266.375
11
0
21
266.375
0
LINE
8
bottom_outsideCutPath
10
0
20
266.375
11
0
21
252.125
0
LINE
8
bottom_outsideCutPath
10
0
20
252.125
11
3
21
252.125
0
LINE
8
bottom_outsideCutPath
10
3
20
252.125
11
3
21
237.875
0
LINE
8
bottom_outsideCutPath
10
3
20
237.875
11
0
21
237.875
0
LINE
8
bottom_outsideCutPath
10
0
20
237.875
11
0
21
223.625
0
LINE
8
bottom_outsideCutPath
10
0
20
223.625
11
3
21
223.625
0
LINE
8
bottom_outsideCutPath
10
3
20
223.625
11
3
21
209.375
0
LINE
8
bottom_outsideCutPath
10
3
20
209.375
11
0
21
209.375
0
LINE
8
bottom_outsideCutPath
10
0
20
209.375
11
0
21
195.125
0
LINE
8
bottom_outsideCutPath
10
0
20
195.125
11
3
21
195.125
0
LINE
8
bottom_outsideCutPath
10
3
20
195.125
11
3
21
180.875
0
LINE
8
bottom_outsideCutPath
10
3
20
180.875
11
0
21
180.875
0
LINE
8
bottom_outsideCutPath
10
0
20
180.875
11
0
21
166.625
0
LINE
8
bottom_outsideCutPath
10
0
20
166.625
11
3
21
166.625
0
LINE
8
bottom_outsideCutPath
10
3
20
166.625
11
3
21
152.375
0
LINE
8
bottom_outsideCutPath
10
3
20
152.375
11
0
21
152.375
0
LINE
8
bottom_outsideCutPath
10
0
20
152.375
11
0
21
138.125
0
LINE
8
bottom_outsideCutPath
10
0
20
138.125
11
3
21
138.125
0
LINE
8
bottom_outsideCutPath
10
3
20
138.125
11
3
21
123.875
0
LINE
8
bottom_outsideCutPath
10
3
20
123.875
11
0
21
123.875
0
LINE
8
bottom_outsideCutPath
10
0
20
123.875
11
0
21
109.625
0
LINE
8
bottom_outsideCutPath
10
0
20
109.625
11
3
21
109.625
0
LINE
8
bottom_outsideCutPath
10
3
20
109.625
11
3
21
95.375
0
LINE
8
bottom_outsideCutPath
10
3
20
95.375
11
0
21
95.375
0
LINE
8
bottom_outsideCutPath
10
0
20
95.375
11
0
21
81.125
0
LINE
8
bottom_outsideCutPath
10
0
20
81.125
11
3
21
81.125
0
LINE
8
bottom_outsideCutPath
10
3
20
81.125
11
3
21
66.875
0
LINE
8
bottom_outsideCutPath
10
3
20
66.875
11
0
21
66.875
0
LINE
8
bottom_outsideCutPath
10
0
20
66.875
11
0
21
52.625
0
LINE
8
bottom_outsideCutPath
10
0
20
52.625
11
3
21
52.625
0
LINE
8
bottom_outsideCutPath
10
3
20
52.625
11
3
21
38.375
0
LINE
8
bottom_outsideCutPath
10
3
20
38.375
11
0
21
38.375
0
LINE
8
bottom_outsideCutPath
10
0
20
38.375
11
0
21
24.125
0
LINE
8
bottom_outsideCutPath
10
0
20
24.125
11
3
21
24.125
0
LINE
8
bottom_outsideCutPath
10
3
20
24.125
11
3
21
3
0
LINE
8
bottom_outsideCutPath
10
3
20
3
11
24.125
21
3
0
LINE
8
bottom_outsideCutPath
10
24.125
20
3
11
24.125
21
0
0
LINE
8
bottom_outsideCutPath
10
24.125
20
0
11
38.375
21
0
0
LINE
8
bottom_outsideCutPath
10
38.375
20
0
11
38.375
21
3
0
LINE
8
bottom_outsideCutPath
10
38.375
20
3
11
52.625
21
3
0
LINE
8
bottom_outsideCutPath
10
52.625
20
3
11
52.625
21
0
0
LINE
8
bottom_outsideCutPath
10
52.625
20
0
11
66.875
21
0
0
LINE
8
bottom_outsideCutPath
10
66.875
20
0
11
66.875
21
3
0
LINE
8
bottom_outsideCutPath
10
66.875
20
3
11
81.125
21
3
0
LINE
8
bottom_outsideCutPath
10
81.125
20
3
11
81.125
21
0
0
LINE
8
bottom_outsideCutPath
10
81.125
20
0
11
95.375
21
0
0
LINE
8
bottom_outsideCutPath
10
95.375
20
0
11
95.375
21
3
0
LINE
8
bottom_outsideCutPath
10
95.375
20
3
11
109.625
21
3
0
LINE
8
bottom_outsideCutPath
10
109.625
20
3
11
109.625
21
0
0
LINE
8
bottom_outsideCutPath
10
109.625
20
0
11
123.875
21
0
0
LINE
8
bottom_outsideCutPath
10
123.875
20
0
11
123.875
21
3
0
LINE
8
bottom_outsideCutPath
10
123.875
20
3
11
138.125
21
3
0
LINE
8
bottom_outsideCutPath
10
138.125
20
3
11
138.125
21
0
0
LINE
8
bottom_outsideCutPath
10
138.125
20
0
11
152.375
21
0
0
LINE
8
bottom_outsideCutPath
10
152.375
20
0
11
152.375
21
3
0
LINE
8
bottom_outsideCutPath
10
152.375
20
3
11
166.625
21
3
0
LINE
8
bottom_outsideCutPath
10
166.625
20
3
11
166.625
21
0
0
LINE
8
bottom_outsideCutPath
10
166.625
20
0
11
180.875
21
0
0
LINE
8
bottom_outsideCutPath
10
180.875
20
0
11
180.875
21
3
0
LINE
8
bottom_outsideCutPath
10
180.875
20
3
11
195.125
21
3
0
LINE
8
bottom_outsideCutPath
10
195.125
20
3
11
195.125
21
0
0
LINE
8
bottom_outsideCutPath
10
195.125
20
0
11
209.375
21
0
0
LINE
8
bottom_outsideCutPath
10
209.375
20
0
11
209.375
21
3
0
LINE
8
bottom_outsideCutPath
10
209.375
20
3
11
223.625
21
3
0
LINE
8
bottom_outsideCutPath
10
223.625
20
3
11
223.625
21
0
0
LINE
8
bottom_outsideCutPath
10
223.625
20
0
11
237.875
21
0
0
LINE
8
bottom_outsideCutPath
10
237.875
20
0
11
237.875
21
3
0
LINE
8
bottom_outsideCutPath
10
237.875
20
3
11
252.125
21
3
0
LINE
8
bottom_outsideCutPath
10
252.125
20
3
11
252.125
21
0
0
LINE
8
bottom_outsideCutPath
10
252.125
20
0
11
266.375
21
0
0
LINE
8
bottom_outsideCutPath
10
266.375
20
0
11
266.375
21
3
0
LINE
8
bottom_outsideCutPath
10
266.375
20
3
11
280.625
21
3
0
LINE
8
bottom_outsideCutPath
10
280.625
20
3
11
280.625
21
0
0
LINE
8
bottom_outsideCutPath
10
280.625
20
0
11
294.875
21
0
0
LINE
8
bottom_outsideCutPath
10
294.875
20
0
11
294.875
21
3
0
LINE
8
bottom_outsideCutPath
10
294.875
20
3
11
309.125
21
3
0
LINE
8
bottom_outsideCutPath
10
309.125
20
3
11
309.125
21
0
0
LINE
8
bottom_outsideCutPath
10
309.125
20
0
11
323.375
21
0
0
LINE
8
bottom_outsideCutPath
10
323.375
20
0
11
323.375
21
3
0
LINE
8
bottom_outsideCutPath
10
323.375
20
3
11
337.625
21
3
0
LINE
8
bottom_outsideCutPath
10
337.625
20
3
11
337.625
21
0
0
LINE
8
bottom_outsideCutPath
10
337.625
20
0
11
351.875
21
0
0
LINE
8
bottom_outsideCutPath
10
351.875
20
0
11
351.875
21
3
0
LINE
8
bottom_outsideCutPath
10
351.875
20
3
11
366.125
21
3
0
LINE
8
bottom_outsideCutPath
10
366.125
20
3
11
366.125
21
0
0
LINE
8
bottom_outsideCutPath
10
366.125
20
0
11
380.375
21
0
0
LINE
8
bottom_outsideCutPath
10
380.375
20
0
11
380.375
21
3
0
LINE
8
bottom_outsideCutPath
10
380.375
20
3
11
394.625
21
3
0
LINE
8
bottom_outsideCutPath
10
394.625
20
3
11
394.625
21
0
0
LINE
8
bottom_outsideCutPath
10
394.625
20
0
11
408.875
21
0
0
LINE
8
bottom_outsideCutPath
10
408.875
20
0
11
408.875
21
3
0
LINE
8
bottom_outsideCutPath
10
408.875
20
3
11
423.125
21
3
0
LINE
8
bottom_outsideCutPath
10
423.125
20
3
11
423.125
21
0
0
LINE
8
bottom_outsideCutPath
10
423.125
20
0
11
437.375
21
0
0
LINE
8
bottom_outsideCutPath
10
437.375
20
0
11
437.375
21
3
0
LINE
8
bottom_outsideCutPath
10
437.375
20
3
11
451.625
21
3
0
LINE
8
bottom_outsideCutPath
10
451.625
20
3
11
451.625
21
0
0
LINE
8
bottom_outsideCutPath
10
451.625
20
0
11
465.875
21
0
0
LINE
8
bottom_outsideCutPath
10
465.875
20
0
11
465.875
21
3
0
LINE
8
bottom_outsideCutPath
10
465.875
20
3
11
487
21
3
0
LINE
8
bottom_outsideCutPath
10
487
20
3
11
487
21
24.125
0
LINE
8
bottom_outsideCutPath
10
487
20
24.125
11
490
21
24.125
0
LINE
8
bottom_outsideCutPath
10
490
20
24.125
11
490
21
38.375
0
LINE
8
bottom_outsideCutPath
10
490
20
38.375
11
487
21
38.375
0
LINE
8
bottom_outsideCutPath
10
487
20
38.375
11
487
21
52.625
0
LINE
8
bottom_outsideCutPath
10
487
20
52.625
11
490
21
52.625
0
LINE
8
bottom_outsideCutPath
10
490
20
52.625
11
490
21
66.875
0
LINE
8
bottom_outsideCutPath
10
490
20
66.875
11
487
21
66.875
0
LINE
8
bottom_outsideCutPath
10
487
20
66.875
11
487
21
81.125
0
LINE
8
bottom_outsideCutPath
10
487
20
81.125
11
490
21
81.125
0
LINE
8
bottom_outsideCutPath
10
490
20
81.125
11
490
21
95.375
0
LINE
8
bottom_outsideCutPath
10
490
20
95.375
11
487
21
95.375
0
LINE
8
bottom_outsideCutPath
10
487
20
95.375
11
487
21
109.625
0
LINE
8
bottom_outsideCutPath
10
487
20
109.625
11
490
21
109.625
0
LINE
8
bottom_outsideCutPath
10
490
20
109.625
11
490
21
123.875
0
LINE
8
bottom_outsideCutPath
10
490
20
123.875
11
487
21
123.875
0
LINE
8
bottom_outsideCutPath
10
487
20
123.875
11
487
21
138.125
0
LINE
8
bottom_outsideCutPath
10
487
20
138.125
11
490
21
138.125
0
LINE
8
bottom_outsideCutPath
10
490
20
138.125
11
490
21
152.375
0
LINE
8
bottom_outsideCutPath
10
490
20
152.375
11
487
21
152.375
0
LINE
8
bottom_outsideCutPath
10
487
20
152.375
11
487
21
166.625
0
LINE
8
bottom_outsideCutPath
10
487
20
166.625
11
490
21
166.625
0
LINE
8
bottom_outsideCutPath
10
490
20
166.625
11
490
21
180.875
0
LINE
8
bottom_outsideCutPath
10
490
20
180.875
11
487
21
180.875
0
LINE
8
bottom_outsideCutPath
10
487
20
180.875
11
487
21
195.125
0
LINE
8
bottom_outsideCutPath
10
487
20
195.125
11
490
21
195.125
0
LINE
8
bottom_outsideCutPath
10
490
20
195.125
11
490
21
209.375
0
LINE
8
bottom_outsideCutPath
10
490
20
209.375
11
487
21
209.375
0
LINE
8
bottom_outsideCutPath
10
487
20
209.375
11
487
21
223.625
0
LINE
8
bottom_outsideCutPath
10
487
20
223.625
11
490
21
223.625
0
LINE
8
bottom_outsideCutPath
10
490
20
223.625
11
490
21
237.875
0
LINE
8
bottom_outsideCutPath
10
490
20
237.875
11
487
21
237.875
0
LINE
8
bottom_outsideCutPath
10
487
20
237.875
11
487
21
252.125
0
LINE
8
bottom_outsideCutPath
10
487
20
252.125
11
490
21
252.125
0
LINE
8
bottom_outsideCutPath
10
490
20
252.125
11
490
21
266.375
0
LINE
8
bottom_outsideCutPath
10
490
20
266.375
11
487
21
266.375
0
LINE
8
bottom_outsideCutPath
10
487
20
266.375
11
487
21
280.625
0
LINE
8
bottom_outsideCutPath
10
487
20
280.625
11
490
21
280.625
0
LINE
8
bottom_outsideCutPath
10
490
20
280.625
11
490
21
294.875
0
LINE
8
bottom_outsideCutPath
10
490
20
294.875
11
487
21
294.875
0
LINE
8
bottom_outsideCutPath
10
487
20
294.875
11
487
21
309.125
0
LINE
8
bottom_outsideCutPath
10
487
20
309.125
11
490
21
309.125
0
LINE
8
bottom_outsideCutPath
10
490
20
309.125
11
490
21
323.375
0
LINE
8
bottom_outsideCutPath
10
490
20
323.375
11
487
21
323.375
0
LINE
8
bottom_outsideCutPath
10
487
20
323.375
11
487
21
337.625
0
LINE
8
bottom_outsideCutPath
10
487
20
337.625
11
490
21
337.625
0
LINE
8
bottom_outsideCutPath
10
490
20
337.625
11
490
21
351.875
0
LINE
8
bottom_outsideCutPath
10
490
20
351.875
11
487
21
351.875
0
LINE
8
bottom_outsideCutPath
10
487
20
351.875
11
487
21
366.125
0
LINE
8
bottom_outsideCutPath
10
487
20
366.125
11
490
21
366.125
0
LINE
8
bottom_outsideCutPath
10
490
20
366.125
11
490
21
380.375
0
LINE
8
bottom_outsideCutPath
10
490
20
380.375
11
487
21
380.375
0
LINE
8
bottom_outsideCutPath
10
487
20
380.375
11
487
21
394.625
0
LINE
8
bottom_outsideCutPath
10
487
20
394.625
11
490
21
394.625
0
LINE
8
bottom_outsideCutPath
10
490
20
394.625
11
490
21
408.875
0
LINE
8
bottom_outsideCutPath
10
490
20
408.875
11
487
21
408.875
0
LINE
8
bottom_outsideCutPath
10
487
20
408.875
11
487
21
423.125
0
LINE
8
bottom_outsideCutPath
10
487
20
423.125
11
490
21
423.125
0
LINE
8
bottom_outsideCutPath
10
490
20
423.125
11
490
21
437.375
0
LINE
8
bottom_outsideCutPath
10
490
20
437.375
11
487
21
437.375
0
LINE
8
bottom_outsideCutPath
10
487
20
437.375
11
487
21
451.625
0
LINE
8
bottom_outsideCutPath
10
487
20
451.625
11
490
21
451.625
0
LINE
8
bottom_outsideCutPath
10
490
20
451.625
11
490
21
465.875
0
LINE
8
bottom_outsideCutPath
10
490
20
465.875
11
487
21
465.875
0
LINE
8
bottom_outsideCutPath
10
487
20
465.875
11
487
21
487
0
LINE
8
bottom_outsideCutPath
10
487
20
487
11
465.875
21
487
0
LINE
8
bottom_outsideCutPath
10
465.875
20
487
11
465.875
21
490
0
LINE
8
bottom_outsideCutPath
10
465.875
20
490
11
451.625
21
490
0
LINE
8
bottom_outsideCutPath
10
451.625
20
490
11
451.625
21
487
0
LINE
8
bottom_outsideCutPath
10
451.625
20
487
11
437.375
21
487
0
LINE
8
bottom_outsideCutPath
10
437.375
20
487
11
437.375
21
490
0
LINE
8
bottom_outsideCutPath
10
437.375
20
490
11
423.125
21
490
0
LINE
8
bottom_outsideCutPath
10
423.125
20
490
11
423.125
21
487
0
LINE
8
bottom_outsideCutPath
10
423.125
20
487
11
408.875
21
487
0
LINE
8
bottom_outsideCutPath
10
408.875
20
487
11
408.875
21
490
0
LINE
8
bottom_outsideCutPath
10
408.875
20
490
11
394.625
21
490
0
LINE
8
bottom_outsideCutPath
10
394.625
20
490
11
394.625
21
487
0
LINE
8
bottom_outsideCutPath
10
394.625
20
487
11
380.375
21
487
0
LINE
8
bottom_outsideCutPath
10
380.375
20
487
11
380.375
21
490
0
LINE
8
bottom_outsideCutPath
10
380.375
20
490
11
366.125
21
490
0
LINE
8
bottom_outsideCutPath
10
366.125
20
490
11
366.125
21
487
0
LINE
8
bottom_outsideCutPath
10
366.125
20
487
11
351.875
21
487
0
LINE
8
bottom_outsideCutPath
10
351.875
20
487
11
351.875
21
490
0
LINE
8
bottom_outsideCutPath
10
351.875
20
490
11
337.625
21
490
0
LINE
8
bottom_outsideCutPath
10
337.625
20
490
11
337.625
21
487
0
LINE
8
bottom_outsideCutPath
10
337.625
20
487
11
323.375
21
487
0
LINE
8
bottom_outsideCutPath
10
323.375
20
487
11
323.375
21
490
0
LINE
8
bottom_outsideCutPath
10
323.375
20
490
11
309.125
21
490
0
LINE
8
bottom_outsideCutPath
10
309.125
20
490
11
309.125
21
487
0
LINE
8
bottom_outsideCutPath
10
309.125
20
487
11
294.875
21
487
0
LINE
8
bottom_outsideCutPath
10
294.875
20
487
11
294.875
21
490
0
LINE
8
bottom_outsideCutPath
10
294.875
20
490
11
280.625
21
490
0
LINE
8
bottom_outsideCutPath
10
280.625
20
490
11
280.625
21
487
0
LINE
8
bottom_outsideCutPath
10
280.625
20
487
11
266.375
21
487
0
LINE
8
bottom_outsideCutPath
10
266.375
20
487
11
266.375
21
490
0
LINE
8
bottom_outsideCutPath
10
266.375
20
490
11
252.125
21
490
0
LINE
8
bottom_outsideCutPath
10
252.125
20
490
11
252.125
21
487
0
LINE
8
bottom_outsideCutPath
10
252.125
20
487
11
237.875
21
487
0
LINE
8
bottom_outsideCutPath
10
237.875
20
487
11
237.875
21
490
0
LINE
8
bottom_outsideCutPath
10
237.875
20
490
11
223.625
21
490
0
LINE
8
bottom_outsideCutPath
10
223.625
20
490
11
223.625
21
487
0
LINE
8
bottom_outsideCutPath
10
223.625
20
487
11
209.375
21
487
0
LINE
8
bottom_outsideCutPath
10
209.375
20
487
11
209.375
21
490
0
LINE
8
bottom_outsideCutPath
10
209.375
20
490
11
195.125
21
490
0
LINE
8
bottom_outsideCutPath
10
195.125
20
490
11
195.125
21
487
0
LINE
8
bottom_outsideCutPath
10
195.125
20
487
11
180.875
21
487
0
LINE
8
bottom_outsideCutPath
10
180.875
20
487
11
180.875
21
490
0
LINE
8
bottom_outsideCutPath
10
180.875
20
490
11
166.625
21
490
0
LINE
8
bottom_outsideCutPath
10
166.625
20
490
11
166.625
21
487
0
LINE
8
bottom_outsideCutPath
10
166.625
20
487
11
152.375
21
487
0
LINE
8
bottom_outsideCutPath
10
152.375
20
487
11
152.375
21
490
0
LINE
8
bottom_outsideCutPath
10
152.375
20
490
11
138.125
21
490
0
LINE
8
bottom_outsideCutPath
10
138.125
20
490
11
138.125
21
487
0
LINE
8
bottom_outsideCutPath
10
138.125
20
487
11
123.875
21
487
0
LINE
8
bottom_outsideCutPath
10
123.875
20
487
11
123.875
21
490
0
LINE
8
bottom_outsideCutPath
10
123.875
20
490
11
109.625
21
490
0
LINE
8
bottom_outsideCutPath
10
109.625
20
490
11
109.625
21
487
0
LINE
8
bottom_outsideCutPath
10
109.625
20
487
11
95.375
21
487
0
LINE
8
bottom_outsideCutPath
10
95.375
20
487
11
95.375
21
490
0
LINE
8
bottom_outsideCutPath
10
95.375
20
490
11
81.125
21
490
0
LINE
8
bottom_outsideCutPath
10
81.125
20
490
11
81.125
21
487
0
LINE
8
bottom_outsideCutPath
10
81.125
20
487
11
66.875
21
487
0
LINE
8
bottom_outsideCutPath
10
66.875
20
487
11
66.875
21
490
0
LINE
8
bottom_outsideCutPath
10
66.875
20
490
11
52.625
21
490
0
LINE
8
bottom_outsideCutPath
10
52.625
20
490
11
52.625
21
487
0
LINE
8
bottom_outsideCutPath
10
52.625
20
487
11
38.375
21
487
0
LINE
8
bottom_outsideCutPath
10
38.375
20
487
11
38.375
21
490
0
LINE
8
bottom_outsideCutPath
10
38.375
20
490
11
24.125
21
490
0
LINE
8
bottom_outsideCutPath
10
24.125
20
490
11
24.125
21
487
0
LINE
8
bottom_outsideCutPath
10
24.125
20
487
11
3
21
487
0
ENDSEC
0
EOF