<?xml version="1.0" encoding="UTF-8"?>
<svg id="Calque_6" data-name="Calque 6" xmlns="http://www.w3.org/2000/svg" viewBox="0 0 1417.32 1417.32">
  <defs>
    <style>
      .cls-1 {
        fill: #fff;
        stroke: #000;
        stroke-miterlimit: 10;
      }
    </style>
  </defs>
  <rect class="cls-1" x="125.89" y="418.94" width="110.55" height="110.55"/>
  <rect class="cls-1" x="243.11" y="418.94" width="110.55" height="110.55"/>
  <rect class="cls-1" x="360.33" y="418.94" width="110.55" height="110.55"/>
  <rect class="cls-1" x="477.56" y="418.94" width="110.55" height="110.55"/>
  <rect class="cls-1" x="594.78" y="418.94" width="110.55" height="110.55"/>
  <rect class="cls-1" x="712" y="418.94" width="110.55" height="110.55"/>
  <rect class="cls-1" x="829.22" y="418.94" width="110.55" height="110.55"/>
  <rect class="cls-1" x="946.44" y="418.94" width="110.55" height="110.55"/>
  <rect class="cls-1" x="1063.66" y="418.94" width="110.55" height="110.55"/>
  <rect class="cls-1" x="1180.88" y="418.94" width="110.55" height="110.55"/>
  <rect class="cls-1" x="125.89" y="536.17" width="110.55" height="110.55"/>
  <rect class="cls-1" x="243.11" y="536.17" width="110.55" height="110.55"/>
  <rect class="cls-1" x="360.33" y="536.17" width="110.55" height="110.55"/>
  <rect class="cls-1" x="477.56" y="536.17" width="110.55" height="110.55"/>
  <rect class="cls-1" x="594.78" y="536.17" width="110.55" height="110.55"/>
  <rect class="cls-1" x="712" y="536.17" width="110.55" height="110.55"/>
  <rect class="cls-1" x="829.22" y="536.17" width="110.55" height="110.55"/>
  <rect class="cls-1" x="946.44" y="536.17" width="110.55" height="110.55"/>
  <rect class="cls-1" x="1063.66" y="536.17" width="110.55" height="110.55"/>
  <rect class="cls-1" x="1180.88" y="536.17" width="110.55" height="110.55"/>
  <rect class="cls-1" x="125.89" y="653.39" width="110.55" height="110.55"/>
  <rect class="cls-1" x="243.11" y="653.39" width="110.55" height="110.55"/>
  <rect class="cls-1" x="360.33" y="653.39" width="110.55" height="110.55"/>
  <rect class="cls-1" x="477.56" y="653.39" width="110.55" height="110.55"/>
  <rect class="cls-1" x="594.78" y="653.39" width="110.55" height="110.55"/>
  <rect class="cls-1" x="712" y="653.39" width="110.55" height="110.55"/>
  <rect class="cls-1" x="829.22" y="653.39" width="110.55" height="110.55"/>
  <rect class="cls-1" x="946.44" y="653.39" width="110.55" height="110.55"/>
  <rect class="cls-1" x="1063.66" y="653.39" width="110.55" height="110.55"/>
  <rect class="cls-1" x="1180.88" y="653.39" width="110.55" height="110.55"/>
  <rect class="cls-1" x="125.89" y="770.61" width="110.55" height="110.55"/>
  <rect class="cls-1" x="243.11" y="770.61" width="110.55" height="110.55"/>
  <rect class="cls-1" x="360.33" y="770.61" width="110.55" height="110.55"/>
  <rect class="cls-1" x="477.56" y="770.61" width="110.55" height="110.55"/>
  <rect class="cls-1" x="594.78" y="770.61" width="110.55" height="110.55"/>
  <rect class="cls-1" x="712" y="770.61" width="110.55" height="110.55"/>
  <rect class="cls-1" x="829.22" y="770.61" width="110.55" height="110.55"/>
  <rect class="cls-1" x="946.44" y="770.61" width="110.55" height="110.55"/>
  <rect class="cls-1" x="1063.66" y="770.61" width="110.55" height="110.55"/>
  <rect class="cls-1" x="1180.88" y="770.61" width="110.55" height="110.55"/>
  <rect class="cls-1" x="125.89" y="887.83" width="110.55" height="110.55"/>
  <rect class="cls-1" x="243.11" y="887.83" width="110.55" height="110.55"/>
  <rect class="cls-1" x="360.33" y="887.83" width="110.55" height="110.55"/>
  <rect class="cls-1" x="477.56" y="887.83" width="110.55" height="110.55"/>
  <rect class="cls-1" x="594.78" y="887.83" width="110.55" height="110.55"/>
  <rect class="cls-1" x="712" y="887.83" width="110.55" height="110.55"/>
  <rect class="cls-1" x="829.22" y="887.83" width="110.55" height="110.55"/>
  <rect class="cls-1" x="946.44" y="887.83" width="110.55" height="110.55"/>
  <rect class="cls-1" x="1063.66" y="887.83" width="110.55" height="110.55"/>
  <rect class="cls-1" x="1180.88" y="887.83" width="110.55" height="110.55"/>
</svg>