<?xml version="1.0" encoding="UTF-8"?>
<svg xmlns="http://www.w3.org/2000/svg" viewBox="0 0 1417.32 1417.32">
  <defs>
    <style>
      .cls-1 {
        fill: #fff;
        stroke: #000;
        stroke-miterlimit: 10;
      }
    </style>
  </defs>
  <g id="FONT">
    <rect id="back" class="cls-1" x="23" y="22.35" width="1371.97" height="1371.97"/>
  </g>
  <g id="Calque_4" data-name="Calque 4">
    <rect class="cls-1" x="48.63" y="48.59" width="99.21" height="99.21"/>
    <rect class="cls-1" x="319.92" y="48.59" width="99.21" height="99.21"/>
    <rect class="cls-1" x="591.22" y="48.59" width="99.21" height="99.21"/>
    <rect class="cls-1" x="862.51" y="48.59" width="99.21" height="99.21"/>
    <rect class="cls-1" x="1133.8" y="48.59" width="99.21" height="99.21"/>
    <rect class="cls-1" x="184.28" y="184.24" width="99.21" height="99.21"/>
    <rect class="cls-1" x="455.57" y="184.24" width="99.21" height="99.21"/>
    <rect class="cls-1" x="726.86" y="184.24" width="99.21" height="99.21"/>
    <rect class="cls-1" x="998.15" y="184.24" width="99.21" height="99.21"/>
    <rect class="cls-1" x="1269.44" y="184.24" width="99.21" height="99.21"/>
    <rect class="cls-1" x="48.63" y="319.88" width="99.21" height="99.21"/>
    <rect class="cls-1" x="319.92" y="319.88" width="99.21" height="99.21"/>
    <rect class="cls-1" x="591.22" y="319.88" width="99.21" height="99.21"/>
    <rect class="cls-1" x="862.51" y="319.88" width="99.21" height="99.21"/>
    <rect class="cls-1" x="1133.8" y="319.88" width="99.21" height="99.21"/>
    <rect class="cls-1" x="184.28" y="455.53" width="99.21" height="99.21"/>
    <rect class="cls-1" x="455.57" y="455.53" width="99.21" height="99.21"/>
    <rect class="cls-1" x="726.86" y="455.53" width="99.21" height="99.21"/>
    <rect class="cls-1" x="998.15" y="455.53" width="99.21" height="99.21"/>
    <rect class="cls-1" x="1269.44" y="455.53" width="99.21" height="99.21"/>
    <rect class="cls-1" x="48.63" y="591.17" width="99.21" height="99.21"/>
    <rect class="cls-1" x="319.92" y="591.17" width="99.21" height="99.21"/>
    <rect class="cls-1" x="591.22" y="591.17" width="99.21" height="99.21"/>
    <rect class="cls-1" x="862.51" y="591.17" width="99.21" height="99.21"/>
    <rect class="cls-1" x="1133.8" y="591.17" width="99.21" height="99.21"/>
    <rect class="cls-1" x="184.28" y="726.82" width="99.21" height="99.21"/>
    <rect class="cls-1" x="455.57" y="726.82" width="99.21" height="99.21"/>
    <rect class="cls-1" x="726.86" y="726.82" width="99.21" height="99.21"/>
    <rect class="cls-1" x="998.15" y="726.82" width="99.21" height="99.21"/>
    <rect class="cls-1" x="1269.44" y="726.82" width="99.21" height="99.21"/>
    <rect class="cls-1" x="48.63" y="862.46" width="99.21" height="99.21"/>
    <rect class="cls-1" x="319.92" y="862.46" width="99.21" height="99.21"/>
    <rect class="cls-1" x="591.22" y="862.46" width="99.21" height="99.21"/>
    <rect class="cls-1" x="862.51" y="862.46" width="99.21" height="99.21"/>
    <rect class="cls-1" x="1133.8" y="862.46" width="99.21" height="99.21"/>
    <rect class="cls-1" x="184.28" y="998.11" width="99.21" height="99.21"/>
    <rect class="cls-1" x="455.57" y="998.11" width="99.21" height="99.21"/>
    <rect class="cls-1" x="726.86" y="998.11" width="99.21" height="99.21"/>
    <rect class="cls-1" x="998.15" y="998.11" width="99.21" height="99.21"/>
    <rect class="cls-1" x="1269.44" y="998.11" width="99.21" height="99.21"/>
    <rect class="cls-1" x="48.63" y="1133.76" width="99.21" height="99.21"/>
    <rect class="cls-1" x="319.92" y="1133.76" width="99.21" height="99.21"/>
    <rect class="cls-1" x="591.22" y="1133.76" width="99.21" height="99.21"/>
    <rect class="cls-1" x="862.51" y="1133.76" width="99.21" height="99.21"/>
    <rect class="cls-1" x="1133.8" y="1133.76" width="99.21" height="99.21"/>
    <rect class="cls-1" x="184.28" y="1269.4" width="99.21" height="99.21"/>
    <rect class="cls-1" x="455.57" y="1269.4" width="99.21" height="99.21"/>
    <rect class="cls-1" x="726.86" y="1269.4" width="99.21" height="99.21"/>
    <rect class="cls-1" x="998.15" y="1269.4" width="99.21" height="99.21"/>
    <rect class="cls-1" x="1269.44" y="1269.4" width="99.21" height="99.21"/>
  </g>
</svg>