<?xml version="1.0" encoding="UTF-8"?>
<svg xmlns="http://www.w3.org/2000/svg" viewBox="0 0 1417.32 1417.32">
  <defs>
    <style>
      .cls-1 {
        fill: #fff;
        stroke: #000;
        stroke-miterlimit: 10;
      }
    </style>
  </defs>
  <g id="FONT">
    <rect id="back" class="cls-1" x="23" y="22.35" width="1371.97" height="1371.97"/>
  </g>
  <g id="DAMIER_40_40" data-name="DAMIER 40*40">
    <rect class="cls-1" x="41.55" y="41.5" width="113.39" height="113.39"/>
    <rect class="cls-1" x="312.84" y="41.5" width="113.39" height="113.39"/>
    <rect class="cls-1" x="584.13" y="41.5" width="113.39" height="113.39"/>
    <rect class="cls-1" x="855.42" y="41.5" width="113.39" height="113.39"/>
    <rect class="cls-1" x="1126.71" y="41.5" width="113.39" height="113.39"/>
    <rect class="cls-1" x="177.19" y="177.15" width="113.39" height="113.39"/>
    <rect class="cls-1" x="448.48" y="177.15" width="113.39" height="113.39"/>
    <rect class="cls-1" x="719.77" y="177.15" width="113.39" height="113.39"/>
    <rect class="cls-1" x="991.07" y="177.15" width="113.39" height="113.39"/>
    <rect class="cls-1" x="1262.36" y="177.15" width="113.39" height="113.39"/>
    <rect class="cls-1" x="41.55" y="312.8" width="113.39" height="113.39"/>
    <rect class="cls-1" x="312.84" y="312.8" width="113.39" height="113.39"/>
    <rect class="cls-1" x="584.13" y="312.8" width="113.39" height="113.39"/>
    <rect class="cls-1" x="855.42" y="312.8" width="113.39" height="113.39"/>
    <rect class="cls-1" x="1126.71" y="312.8" width="113.39" height="113.39"/>
    <rect class="cls-1" x="177.19" y="448.44" width="113.39" height="113.39"/>
    <rect class="cls-1" x="448.48" y="448.44" width="113.39" height="113.39"/>
    <rect class="cls-1" x="719.77" y="448.44" width="113.39" height="113.39"/>
    <rect class="cls-1" x="991.07" y="448.44" width="113.39" height="113.39"/>
    <rect class="cls-1" x="1262.36" y="448.44" width="113.39" height="113.39"/>
    <rect class="cls-1" x="41.55" y="584.09" width="113.39" height="113.39"/>
    <rect class="cls-1" x="312.84" y="584.09" width="113.39" height="113.39"/>
    <rect class="cls-1" x="584.13" y="584.09" width="113.39" height="113.39"/>
    <rect class="cls-1" x="855.42" y="584.09" width="113.39" height="113.39"/>
    <rect class="cls-1" x="1126.71" y="584.09" width="113.39" height="113.39"/>
    <rect class="cls-1" x="177.19" y="719.73" width="113.39" height="113.39"/>
    <rect class="cls-1" x="448.48" y="719.73" width="113.39" height="113.39"/>
    <rect class="cls-1" x="719.77" y="719.73" width="113.39" height="113.39"/>
    <rect class="cls-1" x="991.07" y="719.73" width="113.39" height="113.39"/>
    <rect class="cls-1" x="1262.36" y="719.73" width="113.39" height="113.39"/>
    <rect class="cls-1" x="41.55" y="855.38" width="113.39" height="113.39"/>
    <rect class="cls-1" x="312.84" y="855.38" width="113.39" height="113.39"/>
    <rect class="cls-1" x="584.13" y="855.38" width="113.39" height="113.39"/>
    <rect class="cls-1" x="855.42" y="855.38" width="113.39" height="113.39"/>
    <rect class="cls-1" x="1126.71" y="855.38" width="113.39" height="113.39"/>
    <rect class="cls-1" x="177.19" y="991.02" width="113.39" height="113.39"/>
    <rect class="cls-1" x="448.48" y="991.02" width="113.39" height="113.39"/>
    <rect class="cls-1" x="719.77" y="991.02" width="113.39" height="113.39"/>
    <rect class="cls-1" x="991.07" y="991.02" width="113.39" height="113.39"/>
    <rect class="cls-1" x="1262.36" y="991.02" width="113.39" height="113.39"/>
    <rect class="cls-1" x="41.55" y="1126.67" width="113.39" height="113.39"/>
    <rect class="cls-1" x="312.84" y="1126.67" width="113.39" height="113.39"/>
    <rect class="cls-1" x="584.13" y="1126.67" width="113.39" height="113.39"/>
    <rect class="cls-1" x="855.42" y="1126.67" width="113.39" height="113.39"/>
    <rect class="cls-1" x="1126.71" y="1126.67" width="113.39" height="113.39"/>
    <rect class="cls-1" x="177.19" y="1262.31" width="113.39" height="113.39"/>
    <rect class="cls-1" x="448.48" y="1262.31" width="113.39" height="113.39"/>
    <rect class="cls-1" x="719.77" y="1262.31" width="113.39" height="113.39"/>
    <rect class="cls-1" x="991.07" y="1262.31" width="113.39" height="113.39"/>
    <rect class="cls-1" x="1262.36" y="1262.31" width="113.39" height="113.39"/>
  </g>
</svg>