%TF.GenerationSoftware,KiCad,Pcbnew,7.0.8*%
%TF.CreationDate,2023-12-07T20:57:20+01:00*%
%TF.ProjectId,MAIN,4d41494e-2e6b-4696-9361-645f70636258,rev?*%
%TF.SameCoordinates,Original*%
%TF.FileFunction,Legend,Bot*%
%TF.FilePolarity,Positive*%
%FSLAX46Y46*%
G04 Gerber Fmt 4.6, Leading zero omitted, Abs format (unit mm)*
G04 Created by KiCad (PCBNEW 7.0.8) date 2023-12-07 20:57:20*
%MOMM*%
%LPD*%
G01*
G04 APERTURE LIST*
%ADD10C,0.120000*%
G04 APERTURE END LIST*
D10*
%TO.C,R20*%
X127035000Y-133297936D02*
X127035000Y-134752064D01*
X125215000Y-133297936D02*
X125215000Y-134752064D01*
%TO.C,R10*%
X154497936Y-136540000D02*
X155952064Y-136540000D01*
X154497936Y-138360000D02*
X155952064Y-138360000D01*
%TO.C,R25*%
X135472936Y-121935452D02*
X136927064Y-121935452D01*
X135472936Y-123755452D02*
X136927064Y-123755452D01*
%TO.C,R23*%
X135472936Y-126576358D02*
X136927064Y-126576358D01*
X135472936Y-128396358D02*
X136927064Y-128396358D01*
%TO.C,R24*%
X135472936Y-124255904D02*
X136927064Y-124255904D01*
X135472936Y-126075904D02*
X136927064Y-126075904D01*
%TO.C,R17*%
X144735000Y-136847936D02*
X144735000Y-138302064D01*
X142915000Y-136847936D02*
X142915000Y-138302064D01*
%TO.C,R26*%
X135472936Y-119615000D02*
X136927064Y-119615000D01*
X135472936Y-121435000D02*
X136927064Y-121435000D01*
%TO.C,R15*%
X147285000Y-136822936D02*
X147285000Y-138277064D01*
X145465000Y-136822936D02*
X145465000Y-138277064D01*
%TO.C,R19*%
X140227064Y-136660000D02*
X138772936Y-136660000D01*
X140227064Y-134840000D02*
X138772936Y-134840000D01*
%TO.C,R14*%
X142740000Y-128252064D02*
X142740000Y-126797936D01*
X144560000Y-128252064D02*
X144560000Y-126797936D01*
%TO.C,R27*%
X135472936Y-117290000D02*
X136927064Y-117290000D01*
X135472936Y-119110000D02*
X136927064Y-119110000D01*
%TO.C,R21*%
X130827064Y-139785000D02*
X129372936Y-139785000D01*
X130827064Y-137965000D02*
X129372936Y-137965000D01*
%TO.C,R22*%
X135472936Y-128975938D02*
X136927064Y-128975938D01*
X135472936Y-130795938D02*
X136927064Y-130795938D01*
%TO.C,R16*%
X140227064Y-134310000D02*
X138772936Y-134310000D01*
X140227064Y-132490000D02*
X138772936Y-132490000D01*
%TD*%
M02*
