%TF.GenerationSoftware,KiCad,Pcbnew,7.0.8*%
%TF.CreationDate,2023-12-07T20:57:22+01:00*%
%TF.ProjectId,MAIN,4d41494e-2e6b-4696-9361-645f70636258,rev?*%
%TF.SameCoordinates,Original*%
%TF.FileFunction,Plated,1,2,PTH,Drill*%
%TF.FilePolarity,Positive*%
%FSLAX46Y46*%
G04 Gerber Fmt 4.6, Leading zero omitted, Abs format (unit mm)*
G04 Created by KiCad (PCBNEW 7.0.8) date 2023-12-07 20:57:22*
%MOMM*%
%LPD*%
G01*
G04 APERTURE LIST*
%TA.AperFunction,ViaDrill*%
%ADD10C,0.400000*%
%TD*%
%TA.AperFunction,ViaDrill*%
%ADD11C,0.800000*%
%TD*%
%TA.AperFunction,ComponentDrill*%
%ADD12C,1.000000*%
%TD*%
%TA.AperFunction,ComponentDrill*%
%ADD13C,1.040000*%
%TD*%
%TA.AperFunction,ComponentDrill*%
%ADD14C,3.000000*%
%TD*%
%TA.AperFunction,ComponentDrill*%
%ADD15C,3.105000*%
%TD*%
G04 APERTURE END LIST*
D10*
X84184826Y-131281862D03*
X84399160Y-128105095D03*
X84400000Y-129400000D03*
X84600000Y-126800000D03*
X85000000Y-132100000D03*
X87475000Y-130725000D03*
X88575000Y-131525000D03*
X93800000Y-131900000D03*
X94300000Y-116400000D03*
X95300000Y-135800000D03*
X96199986Y-131575000D03*
X100100000Y-124600497D03*
X100100000Y-125600000D03*
X100375000Y-131500000D03*
X101475000Y-130700000D03*
X102787500Y-130712500D03*
X103687500Y-131212500D03*
X105375000Y-127700000D03*
X105375000Y-128800000D03*
X105375000Y-131200000D03*
X105408364Y-130066636D03*
X107200000Y-102700000D03*
X109200000Y-116800000D03*
X109642438Y-126075000D03*
X110400000Y-126900000D03*
X113400000Y-105700000D03*
X113950054Y-124700000D03*
X118100000Y-106000000D03*
X119000000Y-132200000D03*
X121600000Y-104000000D03*
X123600000Y-106100000D03*
X125100000Y-102500000D03*
X125291636Y-130091636D03*
X125296847Y-127691217D03*
X125325000Y-128825000D03*
X125325000Y-131225000D03*
X126000000Y-138000000D03*
X126300000Y-106000000D03*
X126875000Y-131200000D03*
X128600000Y-137110076D03*
X129200000Y-130725000D03*
X130015522Y-131411607D03*
X135457500Y-131917500D03*
X136757500Y-131917494D03*
X137200000Y-138100000D03*
X141800000Y-128700000D03*
X142100000Y-131500000D03*
X143200000Y-130700000D03*
X143825000Y-137575000D03*
X144500000Y-130700000D03*
X144700000Y-102300000D03*
X145400000Y-131200000D03*
X146375000Y-137575000D03*
X147075000Y-127697671D03*
X147075000Y-128800000D03*
X147075000Y-130071657D03*
X147075000Y-131200000D03*
D11*
X75500000Y-131400000D03*
X82700000Y-124100000D03*
X84000000Y-115600000D03*
X90700000Y-88000000D03*
X94600000Y-121400000D03*
X94900000Y-104500000D03*
X100700000Y-87300000D03*
X112700000Y-130400000D03*
X122800000Y-95200000D03*
X123057208Y-123820982D03*
X127900000Y-87800000D03*
X139500000Y-109900000D03*
X141900000Y-100700000D03*
X142700000Y-93400000D03*
X149700000Y-80000000D03*
X151100000Y-110400000D03*
X154600000Y-129400000D03*
D12*
%TO.C,J2*%
X75450000Y-141525000D03*
X77990000Y-141525000D03*
X80530000Y-141525000D03*
X83070000Y-141525000D03*
X85610000Y-141525000D03*
X88150000Y-141525000D03*
X90690000Y-141525000D03*
X93230000Y-141525000D03*
X95770000Y-141525000D03*
X98310000Y-141525000D03*
X100850000Y-141525000D03*
X103390000Y-141525000D03*
%TO.C,J3*%
X105345000Y-111500000D03*
%TO.C,J2*%
X105930000Y-141525000D03*
%TO.C,J4*%
X107885000Y-79500000D03*
%TO.C,J3*%
X107885000Y-111500000D03*
%TO.C,J2*%
X108470000Y-141525000D03*
%TO.C,J4*%
X110425000Y-79500000D03*
%TO.C,J3*%
X110425000Y-111500000D03*
%TO.C,J2*%
X111010000Y-141525000D03*
%TO.C,J4*%
X112965000Y-79500000D03*
%TO.C,J3*%
X112965000Y-111500000D03*
%TO.C,J2*%
X113550000Y-141525000D03*
%TO.C,J11*%
X113800000Y-119160000D03*
X113800000Y-121700000D03*
%TO.C,J4*%
X115505000Y-79500000D03*
%TO.C,J3*%
X115505000Y-111500000D03*
%TO.C,J1*%
X117150000Y-141525000D03*
%TO.C,J4*%
X118045000Y-79500000D03*
%TO.C,J3*%
X118045000Y-111500000D03*
%TO.C,J1*%
X119690000Y-141525000D03*
%TO.C,J4*%
X120585000Y-79500000D03*
%TO.C,J3*%
X120585000Y-111500000D03*
%TO.C,J1*%
X122230000Y-141525000D03*
%TO.C,J4*%
X123125000Y-79500000D03*
%TO.C,J3*%
X123125000Y-111500000D03*
%TO.C,J1*%
X124770000Y-141525000D03*
%TO.C,J4*%
X125665000Y-79500000D03*
%TO.C,J3*%
X125665000Y-111500000D03*
%TO.C,J1*%
X127310000Y-141525000D03*
%TO.C,J4*%
X128205000Y-79500000D03*
%TO.C,J3*%
X128205000Y-111500000D03*
%TO.C,J1*%
X129850000Y-141525000D03*
%TO.C,J4*%
X130745000Y-79500000D03*
%TO.C,J1*%
X132390000Y-141525000D03*
X134930000Y-141525000D03*
X137470000Y-141525000D03*
X140010000Y-141525000D03*
X142550000Y-141525000D03*
X145090000Y-141525000D03*
X147630000Y-141525000D03*
X150170000Y-141525000D03*
X152710000Y-141525000D03*
X155250000Y-141525000D03*
%TO.C,J12*%
X155500000Y-86135000D03*
X155500000Y-88675000D03*
%TO.C,J5*%
X155500000Y-95085000D03*
X155500000Y-97625000D03*
%TO.C,J6*%
X155500000Y-104035000D03*
X155500000Y-106575000D03*
%TO.C,J10*%
X155500000Y-119135000D03*
X155500000Y-121675000D03*
D13*
%TO.C,U1*%
X100265000Y-82800000D03*
X100265000Y-108200000D03*
X102805000Y-82800000D03*
X102805000Y-108200000D03*
X105345000Y-82800000D03*
X105345000Y-108200000D03*
X107885000Y-82800000D03*
X107885000Y-108200000D03*
X110425000Y-82800000D03*
X110425000Y-108200000D03*
X112965000Y-82800000D03*
X112965000Y-108200000D03*
X115505000Y-82800000D03*
X115505000Y-108200000D03*
X118045000Y-82800000D03*
X118045000Y-108200000D03*
X120585000Y-82800000D03*
X120585000Y-108200000D03*
X123125000Y-82800000D03*
X123125000Y-108200000D03*
X125665000Y-82800000D03*
X125665000Y-108200000D03*
X128205000Y-82800000D03*
X128205000Y-108200000D03*
X130745000Y-82800000D03*
X130745000Y-108200000D03*
X133285000Y-82800000D03*
X133285000Y-108200000D03*
X135825000Y-82800000D03*
X135825000Y-108200000D03*
D14*
%TO.C,J7*%
X77290000Y-112200000D03*
X77290000Y-125600000D03*
%TO.C,J13*%
X77300000Y-94300000D03*
%TO.C,J14*%
X77300000Y-100000000D03*
%TO.C,J8*%
X77300000Y-106000000D03*
%TO.C,J7*%
X77300000Y-118900000D03*
%TO.C,J13*%
X86100000Y-94300000D03*
%TO.C,J14*%
X86100000Y-100000000D03*
%TO.C,J8*%
X86100000Y-106000000D03*
D15*
%TO.C,J9*%
X77320000Y-84330000D03*
X82120000Y-81430000D03*
X82120000Y-87180000D03*
M02*
