%TF.GenerationSoftware,KiCad,Pcbnew,7.0.8*%
%TF.CreationDate,2023-11-30T14:41:35+01:00*%
%TF.ProjectId,Le_damier,4c655f64-616d-4696-9572-2e6b69636164,rev?*%
%TF.SameCoordinates,Original*%
%TF.FileFunction,Copper,L2,Bot*%
%TF.FilePolarity,Positive*%
%FSLAX46Y46*%
G04 Gerber Fmt 4.6, Leading zero omitted, Abs format (unit mm)*
G04 Created by KiCad (PCBNEW 7.0.8) date 2023-11-30 14:41:35*
%MOMM*%
%LPD*%
G01*
G04 APERTURE LIST*
%ADD10C,0.175000*%
%TA.AperFunction,NonConductor*%
%ADD11C,0.175000*%
%TD*%
%TA.AperFunction,ComponentPad*%
%ADD12R,1.700000X1.700000*%
%TD*%
%TA.AperFunction,ComponentPad*%
%ADD13C,2.000000*%
%TD*%
%TA.AperFunction,ViaPad*%
%ADD14C,1.400000*%
%TD*%
%TA.AperFunction,ViaPad*%
%ADD15C,0.800000*%
%TD*%
%TA.AperFunction,Conductor*%
%ADD16C,0.600000*%
%TD*%
%TA.AperFunction,Conductor*%
%ADD17C,0.250000*%
%TD*%
G04 APERTURE END LIST*
D10*
D11*
X52128202Y-50271233D02*
X52128202Y-50771233D01*
X52128202Y-50771233D02*
X52161535Y-50871233D01*
X52161535Y-50871233D02*
X52228202Y-50937900D01*
X52228202Y-50937900D02*
X52328202Y-50971233D01*
X52328202Y-50971233D02*
X52394869Y-50971233D01*
X51528202Y-50937900D02*
X51594869Y-50971233D01*
X51594869Y-50971233D02*
X51728202Y-50971233D01*
X51728202Y-50971233D02*
X51794869Y-50937900D01*
X51794869Y-50937900D02*
X51828202Y-50871233D01*
X51828202Y-50871233D02*
X51828202Y-50604566D01*
X51828202Y-50604566D02*
X51794869Y-50537900D01*
X51794869Y-50537900D02*
X51728202Y-50504566D01*
X51728202Y-50504566D02*
X51594869Y-50504566D01*
X51594869Y-50504566D02*
X51528202Y-50537900D01*
X51528202Y-50537900D02*
X51494869Y-50604566D01*
X51494869Y-50604566D02*
X51494869Y-50671233D01*
X51494869Y-50671233D02*
X51828202Y-50737900D01*
X50894869Y-50504566D02*
X50894869Y-50971233D01*
X51194869Y-50504566D02*
X51194869Y-50871233D01*
X51194869Y-50871233D02*
X51161536Y-50937900D01*
X51161536Y-50937900D02*
X51094869Y-50971233D01*
X51094869Y-50971233D02*
X50994869Y-50971233D01*
X50994869Y-50971233D02*
X50928202Y-50937900D01*
X50928202Y-50937900D02*
X50894869Y-50904566D01*
X50561536Y-50504566D02*
X50561536Y-50971233D01*
X50561536Y-50571233D02*
X50528203Y-50537900D01*
X50528203Y-50537900D02*
X50461536Y-50504566D01*
X50461536Y-50504566D02*
X50361536Y-50504566D01*
X50361536Y-50504566D02*
X50294869Y-50537900D01*
X50294869Y-50537900D02*
X50261536Y-50604566D01*
X50261536Y-50604566D02*
X50261536Y-50971233D01*
X49661536Y-50937900D02*
X49728203Y-50971233D01*
X49728203Y-50971233D02*
X49861536Y-50971233D01*
X49861536Y-50971233D02*
X49928203Y-50937900D01*
X49928203Y-50937900D02*
X49961536Y-50871233D01*
X49961536Y-50871233D02*
X49961536Y-50604566D01*
X49961536Y-50604566D02*
X49928203Y-50537900D01*
X49928203Y-50537900D02*
X49861536Y-50504566D01*
X49861536Y-50504566D02*
X49728203Y-50504566D01*
X49728203Y-50504566D02*
X49661536Y-50537900D01*
X49661536Y-50537900D02*
X49628203Y-50604566D01*
X49628203Y-50604566D02*
X49628203Y-50671233D01*
X49628203Y-50671233D02*
X49961536Y-50737900D01*
X49428203Y-50504566D02*
X49161536Y-50504566D01*
X49328203Y-50271233D02*
X49328203Y-50871233D01*
X49328203Y-50871233D02*
X49294870Y-50937900D01*
X49294870Y-50937900D02*
X49228203Y-50971233D01*
X49228203Y-50971233D02*
X49161536Y-50971233D01*
X48928203Y-50904566D02*
X48894870Y-50937900D01*
X48894870Y-50937900D02*
X48928203Y-50971233D01*
X48928203Y-50971233D02*
X48961536Y-50937900D01*
X48961536Y-50937900D02*
X48928203Y-50904566D01*
X48928203Y-50904566D02*
X48928203Y-50971233D01*
X48061537Y-50971233D02*
X48061537Y-50271233D01*
X48061537Y-50271233D02*
X47828204Y-50771233D01*
X47828204Y-50771233D02*
X47594870Y-50271233D01*
X47594870Y-50271233D02*
X47594870Y-50971233D01*
X52194869Y-51398233D02*
X52061535Y-51398233D01*
X52061535Y-51398233D02*
X51994869Y-51431566D01*
X51994869Y-51431566D02*
X51928202Y-51498233D01*
X51928202Y-51498233D02*
X51894869Y-51631566D01*
X51894869Y-51631566D02*
X51894869Y-51864900D01*
X51894869Y-51864900D02*
X51928202Y-51998233D01*
X51928202Y-51998233D02*
X51994869Y-52064900D01*
X51994869Y-52064900D02*
X52061535Y-52098233D01*
X52061535Y-52098233D02*
X52194869Y-52098233D01*
X52194869Y-52098233D02*
X52261535Y-52064900D01*
X52261535Y-52064900D02*
X52328202Y-51998233D01*
X52328202Y-51998233D02*
X52361535Y-51864900D01*
X52361535Y-51864900D02*
X52361535Y-51631566D01*
X52361535Y-51631566D02*
X52328202Y-51498233D01*
X52328202Y-51498233D02*
X52261535Y-51431566D01*
X52261535Y-51431566D02*
X52194869Y-51398233D01*
X51594869Y-52098233D02*
X51594869Y-51631566D01*
X51594869Y-51764900D02*
X51561536Y-51698233D01*
X51561536Y-51698233D02*
X51528202Y-51664900D01*
X51528202Y-51664900D02*
X51461536Y-51631566D01*
X51461536Y-51631566D02*
X51394869Y-51631566D01*
X50861536Y-52098233D02*
X50861536Y-51398233D01*
X50861536Y-52064900D02*
X50928203Y-52098233D01*
X50928203Y-52098233D02*
X51061536Y-52098233D01*
X51061536Y-52098233D02*
X51128203Y-52064900D01*
X51128203Y-52064900D02*
X51161536Y-52031566D01*
X51161536Y-52031566D02*
X51194869Y-51964900D01*
X51194869Y-51964900D02*
X51194869Y-51764900D01*
X51194869Y-51764900D02*
X51161536Y-51698233D01*
X51161536Y-51698233D02*
X51128203Y-51664900D01*
X51128203Y-51664900D02*
X51061536Y-51631566D01*
X51061536Y-51631566D02*
X50928203Y-51631566D01*
X50928203Y-51631566D02*
X50861536Y-51664900D01*
X50528203Y-52098233D02*
X50528203Y-51631566D01*
X50528203Y-51398233D02*
X50561536Y-51431566D01*
X50561536Y-51431566D02*
X50528203Y-51464900D01*
X50528203Y-51464900D02*
X50494870Y-51431566D01*
X50494870Y-51431566D02*
X50528203Y-51398233D01*
X50528203Y-51398233D02*
X50528203Y-51464900D01*
X50194870Y-52031566D02*
X50161537Y-52064900D01*
X50161537Y-52064900D02*
X50194870Y-52098233D01*
X50194870Y-52098233D02*
X50228203Y-52064900D01*
X50228203Y-52064900D02*
X50194870Y-52031566D01*
X50194870Y-52031566D02*
X50194870Y-52098233D01*
X49361537Y-51898233D02*
X49028204Y-51898233D01*
X49428204Y-52098233D02*
X49194871Y-51398233D01*
X49194871Y-51398233D02*
X48961537Y-52098233D01*
X52094869Y-52858566D02*
X51994869Y-52891900D01*
X51994869Y-52891900D02*
X51961535Y-52925233D01*
X51961535Y-52925233D02*
X51928202Y-52991900D01*
X51928202Y-52991900D02*
X51928202Y-53091900D01*
X51928202Y-53091900D02*
X51961535Y-53158566D01*
X51961535Y-53158566D02*
X51994869Y-53191900D01*
X51994869Y-53191900D02*
X52061535Y-53225233D01*
X52061535Y-53225233D02*
X52328202Y-53225233D01*
X52328202Y-53225233D02*
X52328202Y-52525233D01*
X52328202Y-52525233D02*
X52094869Y-52525233D01*
X52094869Y-52525233D02*
X52028202Y-52558566D01*
X52028202Y-52558566D02*
X51994869Y-52591900D01*
X51994869Y-52591900D02*
X51961535Y-52658566D01*
X51961535Y-52658566D02*
X51961535Y-52725233D01*
X51961535Y-52725233D02*
X51994869Y-52791900D01*
X51994869Y-52791900D02*
X52028202Y-52825233D01*
X52028202Y-52825233D02*
X52094869Y-52858566D01*
X52094869Y-52858566D02*
X52328202Y-52858566D01*
X51528202Y-53225233D02*
X51594869Y-53191900D01*
X51594869Y-53191900D02*
X51628202Y-53158566D01*
X51628202Y-53158566D02*
X51661535Y-53091900D01*
X51661535Y-53091900D02*
X51661535Y-52891900D01*
X51661535Y-52891900D02*
X51628202Y-52825233D01*
X51628202Y-52825233D02*
X51594869Y-52791900D01*
X51594869Y-52791900D02*
X51528202Y-52758566D01*
X51528202Y-52758566D02*
X51428202Y-52758566D01*
X51428202Y-52758566D02*
X51361535Y-52791900D01*
X51361535Y-52791900D02*
X51328202Y-52825233D01*
X51328202Y-52825233D02*
X51294869Y-52891900D01*
X51294869Y-52891900D02*
X51294869Y-53091900D01*
X51294869Y-53091900D02*
X51328202Y-53158566D01*
X51328202Y-53158566D02*
X51361535Y-53191900D01*
X51361535Y-53191900D02*
X51428202Y-53225233D01*
X51428202Y-53225233D02*
X51528202Y-53225233D01*
X50694869Y-52758566D02*
X50694869Y-53225233D01*
X50994869Y-52758566D02*
X50994869Y-53125233D01*
X50994869Y-53125233D02*
X50961536Y-53191900D01*
X50961536Y-53191900D02*
X50894869Y-53225233D01*
X50894869Y-53225233D02*
X50794869Y-53225233D01*
X50794869Y-53225233D02*
X50728202Y-53191900D01*
X50728202Y-53191900D02*
X50694869Y-53158566D01*
X50428203Y-52758566D02*
X50261536Y-53225233D01*
X50094869Y-52758566D02*
X50261536Y-53225233D01*
X50261536Y-53225233D02*
X50328203Y-53391900D01*
X50328203Y-53391900D02*
X50361536Y-53425233D01*
X50361536Y-53425233D02*
X50428203Y-53458566D01*
X49561536Y-53191900D02*
X49628203Y-53225233D01*
X49628203Y-53225233D02*
X49761536Y-53225233D01*
X49761536Y-53225233D02*
X49828203Y-53191900D01*
X49828203Y-53191900D02*
X49861536Y-53125233D01*
X49861536Y-53125233D02*
X49861536Y-52858566D01*
X49861536Y-52858566D02*
X49828203Y-52791900D01*
X49828203Y-52791900D02*
X49761536Y-52758566D01*
X49761536Y-52758566D02*
X49628203Y-52758566D01*
X49628203Y-52758566D02*
X49561536Y-52791900D01*
X49561536Y-52791900D02*
X49528203Y-52858566D01*
X49528203Y-52858566D02*
X49528203Y-52925233D01*
X49528203Y-52925233D02*
X49861536Y-52991900D01*
X49228203Y-53225233D02*
X49228203Y-52758566D01*
X49228203Y-52891900D02*
X49194870Y-52825233D01*
X49194870Y-52825233D02*
X49161536Y-52791900D01*
X49161536Y-52791900D02*
X49094870Y-52758566D01*
X49094870Y-52758566D02*
X49028203Y-52758566D01*
X48794870Y-53158566D02*
X48761537Y-53191900D01*
X48761537Y-53191900D02*
X48794870Y-53225233D01*
X48794870Y-53225233D02*
X48828203Y-53191900D01*
X48828203Y-53191900D02*
X48794870Y-53158566D01*
X48794870Y-53158566D02*
X48794870Y-53225233D01*
X47928204Y-53225233D02*
X47928204Y-52525233D01*
X47928204Y-52858566D02*
X47528204Y-52858566D01*
X47528204Y-53225233D02*
X47528204Y-52525233D01*
D10*
D11*
X25891797Y-52098233D02*
X25891797Y-51398233D01*
X25558464Y-52098233D02*
X25558464Y-51398233D01*
X25558464Y-51398233D02*
X25158464Y-52098233D01*
X25158464Y-52098233D02*
X25158464Y-51398233D01*
X24858464Y-52064900D02*
X24758464Y-52098233D01*
X24758464Y-52098233D02*
X24591798Y-52098233D01*
X24591798Y-52098233D02*
X24525131Y-52064900D01*
X24525131Y-52064900D02*
X24491798Y-52031566D01*
X24491798Y-52031566D02*
X24458464Y-51964900D01*
X24458464Y-51964900D02*
X24458464Y-51898233D01*
X24458464Y-51898233D02*
X24491798Y-51831566D01*
X24491798Y-51831566D02*
X24525131Y-51798233D01*
X24525131Y-51798233D02*
X24591798Y-51764900D01*
X24591798Y-51764900D02*
X24725131Y-51731566D01*
X24725131Y-51731566D02*
X24791798Y-51698233D01*
X24791798Y-51698233D02*
X24825131Y-51664900D01*
X24825131Y-51664900D02*
X24858464Y-51598233D01*
X24858464Y-51598233D02*
X24858464Y-51531566D01*
X24858464Y-51531566D02*
X24825131Y-51464900D01*
X24825131Y-51464900D02*
X24791798Y-51431566D01*
X24791798Y-51431566D02*
X24725131Y-51398233D01*
X24725131Y-51398233D02*
X24558464Y-51398233D01*
X24558464Y-51398233D02*
X24458464Y-51431566D01*
X24191797Y-51898233D02*
X23858464Y-51898233D01*
X24258464Y-52098233D02*
X24025131Y-51398233D01*
X24025131Y-51398233D02*
X23791797Y-52098233D01*
X28991796Y-52525233D02*
X28591796Y-52525233D01*
X28791796Y-53225233D02*
X28791796Y-52525233D01*
X28225130Y-52525233D02*
X28091796Y-52525233D01*
X28091796Y-52525233D02*
X28025130Y-52558566D01*
X28025130Y-52558566D02*
X27958463Y-52625233D01*
X27958463Y-52625233D02*
X27925130Y-52758566D01*
X27925130Y-52758566D02*
X27925130Y-52991900D01*
X27925130Y-52991900D02*
X27958463Y-53125233D01*
X27958463Y-53125233D02*
X28025130Y-53191900D01*
X28025130Y-53191900D02*
X28091796Y-53225233D01*
X28091796Y-53225233D02*
X28225130Y-53225233D01*
X28225130Y-53225233D02*
X28291796Y-53191900D01*
X28291796Y-53191900D02*
X28358463Y-53125233D01*
X28358463Y-53125233D02*
X28391796Y-52991900D01*
X28391796Y-52991900D02*
X28391796Y-52758566D01*
X28391796Y-52758566D02*
X28358463Y-52625233D01*
X28358463Y-52625233D02*
X28291796Y-52558566D01*
X28291796Y-52558566D02*
X28225130Y-52525233D01*
X27625130Y-52525233D02*
X27625130Y-53091900D01*
X27625130Y-53091900D02*
X27591797Y-53158566D01*
X27591797Y-53158566D02*
X27558463Y-53191900D01*
X27558463Y-53191900D02*
X27491797Y-53225233D01*
X27491797Y-53225233D02*
X27358463Y-53225233D01*
X27358463Y-53225233D02*
X27291797Y-53191900D01*
X27291797Y-53191900D02*
X27258463Y-53158566D01*
X27258463Y-53158566D02*
X27225130Y-53091900D01*
X27225130Y-53091900D02*
X27225130Y-52525233D01*
X26558464Y-53225233D02*
X26891797Y-53225233D01*
X26891797Y-53225233D02*
X26891797Y-52525233D01*
X26191797Y-52525233D02*
X26058463Y-52525233D01*
X26058463Y-52525233D02*
X25991797Y-52558566D01*
X25991797Y-52558566D02*
X25925130Y-52625233D01*
X25925130Y-52625233D02*
X25891797Y-52758566D01*
X25891797Y-52758566D02*
X25891797Y-52991900D01*
X25891797Y-52991900D02*
X25925130Y-53125233D01*
X25925130Y-53125233D02*
X25991797Y-53191900D01*
X25991797Y-53191900D02*
X26058463Y-53225233D01*
X26058463Y-53225233D02*
X26191797Y-53225233D01*
X26191797Y-53225233D02*
X26258463Y-53191900D01*
X26258463Y-53191900D02*
X26325130Y-53125233D01*
X26325130Y-53125233D02*
X26358463Y-52991900D01*
X26358463Y-52991900D02*
X26358463Y-52758566D01*
X26358463Y-52758566D02*
X26325130Y-52625233D01*
X26325130Y-52625233D02*
X26258463Y-52558566D01*
X26258463Y-52558566D02*
X26191797Y-52525233D01*
X25591797Y-52525233D02*
X25591797Y-53091900D01*
X25591797Y-53091900D02*
X25558464Y-53158566D01*
X25558464Y-53158566D02*
X25525130Y-53191900D01*
X25525130Y-53191900D02*
X25458464Y-53225233D01*
X25458464Y-53225233D02*
X25325130Y-53225233D01*
X25325130Y-53225233D02*
X25258464Y-53191900D01*
X25258464Y-53191900D02*
X25225130Y-53158566D01*
X25225130Y-53158566D02*
X25191797Y-53091900D01*
X25191797Y-53091900D02*
X25191797Y-52525233D01*
X24891797Y-53191900D02*
X24791797Y-53225233D01*
X24791797Y-53225233D02*
X24625131Y-53225233D01*
X24625131Y-53225233D02*
X24558464Y-53191900D01*
X24558464Y-53191900D02*
X24525131Y-53158566D01*
X24525131Y-53158566D02*
X24491797Y-53091900D01*
X24491797Y-53091900D02*
X24491797Y-53025233D01*
X24491797Y-53025233D02*
X24525131Y-52958566D01*
X24525131Y-52958566D02*
X24558464Y-52925233D01*
X24558464Y-52925233D02*
X24625131Y-52891900D01*
X24625131Y-52891900D02*
X24758464Y-52858566D01*
X24758464Y-52858566D02*
X24825131Y-52825233D01*
X24825131Y-52825233D02*
X24858464Y-52791900D01*
X24858464Y-52791900D02*
X24891797Y-52725233D01*
X24891797Y-52725233D02*
X24891797Y-52658566D01*
X24891797Y-52658566D02*
X24858464Y-52591900D01*
X24858464Y-52591900D02*
X24825131Y-52558566D01*
X24825131Y-52558566D02*
X24758464Y-52525233D01*
X24758464Y-52525233D02*
X24591797Y-52525233D01*
X24591797Y-52525233D02*
X24491797Y-52558566D01*
X24191797Y-52858566D02*
X23958464Y-52858566D01*
X23858464Y-53225233D02*
X24191797Y-53225233D01*
X24191797Y-53225233D02*
X24191797Y-52525233D01*
X24191797Y-52525233D02*
X23858464Y-52525233D01*
D12*
%TO.P,Connector7,1,Pin_1*%
%TO.N,Net-(Connector2-Pin_1)*%
X51510000Y-38920000D03*
%TD*%
%TO.P,Connector8,1,Pin_1*%
%TO.N,Net-(Connector3-Pin_1)*%
X41048332Y-52220000D03*
%TD*%
%TO.P,Connector4,1,Pin_1*%
%TO.N,GND*%
X37198333Y-25620000D03*
%TD*%
%TO.P,Connector1,1,Pin_1*%
%TO.N,+5V*%
X24710000Y-42041250D03*
%TD*%
%TO.P,Connector5,1,Pin_1*%
%TO.N,/LED_DIN*%
X24710000Y-32983750D03*
%TD*%
D13*
%TO.P,SW1,1,1*%
%TO.N,Net-(Connector3-Pin_1)*%
X34860000Y-36720000D03*
X41360000Y-36720000D03*
%TO.P,SW1,2,2*%
%TO.N,Net-(Connector2-Pin_1)*%
X34860000Y-41220000D03*
X41360000Y-41220000D03*
%TD*%
D12*
%TO.P,Connector2,1,Pin_1*%
%TO.N,Net-(Connector2-Pin_1)*%
X24710000Y-37512500D03*
%TD*%
%TO.P,Connector9,1,Pin_1*%
%TO.N,+5V*%
X51510000Y-42695000D03*
%TD*%
%TO.P,Connector6,1,Pin_1*%
%TO.N,/LED_DOUT*%
X51510000Y-35120000D03*
%TD*%
%TO.P,Connector10,1,Pin_1*%
%TO.N,GND*%
X35221666Y-52220000D03*
%TD*%
%TO.P,Connector3,1,Pin_1*%
%TO.N,Net-(Connector3-Pin_1)*%
X42036666Y-25620000D03*
%TD*%
D14*
%TO.N,+5V*%
X46009998Y-37220000D03*
X28700000Y-31880000D03*
X48160000Y-42700000D03*
X40950000Y-44260000D03*
%TO.N,GND*%
X35910000Y-33320000D03*
X31270000Y-35060000D03*
X48310000Y-40820000D03*
X36610000Y-46740000D03*
X45110000Y-32920000D03*
X39330000Y-30330000D03*
X32660000Y-46790000D03*
X42970000Y-47060000D03*
D15*
%TO.N,Net-(Connector2-Pin_1)*%
X29110000Y-40120000D03*
X30790000Y-40120000D03*
%TO.N,Net-(Connector3-Pin_1)*%
X40180000Y-46430000D03*
X42010000Y-31420000D03*
%TD*%
D16*
%TO.N,+5V*%
X28059928Y-32520072D02*
X28700000Y-31880000D01*
X28188606Y-38820000D02*
X28059928Y-38691322D01*
X28059928Y-38691322D02*
X28059928Y-32520072D01*
X51510000Y-42695000D02*
X48165000Y-42695000D01*
X44409998Y-38820000D02*
X28188606Y-38820000D01*
X40950000Y-44260000D02*
X26928750Y-44260000D01*
X24710000Y-42041250D02*
X28059928Y-38691322D01*
X46009998Y-37220000D02*
X44409998Y-38820000D01*
X26928750Y-44260000D02*
X24710000Y-42041250D01*
X48165000Y-42695000D02*
X48160000Y-42700000D01*
X51510000Y-42695000D02*
X51485000Y-42720000D01*
D17*
%TO.N,Net-(Connector2-Pin_1)*%
X30790000Y-40120000D02*
X29110000Y-40120000D01*
X41360000Y-41220000D02*
X34860000Y-41220000D01*
%TO.N,Net-(Connector3-Pin_1)*%
X41048332Y-47298332D02*
X41048332Y-52220000D01*
X42036666Y-31393334D02*
X42010000Y-31420000D01*
X42036666Y-25620000D02*
X42036666Y-31393334D01*
X40180000Y-46430000D02*
X41048332Y-47298332D01*
%TD*%
%TA.AperFunction,Conductor*%
%TO.N,GND*%
G36*
X55542539Y-21490185D02*
G01*
X55588294Y-21542989D01*
X55599500Y-21594500D01*
X55599500Y-22889903D01*
X55579815Y-22956942D01*
X55527011Y-23002697D01*
X55521036Y-23004624D01*
X55521138Y-23004871D01*
X55509617Y-23009617D01*
X55509616Y-23009618D01*
X55509459Y-23009999D01*
X55509459Y-23010000D01*
X55509617Y-23010383D01*
X55509901Y-23010500D01*
X55509903Y-23010500D01*
X55521138Y-23015129D01*
X55519583Y-23018903D01*
X55561480Y-23040746D01*
X55596137Y-23101415D01*
X55599500Y-23130096D01*
X55599500Y-56315500D01*
X55579815Y-56382539D01*
X55527011Y-56428294D01*
X55475500Y-56439500D01*
X20724500Y-56439500D01*
X20657461Y-56419815D01*
X20611706Y-56367011D01*
X20600500Y-56315500D01*
X20600500Y-50804618D01*
X23203408Y-50804618D01*
X23203408Y-53818814D01*
X29583997Y-53818814D01*
X29583997Y-53117844D01*
X33871666Y-53117844D01*
X33878067Y-53177372D01*
X33878069Y-53177379D01*
X33928311Y-53312086D01*
X33928315Y-53312093D01*
X34014475Y-53427187D01*
X34014478Y-53427190D01*
X34129572Y-53513350D01*
X34129579Y-53513354D01*
X34264286Y-53563596D01*
X34264293Y-53563598D01*
X34323821Y-53569999D01*
X34323838Y-53570000D01*
X34971666Y-53570000D01*
X34971666Y-52655501D01*
X35079351Y-52704680D01*
X35185903Y-52720000D01*
X35257429Y-52720000D01*
X35363981Y-52704680D01*
X35471666Y-52655501D01*
X35471666Y-53570000D01*
X36119494Y-53570000D01*
X36119510Y-53569999D01*
X36179038Y-53563598D01*
X36179045Y-53563596D01*
X36313752Y-53513354D01*
X36313759Y-53513350D01*
X36428853Y-53427190D01*
X36428856Y-53427187D01*
X36515016Y-53312093D01*
X36515020Y-53312086D01*
X36565262Y-53177379D01*
X36565264Y-53177372D01*
X36571665Y-53117844D01*
X36571666Y-53117827D01*
X36571666Y-52470000D01*
X35655352Y-52470000D01*
X35681159Y-52429844D01*
X35721666Y-52291889D01*
X35721666Y-52148111D01*
X35681159Y-52010156D01*
X35655352Y-51970000D01*
X36571666Y-51970000D01*
X36571666Y-51322172D01*
X36571665Y-51322155D01*
X36565264Y-51262627D01*
X36565262Y-51262620D01*
X36515020Y-51127913D01*
X36515016Y-51127906D01*
X36428856Y-51012812D01*
X36428853Y-51012809D01*
X36313759Y-50926649D01*
X36313752Y-50926645D01*
X36179045Y-50876403D01*
X36179038Y-50876401D01*
X36119510Y-50870000D01*
X35471666Y-50870000D01*
X35471666Y-51784498D01*
X35363981Y-51735320D01*
X35257429Y-51720000D01*
X35185903Y-51720000D01*
X35079351Y-51735320D01*
X34971666Y-51784498D01*
X34971666Y-50870000D01*
X34323821Y-50870000D01*
X34264293Y-50876401D01*
X34264286Y-50876403D01*
X34129579Y-50926645D01*
X34129572Y-50926649D01*
X34014478Y-51012809D01*
X34014475Y-51012812D01*
X33928315Y-51127906D01*
X33928311Y-51127913D01*
X33878069Y-51262620D01*
X33878067Y-51262627D01*
X33871666Y-51322155D01*
X33871666Y-51970000D01*
X34787980Y-51970000D01*
X34762173Y-52010156D01*
X34721666Y-52148111D01*
X34721666Y-52291889D01*
X34762173Y-52429844D01*
X34787980Y-52470000D01*
X33871666Y-52470000D01*
X33871666Y-53117844D01*
X29583997Y-53117844D01*
X29583997Y-50804618D01*
X23203408Y-50804618D01*
X20600500Y-50804618D01*
X20600500Y-42939120D01*
X23359500Y-42939120D01*
X23359501Y-42939126D01*
X23365908Y-42998733D01*
X23416202Y-43133578D01*
X23416206Y-43133585D01*
X23502452Y-43248794D01*
X23502455Y-43248797D01*
X23617664Y-43335043D01*
X23617671Y-43335047D01*
X23752517Y-43385341D01*
X23752516Y-43385341D01*
X23759444Y-43386085D01*
X23812127Y-43391750D01*
X24877059Y-43391749D01*
X24944098Y-43411433D01*
X24964740Y-43428068D01*
X26426490Y-44889818D01*
X26439540Y-44898017D01*
X26461854Y-44912038D01*
X26467507Y-44916049D01*
X26500163Y-44942091D01*
X26537794Y-44960213D01*
X26543856Y-44963563D01*
X26579228Y-44985789D01*
X26618648Y-44999583D01*
X26625076Y-45002245D01*
X26662689Y-45020359D01*
X26703405Y-45029652D01*
X26710074Y-45031574D01*
X26749495Y-45045368D01*
X26791001Y-45050044D01*
X26797826Y-45051203D01*
X26838555Y-45060500D01*
X26883796Y-45060500D01*
X39998108Y-45060500D01*
X40065147Y-45080185D01*
X40081638Y-45092856D01*
X40223438Y-45222124D01*
X40223440Y-45222125D01*
X40223441Y-45222126D01*
X40349924Y-45300441D01*
X40396560Y-45352469D01*
X40407664Y-45421450D01*
X40379711Y-45485485D01*
X40321576Y-45524241D01*
X40281145Y-45528251D01*
X40281145Y-45529500D01*
X40274646Y-45529500D01*
X40085354Y-45529500D01*
X40052897Y-45536398D01*
X39900197Y-45568855D01*
X39900192Y-45568857D01*
X39727270Y-45645848D01*
X39727265Y-45645851D01*
X39574129Y-45757111D01*
X39447466Y-45897785D01*
X39352821Y-46061715D01*
X39352818Y-46061722D01*
X39294327Y-46241740D01*
X39294326Y-46241744D01*
X39274540Y-46430000D01*
X39294326Y-46618256D01*
X39294327Y-46618259D01*
X39352818Y-46798277D01*
X39352821Y-46798284D01*
X39447467Y-46962216D01*
X39564947Y-47092690D01*
X39574129Y-47102888D01*
X39727265Y-47214148D01*
X39727270Y-47214151D01*
X39900192Y-47291142D01*
X39900197Y-47291144D01*
X40085354Y-47330500D01*
X40144547Y-47330500D01*
X40211586Y-47350185D01*
X40232223Y-47366814D01*
X40386514Y-47521104D01*
X40419998Y-47582426D01*
X40422832Y-47608784D01*
X40422832Y-50745500D01*
X40403147Y-50812539D01*
X40350343Y-50858294D01*
X40298833Y-50869500D01*
X40150462Y-50869500D01*
X40150455Y-50869501D01*
X40090848Y-50875908D01*
X39956003Y-50926202D01*
X39955996Y-50926206D01*
X39840787Y-51012452D01*
X39840784Y-51012455D01*
X39754538Y-51127664D01*
X39754534Y-51127671D01*
X39704240Y-51262517D01*
X39697833Y-51322116D01*
X39697833Y-51322123D01*
X39697832Y-51322135D01*
X39697832Y-53117870D01*
X39697833Y-53117876D01*
X39704240Y-53177483D01*
X39754534Y-53312328D01*
X39754538Y-53312335D01*
X39840784Y-53427544D01*
X39840787Y-53427547D01*
X39955996Y-53513793D01*
X39956003Y-53513797D01*
X40090849Y-53564091D01*
X40090848Y-53564091D01*
X40097776Y-53564835D01*
X40150459Y-53570500D01*
X41946204Y-53570499D01*
X42005815Y-53564091D01*
X42140663Y-53513796D01*
X42255878Y-53427546D01*
X42342128Y-53312331D01*
X42392423Y-53177483D01*
X42398832Y-53117873D01*
X42398831Y-51322128D01*
X42392423Y-51262517D01*
X42342216Y-51127906D01*
X42342129Y-51127671D01*
X42342125Y-51127664D01*
X42255879Y-51012455D01*
X42255876Y-51012452D01*
X42140667Y-50926206D01*
X42140660Y-50926202D01*
X42005814Y-50875908D01*
X42005815Y-50875908D01*
X41946215Y-50869501D01*
X41946213Y-50869500D01*
X41946205Y-50869500D01*
X41946197Y-50869500D01*
X41797832Y-50869500D01*
X41730793Y-50849815D01*
X41685038Y-50797011D01*
X41673832Y-50745500D01*
X41673832Y-49677969D01*
X46936003Y-49677969D01*
X46936003Y-54049634D01*
X52987070Y-54049634D01*
X52987070Y-49677969D01*
X46936003Y-49677969D01*
X41673832Y-49677969D01*
X41673832Y-47381074D01*
X41675556Y-47365454D01*
X41675271Y-47365428D01*
X41676003Y-47357672D01*
X41676005Y-47357665D01*
X41673832Y-47288517D01*
X41673832Y-47258982D01*
X41672963Y-47252104D01*
X41672504Y-47246275D01*
X41671041Y-47199704D01*
X41665454Y-47180476D01*
X41661506Y-47161416D01*
X41658995Y-47141536D01*
X41641844Y-47098219D01*
X41639951Y-47092690D01*
X41626950Y-47047941D01*
X41626948Y-47047938D01*
X41616755Y-47030703D01*
X41608193Y-47013226D01*
X41600819Y-46994602D01*
X41600818Y-46994600D01*
X41573411Y-46956877D01*
X41570220Y-46952018D01*
X41546504Y-46911915D01*
X41546497Y-46911906D01*
X41532338Y-46897747D01*
X41519700Y-46882951D01*
X41507926Y-46866745D01*
X41472020Y-46837041D01*
X41467708Y-46833118D01*
X41118960Y-46484369D01*
X41085475Y-46423046D01*
X41083323Y-46409668D01*
X41065674Y-46241744D01*
X41007179Y-46061716D01*
X40912533Y-45897784D01*
X40785871Y-45757112D01*
X40662803Y-45667698D01*
X40620138Y-45612369D01*
X40614159Y-45542756D01*
X40646764Y-45480961D01*
X40707603Y-45446604D01*
X40758472Y-45445492D01*
X40838757Y-45460500D01*
X40838759Y-45460500D01*
X41061241Y-45460500D01*
X41061243Y-45460500D01*
X41279940Y-45419618D01*
X41487401Y-45339247D01*
X41676562Y-45222124D01*
X41818354Y-45092863D01*
X41840979Y-45072238D01*
X41849844Y-45060500D01*
X41975058Y-44894689D01*
X42074229Y-44695528D01*
X42135115Y-44481536D01*
X42155643Y-44260000D01*
X42135115Y-44038464D01*
X42074229Y-43824472D01*
X42055735Y-43787331D01*
X41975061Y-43625316D01*
X41975056Y-43625308D01*
X41840979Y-43447761D01*
X41676562Y-43297876D01*
X41676560Y-43297874D01*
X41487404Y-43180754D01*
X41487398Y-43180752D01*
X41279940Y-43100382D01*
X41061243Y-43059500D01*
X40838757Y-43059500D01*
X40620060Y-43100382D01*
X40529351Y-43135523D01*
X40412601Y-43180752D01*
X40412595Y-43180754D01*
X40223441Y-43297873D01*
X40223438Y-43297876D01*
X40081644Y-43427138D01*
X40018843Y-43457754D01*
X39998108Y-43459500D01*
X27311690Y-43459500D01*
X27244651Y-43439815D01*
X27224009Y-43423181D01*
X26096818Y-42295990D01*
X26063333Y-42234667D01*
X26060499Y-42208309D01*
X26060499Y-41874190D01*
X26080184Y-41807151D01*
X26096818Y-41786509D01*
X27152209Y-40731118D01*
X28008756Y-39874570D01*
X28070078Y-39841087D01*
X28139770Y-39846071D01*
X28195703Y-39887943D01*
X28220120Y-39953407D01*
X28219757Y-39975214D01*
X28204540Y-40120000D01*
X28224326Y-40308256D01*
X28224327Y-40308259D01*
X28282818Y-40488277D01*
X28282821Y-40488284D01*
X28377467Y-40652216D01*
X28479185Y-40765185D01*
X28504129Y-40792888D01*
X28657265Y-40904148D01*
X28657270Y-40904151D01*
X28830192Y-40981142D01*
X28830197Y-40981144D01*
X29015354Y-41020500D01*
X29015355Y-41020500D01*
X29204644Y-41020500D01*
X29204646Y-41020500D01*
X29389803Y-40981144D01*
X29562730Y-40904151D01*
X29715871Y-40792888D01*
X29718788Y-40789647D01*
X29721600Y-40786526D01*
X29781087Y-40749879D01*
X29813748Y-40745500D01*
X30086252Y-40745500D01*
X30153291Y-40765185D01*
X30178400Y-40786526D01*
X30184126Y-40792885D01*
X30184130Y-40792889D01*
X30337265Y-40904148D01*
X30337270Y-40904151D01*
X30510192Y-40981142D01*
X30510197Y-40981144D01*
X30695354Y-41020500D01*
X30695355Y-41020500D01*
X30884644Y-41020500D01*
X30884646Y-41020500D01*
X31069803Y-40981144D01*
X31242730Y-40904151D01*
X31395871Y-40792888D01*
X31522533Y-40652216D01*
X31617179Y-40488284D01*
X31675674Y-40308256D01*
X31695460Y-40120000D01*
X31675674Y-39931744D01*
X31627285Y-39782818D01*
X31625290Y-39712977D01*
X31661370Y-39653144D01*
X31724071Y-39622316D01*
X31745216Y-39620500D01*
X34173291Y-39620500D01*
X34240330Y-39640185D01*
X34286085Y-39692989D01*
X34296029Y-39762147D01*
X34267004Y-39825703D01*
X34232308Y-39853555D01*
X34036496Y-39959522D01*
X34036494Y-39959523D01*
X33840257Y-40112261D01*
X33671833Y-40295217D01*
X33535826Y-40503393D01*
X33435936Y-40731118D01*
X33374892Y-40972175D01*
X33374890Y-40972187D01*
X33354357Y-41219994D01*
X33354357Y-41220005D01*
X33374890Y-41467812D01*
X33374892Y-41467824D01*
X33435936Y-41708881D01*
X33535826Y-41936606D01*
X33671833Y-42144782D01*
X33671836Y-42144785D01*
X33840256Y-42327738D01*
X34036491Y-42480474D01*
X34255190Y-42598828D01*
X34490386Y-42679571D01*
X34735665Y-42720500D01*
X34984335Y-42720500D01*
X35229614Y-42679571D01*
X35464810Y-42598828D01*
X35683509Y-42480474D01*
X35879744Y-42327738D01*
X36048164Y-42144785D01*
X36184173Y-41936607D01*
X36184175Y-41936603D01*
X36191595Y-41919689D01*
X36236551Y-41866203D01*
X36303287Y-41845514D01*
X36305150Y-41845500D01*
X39914850Y-41845500D01*
X39981889Y-41865185D01*
X40027644Y-41917989D01*
X40028405Y-41919689D01*
X40035824Y-41936603D01*
X40171833Y-42144782D01*
X40171836Y-42144785D01*
X40340256Y-42327738D01*
X40536491Y-42480474D01*
X40755190Y-42598828D01*
X40990386Y-42679571D01*
X41235665Y-42720500D01*
X41484335Y-42720500D01*
X41607187Y-42700000D01*
X46954357Y-42700000D01*
X46974884Y-42921535D01*
X46974885Y-42921537D01*
X47035769Y-43135523D01*
X47035775Y-43135538D01*
X47134938Y-43334683D01*
X47134943Y-43334691D01*
X47269020Y-43512238D01*
X47433437Y-43662123D01*
X47433439Y-43662125D01*
X47622595Y-43779245D01*
X47622596Y-43779245D01*
X47622599Y-43779247D01*
X47830060Y-43859618D01*
X48048757Y-43900500D01*
X48048759Y-43900500D01*
X48271241Y-43900500D01*
X48271243Y-43900500D01*
X48489940Y-43859618D01*
X48697401Y-43779247D01*
X48886562Y-43662124D01*
X49033839Y-43527862D01*
X49096643Y-43497246D01*
X49117377Y-43495500D01*
X50037649Y-43495500D01*
X50104688Y-43515185D01*
X50150443Y-43567989D01*
X50160939Y-43606248D01*
X50165908Y-43652483D01*
X50216202Y-43787328D01*
X50216206Y-43787335D01*
X50302452Y-43902544D01*
X50302455Y-43902547D01*
X50417664Y-43988793D01*
X50417671Y-43988797D01*
X50552517Y-44039091D01*
X50552516Y-44039091D01*
X50559444Y-44039835D01*
X50612127Y-44045500D01*
X52407872Y-44045499D01*
X52467483Y-44039091D01*
X52602331Y-43988796D01*
X52717546Y-43902546D01*
X52803796Y-43787331D01*
X52854091Y-43652483D01*
X52860500Y-43592873D01*
X52860499Y-41797128D01*
X52854091Y-41737517D01*
X52843410Y-41708881D01*
X52803797Y-41602671D01*
X52803793Y-41602664D01*
X52717547Y-41487455D01*
X52717544Y-41487452D01*
X52602335Y-41401206D01*
X52602328Y-41401202D01*
X52467482Y-41350908D01*
X52467483Y-41350908D01*
X52407883Y-41344501D01*
X52407881Y-41344500D01*
X52407873Y-41344500D01*
X52407864Y-41344500D01*
X50612129Y-41344500D01*
X50612123Y-41344501D01*
X50552516Y-41350908D01*
X50417671Y-41401202D01*
X50417664Y-41401206D01*
X50302455Y-41487452D01*
X50302452Y-41487455D01*
X50216206Y-41602664D01*
X50216202Y-41602671D01*
X50165910Y-41737513D01*
X50165909Y-41737517D01*
X50160937Y-41783757D01*
X50134201Y-41848306D01*
X50076809Y-41888154D01*
X50037649Y-41894500D01*
X49106408Y-41894500D01*
X49039369Y-41874815D01*
X49022870Y-41862137D01*
X48886562Y-41737876D01*
X48886560Y-41737874D01*
X48697404Y-41620754D01*
X48697398Y-41620752D01*
X48489940Y-41540382D01*
X48271243Y-41499500D01*
X48048757Y-41499500D01*
X47830060Y-41540382D01*
X47698864Y-41591207D01*
X47622601Y-41620752D01*
X47622595Y-41620754D01*
X47433439Y-41737874D01*
X47433437Y-41737876D01*
X47269020Y-41887761D01*
X47134943Y-42065308D01*
X47134938Y-42065316D01*
X47035775Y-42264461D01*
X47035769Y-42264476D01*
X46974885Y-42478462D01*
X46974884Y-42478464D01*
X46954357Y-42699999D01*
X46954357Y-42700000D01*
X41607187Y-42700000D01*
X41729614Y-42679571D01*
X41964810Y-42598828D01*
X42183509Y-42480474D01*
X42379744Y-42327738D01*
X42548164Y-42144785D01*
X42684173Y-41936607D01*
X42784063Y-41708881D01*
X42845108Y-41467821D01*
X42865643Y-41220000D01*
X42854354Y-41083767D01*
X42845109Y-40972187D01*
X42845107Y-40972175D01*
X42784063Y-40731118D01*
X42684173Y-40503393D01*
X42548166Y-40295217D01*
X42473213Y-40213797D01*
X42379744Y-40112262D01*
X42183509Y-39959526D01*
X42183508Y-39959525D01*
X42183505Y-39959523D01*
X42183503Y-39959522D01*
X41987692Y-39853555D01*
X41951738Y-39817870D01*
X50159500Y-39817870D01*
X50159501Y-39817876D01*
X50165908Y-39877483D01*
X50216202Y-40012328D01*
X50216206Y-40012335D01*
X50302452Y-40127544D01*
X50302455Y-40127547D01*
X50417664Y-40213793D01*
X50417671Y-40213797D01*
X50552517Y-40264091D01*
X50552516Y-40264091D01*
X50559444Y-40264835D01*
X50612127Y-40270500D01*
X52407872Y-40270499D01*
X52467483Y-40264091D01*
X52602331Y-40213796D01*
X52717546Y-40127546D01*
X52803796Y-40012331D01*
X52854091Y-39877483D01*
X52860500Y-39817873D01*
X52860499Y-38022128D01*
X52854091Y-37962517D01*
X52829095Y-37895500D01*
X52803797Y-37827671D01*
X52803793Y-37827664D01*
X52717547Y-37712455D01*
X52717544Y-37712452D01*
X52602335Y-37626206D01*
X52602328Y-37626202D01*
X52467482Y-37575908D01*
X52467483Y-37575908D01*
X52407883Y-37569501D01*
X52407881Y-37569500D01*
X52407873Y-37569500D01*
X52407864Y-37569500D01*
X50612129Y-37569500D01*
X50612123Y-37569501D01*
X50552516Y-37575908D01*
X50417671Y-37626202D01*
X50417664Y-37626206D01*
X50302455Y-37712452D01*
X50302452Y-37712455D01*
X50216206Y-37827664D01*
X50216202Y-37827671D01*
X50165908Y-37962517D01*
X50160087Y-38016666D01*
X50159501Y-38022123D01*
X50159500Y-38022135D01*
X50159500Y-39817870D01*
X41951738Y-39817870D01*
X41938101Y-39804335D01*
X41922993Y-39736119D01*
X41947163Y-39670563D01*
X42002939Y-39628482D01*
X42046709Y-39620500D01*
X44500192Y-39620500D01*
X44540903Y-39611208D01*
X44547758Y-39610043D01*
X44589253Y-39605368D01*
X44628678Y-39591571D01*
X44635319Y-39589658D01*
X44676059Y-39580360D01*
X44713691Y-39562236D01*
X44720103Y-39559580D01*
X44759520Y-39545789D01*
X44794887Y-39523565D01*
X44800959Y-39520209D01*
X44838585Y-39502091D01*
X44871234Y-39476052D01*
X44876893Y-39472037D01*
X44912260Y-39449816D01*
X45039814Y-39322262D01*
X45039814Y-39322261D01*
X45905256Y-38456819D01*
X45966579Y-38423334D01*
X45992937Y-38420500D01*
X46121239Y-38420500D01*
X46121241Y-38420500D01*
X46339938Y-38379618D01*
X46547399Y-38299247D01*
X46736560Y-38182124D01*
X46900979Y-38032236D01*
X47035056Y-37854689D01*
X47134227Y-37655528D01*
X47195113Y-37441536D01*
X47215641Y-37220000D01*
X47195113Y-36998464D01*
X47134227Y-36784472D01*
X47134222Y-36784461D01*
X47035059Y-36585316D01*
X47035054Y-36585308D01*
X46900977Y-36407761D01*
X46736560Y-36257876D01*
X46736558Y-36257874D01*
X46547402Y-36140754D01*
X46547396Y-36140752D01*
X46339938Y-36060382D01*
X46121241Y-36019500D01*
X45898755Y-36019500D01*
X45680058Y-36060382D01*
X45548862Y-36111207D01*
X45472599Y-36140752D01*
X45472593Y-36140754D01*
X45283437Y-36257874D01*
X45283435Y-36257876D01*
X45119018Y-36407761D01*
X44984941Y-36585308D01*
X44984936Y-36585316D01*
X44885773Y-36784461D01*
X44885767Y-36784476D01*
X44824883Y-36998462D01*
X44824882Y-36998464D01*
X44804355Y-37219998D01*
X44805223Y-37229370D01*
X44791804Y-37297939D01*
X44769432Y-37328486D01*
X44114739Y-37983181D01*
X44053416Y-38016666D01*
X44027058Y-38019500D01*
X42485906Y-38019500D01*
X42418867Y-37999815D01*
X42373112Y-37947011D01*
X42363168Y-37877853D01*
X42392193Y-37814297D01*
X42394676Y-37811517D01*
X42485872Y-37712452D01*
X42548164Y-37644785D01*
X42684173Y-37436607D01*
X42784063Y-37208881D01*
X42845108Y-36967821D01*
X42845109Y-36967812D01*
X42865643Y-36720005D01*
X42865643Y-36719994D01*
X42845109Y-36472187D01*
X42845107Y-36472175D01*
X42784063Y-36231118D01*
X42690523Y-36017870D01*
X50159500Y-36017870D01*
X50159501Y-36017876D01*
X50165908Y-36077483D01*
X50216202Y-36212328D01*
X50216206Y-36212335D01*
X50302452Y-36327544D01*
X50302455Y-36327547D01*
X50417664Y-36413793D01*
X50417671Y-36413797D01*
X50552517Y-36464091D01*
X50552516Y-36464091D01*
X50559444Y-36464835D01*
X50612127Y-36470500D01*
X52407872Y-36470499D01*
X52467483Y-36464091D01*
X52602331Y-36413796D01*
X52717546Y-36327546D01*
X52803796Y-36212331D01*
X52854091Y-36077483D01*
X52860500Y-36017873D01*
X52860499Y-34222128D01*
X52854091Y-34162517D01*
X52821852Y-34076081D01*
X52803797Y-34027671D01*
X52803793Y-34027664D01*
X52717547Y-33912455D01*
X52717544Y-33912452D01*
X52602335Y-33826206D01*
X52602328Y-33826202D01*
X52467482Y-33775908D01*
X52467483Y-33775908D01*
X52407883Y-33769501D01*
X52407881Y-33769500D01*
X52407873Y-33769500D01*
X52407864Y-33769500D01*
X50612129Y-33769500D01*
X50612123Y-33769501D01*
X50552516Y-33775908D01*
X50417671Y-33826202D01*
X50417664Y-33826206D01*
X50302455Y-33912452D01*
X50302452Y-33912455D01*
X50216206Y-34027664D01*
X50216202Y-34027671D01*
X50165908Y-34162517D01*
X50159501Y-34222116D01*
X50159501Y-34222123D01*
X50159500Y-34222135D01*
X50159500Y-36017870D01*
X42690523Y-36017870D01*
X42684173Y-36003393D01*
X42548166Y-35795217D01*
X42526557Y-35771744D01*
X42379744Y-35612262D01*
X42183509Y-35459526D01*
X42183507Y-35459525D01*
X42183506Y-35459524D01*
X41964811Y-35341172D01*
X41964802Y-35341169D01*
X41729616Y-35260429D01*
X41484335Y-35219500D01*
X41235665Y-35219500D01*
X40990383Y-35260429D01*
X40755197Y-35341169D01*
X40755188Y-35341172D01*
X40536493Y-35459524D01*
X40340257Y-35612261D01*
X40171833Y-35795217D01*
X40035826Y-36003393D01*
X39935936Y-36231118D01*
X39874892Y-36472175D01*
X39874890Y-36472187D01*
X39854357Y-36719994D01*
X39854357Y-36720005D01*
X39874890Y-36967812D01*
X39874892Y-36967824D01*
X39935936Y-37208881D01*
X40035826Y-37436606D01*
X40171833Y-37644782D01*
X40325324Y-37811517D01*
X40356246Y-37874172D01*
X40348386Y-37943598D01*
X40304239Y-37997753D01*
X40237821Y-38019444D01*
X40234094Y-38019500D01*
X35985906Y-38019500D01*
X35918867Y-37999815D01*
X35873112Y-37947011D01*
X35863168Y-37877853D01*
X35892193Y-37814297D01*
X35894676Y-37811517D01*
X35985872Y-37712452D01*
X36048164Y-37644785D01*
X36184173Y-37436607D01*
X36284063Y-37208881D01*
X36345108Y-36967821D01*
X36345109Y-36967812D01*
X36365643Y-36720005D01*
X36365643Y-36719994D01*
X36345109Y-36472187D01*
X36345107Y-36472175D01*
X36284063Y-36231118D01*
X36184173Y-36003393D01*
X36048166Y-35795217D01*
X36026557Y-35771744D01*
X35879744Y-35612262D01*
X35683509Y-35459526D01*
X35683507Y-35459525D01*
X35683506Y-35459524D01*
X35464811Y-35341172D01*
X35464802Y-35341169D01*
X35229616Y-35260429D01*
X34984335Y-35219500D01*
X34735665Y-35219500D01*
X34490383Y-35260429D01*
X34255197Y-35341169D01*
X34255188Y-35341172D01*
X34036493Y-35459524D01*
X33840257Y-35612261D01*
X33671833Y-35795217D01*
X33535826Y-36003393D01*
X33435936Y-36231118D01*
X33374892Y-36472175D01*
X33374890Y-36472187D01*
X33354357Y-36719994D01*
X33354357Y-36720005D01*
X33374890Y-36967812D01*
X33374892Y-36967824D01*
X33435936Y-37208881D01*
X33535826Y-37436606D01*
X33671833Y-37644782D01*
X33825324Y-37811517D01*
X33856246Y-37874172D01*
X33848386Y-37943598D01*
X33804239Y-37997753D01*
X33737821Y-38019444D01*
X33734094Y-38019500D01*
X28984428Y-38019500D01*
X28917389Y-37999815D01*
X28871634Y-37947011D01*
X28860428Y-37895500D01*
X28860428Y-33174273D01*
X28880113Y-33107234D01*
X28932917Y-33061479D01*
X28961639Y-33052385D01*
X29029940Y-33039618D01*
X29237401Y-32959247D01*
X29426562Y-32842124D01*
X29590981Y-32692236D01*
X29725058Y-32514689D01*
X29824229Y-32315528D01*
X29885115Y-32101536D01*
X29905643Y-31880000D01*
X29885115Y-31658464D01*
X29824229Y-31444472D01*
X29824224Y-31444461D01*
X29725061Y-31245316D01*
X29725056Y-31245308D01*
X29590979Y-31067761D01*
X29426562Y-30917876D01*
X29426560Y-30917874D01*
X29237404Y-30800754D01*
X29237398Y-30800752D01*
X29231655Y-30798527D01*
X29029940Y-30720382D01*
X28811243Y-30679500D01*
X28588757Y-30679500D01*
X28370060Y-30720382D01*
X28291212Y-30750928D01*
X28162601Y-30800752D01*
X28162595Y-30800754D01*
X27973439Y-30917874D01*
X27973437Y-30917876D01*
X27809020Y-31067761D01*
X27674943Y-31245308D01*
X27674938Y-31245316D01*
X27575775Y-31444461D01*
X27575769Y-31444476D01*
X27514885Y-31658462D01*
X27514884Y-31658464D01*
X27494357Y-31879998D01*
X27495225Y-31889370D01*
X27481806Y-31957939D01*
X27459437Y-31988484D01*
X27430111Y-32017811D01*
X27407894Y-32053168D01*
X27403869Y-32058841D01*
X27377838Y-32091482D01*
X27359719Y-32129105D01*
X27356355Y-32135192D01*
X27334140Y-32170548D01*
X27334136Y-32170555D01*
X27320344Y-32209967D01*
X27317683Y-32216392D01*
X27299567Y-32254011D01*
X27290272Y-32294731D01*
X27288347Y-32301413D01*
X27274560Y-32340816D01*
X27269883Y-32382307D01*
X27268719Y-32389161D01*
X27259428Y-32429878D01*
X27259428Y-38308381D01*
X27239743Y-38375420D01*
X27223109Y-38396062D01*
X24964739Y-40654431D01*
X24903416Y-40687916D01*
X24877058Y-40690750D01*
X23812129Y-40690750D01*
X23812123Y-40690751D01*
X23752516Y-40697158D01*
X23617671Y-40747452D01*
X23617664Y-40747456D01*
X23502455Y-40833702D01*
X23502452Y-40833705D01*
X23416206Y-40948914D01*
X23416202Y-40948921D01*
X23365908Y-41083767D01*
X23359501Y-41143366D01*
X23359500Y-41143385D01*
X23359500Y-42939120D01*
X20600500Y-42939120D01*
X20600500Y-38410370D01*
X23359500Y-38410370D01*
X23359501Y-38410376D01*
X23365908Y-38469983D01*
X23416202Y-38604828D01*
X23416206Y-38604835D01*
X23502452Y-38720044D01*
X23502455Y-38720047D01*
X23617664Y-38806293D01*
X23617671Y-38806297D01*
X23752517Y-38856591D01*
X23752516Y-38856591D01*
X23759444Y-38857335D01*
X23812127Y-38863000D01*
X25607872Y-38862999D01*
X25667483Y-38856591D01*
X25802331Y-38806296D01*
X25917546Y-38720046D01*
X26003796Y-38604831D01*
X26054091Y-38469983D01*
X26060500Y-38410373D01*
X26060499Y-36614628D01*
X26054091Y-36555017D01*
X26023197Y-36472187D01*
X26003797Y-36420171D01*
X26003793Y-36420164D01*
X25917547Y-36304955D01*
X25917544Y-36304952D01*
X25802335Y-36218706D01*
X25802328Y-36218702D01*
X25667482Y-36168408D01*
X25667483Y-36168408D01*
X25607883Y-36162001D01*
X25607881Y-36162000D01*
X25607873Y-36162000D01*
X25607864Y-36162000D01*
X23812129Y-36162000D01*
X23812123Y-36162001D01*
X23752516Y-36168408D01*
X23617671Y-36218702D01*
X23617664Y-36218706D01*
X23502455Y-36304952D01*
X23502452Y-36304955D01*
X23416206Y-36420164D01*
X23416202Y-36420171D01*
X23365908Y-36555017D01*
X23362651Y-36585316D01*
X23359501Y-36614623D01*
X23359500Y-36614635D01*
X23359500Y-38410370D01*
X20600500Y-38410370D01*
X20600500Y-33881620D01*
X23359500Y-33881620D01*
X23359501Y-33881626D01*
X23365908Y-33941233D01*
X23416202Y-34076078D01*
X23416206Y-34076085D01*
X23502452Y-34191294D01*
X23502455Y-34191297D01*
X23617664Y-34277543D01*
X23617671Y-34277547D01*
X23752517Y-34327841D01*
X23752516Y-34327841D01*
X23759444Y-34328585D01*
X23812127Y-34334250D01*
X25607872Y-34334249D01*
X25667483Y-34327841D01*
X25802331Y-34277546D01*
X25917546Y-34191296D01*
X26003796Y-34076081D01*
X26054091Y-33941233D01*
X26060500Y-33881623D01*
X26060499Y-32085878D01*
X26054091Y-32026267D01*
X26028606Y-31957939D01*
X26003797Y-31891421D01*
X26003793Y-31891414D01*
X25917547Y-31776205D01*
X25917544Y-31776202D01*
X25802335Y-31689956D01*
X25802328Y-31689952D01*
X25667482Y-31639658D01*
X25667483Y-31639658D01*
X25607883Y-31633251D01*
X25607881Y-31633250D01*
X25607873Y-31633250D01*
X25607864Y-31633250D01*
X23812129Y-31633250D01*
X23812123Y-31633251D01*
X23752516Y-31639658D01*
X23617671Y-31689952D01*
X23617664Y-31689956D01*
X23502455Y-31776202D01*
X23502452Y-31776205D01*
X23416206Y-31891414D01*
X23416202Y-31891421D01*
X23365908Y-32026267D01*
X23359501Y-32085866D01*
X23359501Y-32085873D01*
X23359500Y-32085885D01*
X23359500Y-33881620D01*
X20600500Y-33881620D01*
X20600500Y-26517844D01*
X35848333Y-26517844D01*
X35854734Y-26577372D01*
X35854736Y-26577379D01*
X35904978Y-26712086D01*
X35904982Y-26712093D01*
X35991142Y-26827187D01*
X35991145Y-26827190D01*
X36106239Y-26913350D01*
X36106246Y-26913354D01*
X36240953Y-26963596D01*
X36240960Y-26963598D01*
X36300488Y-26969999D01*
X36300505Y-26970000D01*
X36948333Y-26970000D01*
X36948333Y-26055501D01*
X37056018Y-26104680D01*
X37162570Y-26120000D01*
X37234096Y-26120000D01*
X37340648Y-26104680D01*
X37448333Y-26055501D01*
X37448333Y-26970000D01*
X38096161Y-26970000D01*
X38096177Y-26969999D01*
X38155705Y-26963598D01*
X38155712Y-26963596D01*
X38290419Y-26913354D01*
X38290426Y-26913350D01*
X38405520Y-26827190D01*
X38405523Y-26827187D01*
X38491683Y-26712093D01*
X38491687Y-26712086D01*
X38541929Y-26577379D01*
X38541931Y-26577372D01*
X38548329Y-26517870D01*
X40686166Y-26517870D01*
X40686167Y-26517876D01*
X40692574Y-26577483D01*
X40742868Y-26712328D01*
X40742872Y-26712335D01*
X40829118Y-26827544D01*
X40829121Y-26827547D01*
X40944330Y-26913793D01*
X40944337Y-26913797D01*
X40989284Y-26930561D01*
X41079183Y-26964091D01*
X41138793Y-26970500D01*
X41287166Y-26970499D01*
X41354205Y-26990183D01*
X41399960Y-27042987D01*
X41411166Y-27094499D01*
X41411166Y-30691697D01*
X41391481Y-30758736D01*
X41379316Y-30774669D01*
X41277466Y-30887785D01*
X41182821Y-31051715D01*
X41182818Y-31051722D01*
X41124327Y-31231740D01*
X41124326Y-31231744D01*
X41104540Y-31420000D01*
X41124326Y-31608256D01*
X41124327Y-31608259D01*
X41182818Y-31788277D01*
X41182821Y-31788284D01*
X41277467Y-31952216D01*
X41344142Y-32026266D01*
X41404129Y-32092888D01*
X41557265Y-32204148D01*
X41557270Y-32204151D01*
X41730192Y-32281142D01*
X41730197Y-32281144D01*
X41915354Y-32320500D01*
X41915355Y-32320500D01*
X42104644Y-32320500D01*
X42104646Y-32320500D01*
X42289803Y-32281144D01*
X42462730Y-32204151D01*
X42615871Y-32092888D01*
X42742533Y-31952216D01*
X42837179Y-31788284D01*
X42895674Y-31608256D01*
X42915460Y-31420000D01*
X42895674Y-31231744D01*
X42837179Y-31051716D01*
X42742533Y-30887784D01*
X42694016Y-30833900D01*
X42663786Y-30770908D01*
X42662166Y-30750928D01*
X42662166Y-27094499D01*
X42681851Y-27027460D01*
X42734655Y-26981705D01*
X42786166Y-26970499D01*
X42934537Y-26970499D01*
X42934538Y-26970499D01*
X42994149Y-26964091D01*
X43128997Y-26913796D01*
X43244212Y-26827546D01*
X43330462Y-26712331D01*
X43380757Y-26577483D01*
X43387166Y-26517873D01*
X43387165Y-24722128D01*
X43380757Y-24662517D01*
X43330550Y-24527906D01*
X43330463Y-24527671D01*
X43330459Y-24527664D01*
X43244213Y-24412455D01*
X43244210Y-24412452D01*
X43129001Y-24326206D01*
X43128994Y-24326202D01*
X42994148Y-24275908D01*
X42994149Y-24275908D01*
X42934549Y-24269501D01*
X42934547Y-24269500D01*
X42934539Y-24269500D01*
X42934530Y-24269500D01*
X41138795Y-24269500D01*
X41138789Y-24269501D01*
X41079182Y-24275908D01*
X40944337Y-24326202D01*
X40944330Y-24326206D01*
X40829121Y-24412452D01*
X40829118Y-24412455D01*
X40742872Y-24527664D01*
X40742868Y-24527671D01*
X40692574Y-24662517D01*
X40686167Y-24722116D01*
X40686167Y-24722123D01*
X40686166Y-24722135D01*
X40686166Y-26517870D01*
X38548329Y-26517870D01*
X38548332Y-26517844D01*
X38548333Y-26517827D01*
X38548333Y-25870000D01*
X37632019Y-25870000D01*
X37657826Y-25829844D01*
X37698333Y-25691889D01*
X37698333Y-25548111D01*
X37657826Y-25410156D01*
X37632019Y-25370000D01*
X38548333Y-25370000D01*
X38548333Y-24722172D01*
X38548332Y-24722155D01*
X38541931Y-24662627D01*
X38541929Y-24662620D01*
X38491687Y-24527913D01*
X38491683Y-24527906D01*
X38405523Y-24412812D01*
X38405520Y-24412809D01*
X38290426Y-24326649D01*
X38290419Y-24326645D01*
X38155712Y-24276403D01*
X38155705Y-24276401D01*
X38096177Y-24270000D01*
X37448333Y-24270000D01*
X37448333Y-25184498D01*
X37340648Y-25135320D01*
X37234096Y-25120000D01*
X37162570Y-25120000D01*
X37056018Y-25135320D01*
X36948333Y-25184498D01*
X36948333Y-24270000D01*
X36300488Y-24270000D01*
X36240960Y-24276401D01*
X36240953Y-24276403D01*
X36106246Y-24326645D01*
X36106239Y-24326649D01*
X35991145Y-24412809D01*
X35991142Y-24412812D01*
X35904982Y-24527906D01*
X35904978Y-24527913D01*
X35854736Y-24662620D01*
X35854734Y-24662627D01*
X35848333Y-24722155D01*
X35848333Y-25370000D01*
X36764647Y-25370000D01*
X36738840Y-25410156D01*
X36698333Y-25548111D01*
X36698333Y-25691889D01*
X36738840Y-25829844D01*
X36764647Y-25870000D01*
X35848333Y-25870000D01*
X35848333Y-26517844D01*
X20600500Y-26517844D01*
X20600500Y-21594500D01*
X20620185Y-21527461D01*
X20672989Y-21481706D01*
X20724500Y-21470500D01*
X55475500Y-21470500D01*
X55542539Y-21490185D01*
G37*
%TD.AperFunction*%
%TD*%
M02*
