%TF.GenerationSoftware,KiCad,Pcbnew,7.0.8*%
%TF.CreationDate,2023-11-30T14:41:35+01:00*%
%TF.ProjectId,Le_damier,4c655f64-616d-4696-9572-2e6b69636164,rev?*%
%TF.SameCoordinates,Original*%
%TF.FileFunction,Copper,L1,Top*%
%TF.FilePolarity,Positive*%
%FSLAX46Y46*%
G04 Gerber Fmt 4.6, Leading zero omitted, Abs format (unit mm)*
G04 Created by KiCad (PCBNEW 7.0.8) date 2023-11-30 14:41:35*
%MOMM*%
%LPD*%
G01*
G04 APERTURE LIST*
G04 Aperture macros list*
%AMRoundRect*
0 Rectangle with rounded corners*
0 $1 Rounding radius*
0 $2 $3 $4 $5 $6 $7 $8 $9 X,Y pos of 4 corners*
0 Add a 4 corners polygon primitive as box body*
4,1,4,$2,$3,$4,$5,$6,$7,$8,$9,$2,$3,0*
0 Add four circle primitives for the rounded corners*
1,1,$1+$1,$2,$3*
1,1,$1+$1,$4,$5*
1,1,$1+$1,$6,$7*
1,1,$1+$1,$8,$9*
0 Add four rect primitives between the rounded corners*
20,1,$1+$1,$2,$3,$4,$5,0*
20,1,$1+$1,$4,$5,$6,$7,0*
20,1,$1+$1,$6,$7,$8,$9,0*
20,1,$1+$1,$8,$9,$2,$3,0*%
G04 Aperture macros list end*
%TA.AperFunction,SMDPad,CuDef*%
%ADD10RoundRect,0.250000X0.650000X-0.325000X0.650000X0.325000X-0.650000X0.325000X-0.650000X-0.325000X0*%
%TD*%
%TA.AperFunction,ComponentPad*%
%ADD11R,1.700000X1.700000*%
%TD*%
%TA.AperFunction,SMDPad,CuDef*%
%ADD12R,1.500000X0.900000*%
%TD*%
%TA.AperFunction,SMDPad,CuDef*%
%ADD13RoundRect,0.250000X-0.325000X-0.650000X0.325000X-0.650000X0.325000X0.650000X-0.325000X0.650000X0*%
%TD*%
%TA.AperFunction,SMDPad,CuDef*%
%ADD14RoundRect,0.250000X0.325000X0.650000X-0.325000X0.650000X-0.325000X-0.650000X0.325000X-0.650000X0*%
%TD*%
%TA.AperFunction,ComponentPad*%
%ADD15C,2.000000*%
%TD*%
%TA.AperFunction,ViaPad*%
%ADD16C,1.400000*%
%TD*%
%TA.AperFunction,ViaPad*%
%ADD17C,0.800000*%
%TD*%
%TA.AperFunction,Conductor*%
%ADD18C,0.600000*%
%TD*%
%TA.AperFunction,Conductor*%
%ADD19C,0.250000*%
%TD*%
G04 APERTURE END LIST*
D10*
%TO.P,C1,1*%
%TO.N,+5V*%
X33010000Y-29120000D03*
%TO.P,C1,2*%
%TO.N,GND*%
X33010000Y-26170000D03*
%TD*%
D11*
%TO.P,Connector7,1,Pin_1*%
%TO.N,Net-(Connector2-Pin_1)*%
X51510000Y-38920000D03*
%TD*%
D12*
%TO.P,D3,1,VDD*%
%TO.N,+5V*%
X25060000Y-48820000D03*
%TO.P,D3,2,DOUT*%
%TO.N,unconnected-(D3-DOUT-Pad2)*%
X25060000Y-52120000D03*
%TO.P,D3,3,VSS*%
%TO.N,GND*%
X29960000Y-52120000D03*
%TO.P,D3,4,DIN*%
%TO.N,/LED_DIN*%
X29960000Y-48820000D03*
%TD*%
D13*
%TO.P,C3,1*%
%TO.N,+5V*%
X25060000Y-45920000D03*
%TO.P,C3,2*%
%TO.N,GND*%
X28010000Y-45920000D03*
%TD*%
D12*
%TO.P,D1,1,VDD*%
%TO.N,+5V*%
X29960000Y-29120000D03*
%TO.P,D1,2,DOUT*%
%TO.N,unconnected-(D1-DOUT-Pad2)*%
X29960000Y-25820000D03*
%TO.P,D1,3,VSS*%
%TO.N,GND*%
X25060000Y-25820000D03*
%TO.P,D1,4,DIN*%
%TO.N,/LED_DIN*%
X25060000Y-29120000D03*
%TD*%
%TO.P,D4,1,VDD*%
%TO.N,+5V*%
X51210000Y-52120000D03*
%TO.P,D4,2,DOUT*%
%TO.N,/LED_DOUT*%
X51210000Y-48820000D03*
%TO.P,D4,3,VSS*%
%TO.N,GND*%
X46310000Y-48820000D03*
%TO.P,D4,4,DIN*%
%TO.N,/LED_DIN*%
X46310000Y-52120000D03*
%TD*%
D11*
%TO.P,Connector8,1,Pin_1*%
%TO.N,Net-(Connector3-Pin_1)*%
X41048332Y-52220000D03*
%TD*%
%TO.P,Connector4,1,Pin_1*%
%TO.N,GND*%
X37198333Y-25620000D03*
%TD*%
D14*
%TO.P,C4,1*%
%TO.N,+5V*%
X48185000Y-45820000D03*
%TO.P,C4,2*%
%TO.N,GND*%
X45235000Y-45820000D03*
%TD*%
D11*
%TO.P,Connector1,1,Pin_1*%
%TO.N,+5V*%
X24710000Y-42041250D03*
%TD*%
D14*
%TO.P,C2,1*%
%TO.N,+5V*%
X51210000Y-32020000D03*
%TO.P,C2,2*%
%TO.N,GND*%
X48260000Y-32020000D03*
%TD*%
D11*
%TO.P,Connector5,1,Pin_1*%
%TO.N,/LED_DIN*%
X24710000Y-32983750D03*
%TD*%
D15*
%TO.P,SW1,1,1*%
%TO.N,Net-(Connector3-Pin_1)*%
X34860000Y-36720000D03*
X41360000Y-36720000D03*
%TO.P,SW1,2,2*%
%TO.N,Net-(Connector2-Pin_1)*%
X34860000Y-41220000D03*
X41360000Y-41220000D03*
%TD*%
D12*
%TO.P,D2,1,VDD*%
%TO.N,+5V*%
X51210000Y-29120000D03*
%TO.P,D2,2,DOUT*%
%TO.N,unconnected-(D2-DOUT-Pad2)*%
X51210000Y-25820000D03*
%TO.P,D2,3,VSS*%
%TO.N,GND*%
X46310000Y-25820000D03*
%TO.P,D2,4,DIN*%
%TO.N,/LED_DIN*%
X46310000Y-29120000D03*
%TD*%
D11*
%TO.P,Connector2,1,Pin_1*%
%TO.N,Net-(Connector2-Pin_1)*%
X24710000Y-37512500D03*
%TD*%
%TO.P,Connector9,1,Pin_1*%
%TO.N,+5V*%
X51510000Y-42695000D03*
%TD*%
%TO.P,Connector6,1,Pin_1*%
%TO.N,/LED_DOUT*%
X51510000Y-35120000D03*
%TD*%
%TO.P,Connector10,1,Pin_1*%
%TO.N,GND*%
X35221666Y-52220000D03*
%TD*%
%TO.P,Connector3,1,Pin_1*%
%TO.N,Net-(Connector3-Pin_1)*%
X42036666Y-25620000D03*
%TD*%
D16*
%TO.N,+5V*%
X46009998Y-37220000D03*
X28700000Y-31880000D03*
X48160000Y-42700000D03*
X40950000Y-44260000D03*
%TO.N,GND*%
X35910000Y-33320000D03*
X31270000Y-35060000D03*
X48310000Y-40820000D03*
X36610000Y-46740000D03*
X45110000Y-32920000D03*
X39330000Y-30330000D03*
X32660000Y-46790000D03*
X42970000Y-47060000D03*
D17*
%TO.N,Net-(Connector2-Pin_1)*%
X29110000Y-40120000D03*
X30790000Y-40120000D03*
%TO.N,Net-(Connector3-Pin_1)*%
X40180000Y-46430000D03*
X42010000Y-31420000D03*
%TD*%
D18*
%TO.N,+5V*%
X43560000Y-42700000D02*
X48160000Y-42700000D01*
X48790000Y-46425000D02*
X48790000Y-49700000D01*
X25060000Y-45920000D02*
X25060000Y-48820000D01*
X48185000Y-45820000D02*
X48790000Y-46425000D01*
X29960000Y-30620000D02*
X28700000Y-31880000D01*
X51210000Y-32020000D02*
X46009998Y-37220000D01*
X51210000Y-32020000D02*
X51210000Y-29120000D01*
X24710000Y-45570000D02*
X25060000Y-45920000D01*
X42000000Y-44260000D02*
X43560000Y-42700000D01*
X29960000Y-29120000D02*
X29960000Y-30620000D01*
X48790000Y-49700000D02*
X51210000Y-52120000D01*
X48185000Y-45820000D02*
X48385000Y-45820000D01*
X24710000Y-42041250D02*
X24710000Y-45570000D01*
X29960000Y-29120000D02*
X33010000Y-29120000D01*
X40950000Y-44260000D02*
X42000000Y-44260000D01*
X48385000Y-45820000D02*
X51510000Y-42695000D01*
D19*
%TO.N,Net-(Connector2-Pin_1)*%
X29110000Y-40120000D02*
X26502500Y-37512500D01*
X31890000Y-41220000D02*
X34860000Y-41220000D01*
X43660000Y-38920000D02*
X41360000Y-41220000D01*
X26502500Y-37512500D02*
X24710000Y-37512500D01*
X30790000Y-40120000D02*
X31890000Y-41220000D01*
X51510000Y-38920000D02*
X43660000Y-38920000D01*
%TO.N,Net-(Connector3-Pin_1)*%
X41360000Y-36720000D02*
X41360000Y-32070000D01*
X40180000Y-46430000D02*
X38110000Y-44360000D01*
X38110000Y-39970000D02*
X41360000Y-36720000D01*
X41360000Y-36720000D02*
X34860000Y-36720000D01*
X41360000Y-32070000D02*
X42010000Y-31420000D01*
X38110000Y-44360000D02*
X38110000Y-39970000D01*
%TO.N,/LED_DIN*%
X46310000Y-52120000D02*
X43010000Y-48820000D01*
X29960000Y-38233750D02*
X24710000Y-32983750D01*
X46310000Y-29120000D02*
X44820000Y-27630000D01*
X26550000Y-27630000D02*
X25060000Y-29120000D01*
X29960000Y-48820000D02*
X29960000Y-38233750D01*
X44820000Y-27630000D02*
X26550000Y-27630000D01*
X24710000Y-29470000D02*
X25060000Y-29120000D01*
X24710000Y-32983750D02*
X24710000Y-29470000D01*
X43010000Y-48820000D02*
X29960000Y-48820000D01*
%TO.N,/LED_DOUT*%
X52810000Y-36420000D02*
X52810000Y-47220000D01*
X51510000Y-35120000D02*
X52810000Y-36420000D01*
X52810000Y-47220000D02*
X51210000Y-48820000D01*
%TD*%
%TA.AperFunction,Conductor*%
%TO.N,GND*%
G36*
X55542539Y-21490185D02*
G01*
X55588294Y-21542989D01*
X55599500Y-21594500D01*
X55599500Y-22889903D01*
X55579815Y-22956942D01*
X55527011Y-23002697D01*
X55521036Y-23004624D01*
X55521138Y-23004871D01*
X55509617Y-23009617D01*
X55509616Y-23009618D01*
X55509459Y-23009999D01*
X55509459Y-23010000D01*
X55509617Y-23010383D01*
X55509901Y-23010500D01*
X55509903Y-23010500D01*
X55521138Y-23015129D01*
X55519583Y-23018903D01*
X55561480Y-23040746D01*
X55596137Y-23101415D01*
X55599500Y-23130096D01*
X55599500Y-56315500D01*
X55579815Y-56382539D01*
X55527011Y-56428294D01*
X55475500Y-56439500D01*
X20724500Y-56439500D01*
X20657461Y-56419815D01*
X20611706Y-56367011D01*
X20600500Y-56315500D01*
X20600500Y-53117844D01*
X33871666Y-53117844D01*
X33878067Y-53177372D01*
X33878069Y-53177379D01*
X33928311Y-53312086D01*
X33928315Y-53312093D01*
X34014475Y-53427187D01*
X34014478Y-53427190D01*
X34129572Y-53513350D01*
X34129579Y-53513354D01*
X34264286Y-53563596D01*
X34264293Y-53563598D01*
X34323821Y-53569999D01*
X34323838Y-53570000D01*
X34971666Y-53570000D01*
X34971666Y-52655501D01*
X35079351Y-52704680D01*
X35185903Y-52720000D01*
X35257429Y-52720000D01*
X35363981Y-52704680D01*
X35471666Y-52655501D01*
X35471666Y-53570000D01*
X36119494Y-53570000D01*
X36119510Y-53569999D01*
X36179038Y-53563598D01*
X36179045Y-53563596D01*
X36313752Y-53513354D01*
X36313759Y-53513350D01*
X36428853Y-53427190D01*
X36428856Y-53427187D01*
X36515016Y-53312093D01*
X36515020Y-53312086D01*
X36565262Y-53177379D01*
X36565264Y-53177372D01*
X36571662Y-53117870D01*
X39697832Y-53117870D01*
X39697833Y-53117876D01*
X39704240Y-53177483D01*
X39754534Y-53312328D01*
X39754538Y-53312335D01*
X39840784Y-53427544D01*
X39840787Y-53427547D01*
X39955996Y-53513793D01*
X39956003Y-53513797D01*
X40090849Y-53564091D01*
X40090848Y-53564091D01*
X40097776Y-53564835D01*
X40150459Y-53570500D01*
X41946204Y-53570499D01*
X42005815Y-53564091D01*
X42140663Y-53513796D01*
X42255878Y-53427546D01*
X42342128Y-53312331D01*
X42392423Y-53177483D01*
X42398832Y-53117873D01*
X42398831Y-51322128D01*
X42392423Y-51262517D01*
X42378878Y-51226202D01*
X42342129Y-51127671D01*
X42342125Y-51127664D01*
X42255879Y-51012455D01*
X42255876Y-51012452D01*
X42140667Y-50926206D01*
X42140660Y-50926202D01*
X42005814Y-50875908D01*
X42005815Y-50875908D01*
X41946215Y-50869501D01*
X41946213Y-50869500D01*
X41946205Y-50869500D01*
X41946196Y-50869500D01*
X40150461Y-50869500D01*
X40150455Y-50869501D01*
X40090848Y-50875908D01*
X39956003Y-50926202D01*
X39955996Y-50926206D01*
X39840787Y-51012452D01*
X39840784Y-51012455D01*
X39754538Y-51127664D01*
X39754534Y-51127671D01*
X39704240Y-51262517D01*
X39697833Y-51322116D01*
X39697833Y-51322123D01*
X39697832Y-51322135D01*
X39697832Y-53117870D01*
X36571662Y-53117870D01*
X36571665Y-53117844D01*
X36571666Y-53117827D01*
X36571666Y-52470000D01*
X35655352Y-52470000D01*
X35681159Y-52429844D01*
X35721666Y-52291889D01*
X35721666Y-52148111D01*
X35681159Y-52010156D01*
X35655352Y-51970000D01*
X36571666Y-51970000D01*
X36571666Y-51322172D01*
X36571665Y-51322155D01*
X36565264Y-51262627D01*
X36565262Y-51262620D01*
X36515020Y-51127913D01*
X36515016Y-51127906D01*
X36428856Y-51012812D01*
X36428853Y-51012809D01*
X36313759Y-50926649D01*
X36313752Y-50926645D01*
X36179045Y-50876403D01*
X36179038Y-50876401D01*
X36119510Y-50870000D01*
X35471666Y-50870000D01*
X35471666Y-51784498D01*
X35363981Y-51735320D01*
X35257429Y-51720000D01*
X35185903Y-51720000D01*
X35079351Y-51735320D01*
X34971666Y-51784498D01*
X34971666Y-50870000D01*
X34323821Y-50870000D01*
X34264293Y-50876401D01*
X34264286Y-50876403D01*
X34129579Y-50926645D01*
X34129572Y-50926649D01*
X34014478Y-51012809D01*
X34014475Y-51012812D01*
X33928315Y-51127906D01*
X33928311Y-51127913D01*
X33878069Y-51262620D01*
X33878067Y-51262627D01*
X33871666Y-51322155D01*
X33871666Y-51970000D01*
X34787980Y-51970000D01*
X34762173Y-52010156D01*
X34721666Y-52148111D01*
X34721666Y-52291889D01*
X34762173Y-52429844D01*
X34787980Y-52470000D01*
X33871666Y-52470000D01*
X33871666Y-53117844D01*
X20600500Y-53117844D01*
X20600500Y-42939120D01*
X23359500Y-42939120D01*
X23359501Y-42939126D01*
X23365908Y-42998733D01*
X23416202Y-43133578D01*
X23416206Y-43133585D01*
X23502452Y-43248794D01*
X23502455Y-43248797D01*
X23617664Y-43335043D01*
X23617671Y-43335047D01*
X23752516Y-43385341D01*
X23798757Y-43390313D01*
X23863307Y-43417051D01*
X23903155Y-43474444D01*
X23909500Y-43513602D01*
X23909500Y-45660191D01*
X23909501Y-45660200D01*
X23918791Y-45700908D01*
X23919955Y-45707763D01*
X23924632Y-45749259D01*
X23938420Y-45788662D01*
X23940345Y-45795345D01*
X23949639Y-45836061D01*
X23967758Y-45873687D01*
X23970419Y-45880111D01*
X23977539Y-45900456D01*
X23984500Y-45941417D01*
X23984500Y-46620001D01*
X23984501Y-46620019D01*
X23995000Y-46722796D01*
X23995001Y-46722799D01*
X24050185Y-46889331D01*
X24050187Y-46889336D01*
X24080416Y-46938345D01*
X24142287Y-47038655D01*
X24142289Y-47038657D01*
X24223181Y-47119549D01*
X24256666Y-47180872D01*
X24259500Y-47207230D01*
X24259500Y-47768560D01*
X24239815Y-47835599D01*
X24187011Y-47881354D01*
X24178833Y-47884742D01*
X24067671Y-47926202D01*
X24067664Y-47926206D01*
X23952455Y-48012452D01*
X23952452Y-48012455D01*
X23866206Y-48127664D01*
X23866202Y-48127671D01*
X23815908Y-48262517D01*
X23809501Y-48322116D01*
X23809501Y-48322123D01*
X23809500Y-48322135D01*
X23809500Y-49317870D01*
X23809501Y-49317876D01*
X23815908Y-49377483D01*
X23866202Y-49512328D01*
X23866206Y-49512335D01*
X23922241Y-49587187D01*
X23952454Y-49627546D01*
X24025209Y-49682010D01*
X24067079Y-49737943D01*
X24074897Y-49781276D01*
X24074897Y-51158724D01*
X24055212Y-51225763D01*
X24025210Y-51257988D01*
X23952454Y-51312454D01*
X23952453Y-51312455D01*
X23952452Y-51312456D01*
X23866206Y-51427664D01*
X23866202Y-51427671D01*
X23815908Y-51562517D01*
X23809857Y-51618807D01*
X23809501Y-51622123D01*
X23809500Y-51622135D01*
X23809500Y-52617870D01*
X23809501Y-52617876D01*
X23815908Y-52677483D01*
X23866202Y-52812328D01*
X23866206Y-52812335D01*
X23952452Y-52927544D01*
X23952455Y-52927547D01*
X24067664Y-53013793D01*
X24067671Y-53013797D01*
X24202517Y-53064091D01*
X24202516Y-53064091D01*
X24209444Y-53064835D01*
X24262127Y-53070500D01*
X25857872Y-53070499D01*
X25917483Y-53064091D01*
X26052331Y-53013796D01*
X26167546Y-52927546D01*
X26253796Y-52812331D01*
X26304091Y-52677483D01*
X26310500Y-52617873D01*
X26310500Y-52370000D01*
X28710000Y-52370000D01*
X28710000Y-52617844D01*
X28716401Y-52677372D01*
X28716403Y-52677379D01*
X28766645Y-52812086D01*
X28766649Y-52812093D01*
X28852809Y-52927187D01*
X28852812Y-52927190D01*
X28967906Y-53013350D01*
X28967913Y-53013354D01*
X29102620Y-53063596D01*
X29102627Y-53063598D01*
X29162155Y-53069999D01*
X29162172Y-53070000D01*
X29710000Y-53070000D01*
X29710000Y-52370000D01*
X30210000Y-52370000D01*
X30210000Y-53070000D01*
X30757828Y-53070000D01*
X30757844Y-53069999D01*
X30817372Y-53063598D01*
X30817379Y-53063596D01*
X30952086Y-53013354D01*
X30952093Y-53013350D01*
X31067187Y-52927190D01*
X31067190Y-52927187D01*
X31153350Y-52812093D01*
X31153354Y-52812086D01*
X31203596Y-52677379D01*
X31203598Y-52677372D01*
X31209999Y-52617844D01*
X31210000Y-52617827D01*
X31210000Y-52370000D01*
X30210000Y-52370000D01*
X29710000Y-52370000D01*
X28710000Y-52370000D01*
X26310500Y-52370000D01*
X26310499Y-51870000D01*
X28710000Y-51870000D01*
X29710000Y-51870000D01*
X29710000Y-51170000D01*
X30210000Y-51170000D01*
X30210000Y-51870000D01*
X31210000Y-51870000D01*
X31210000Y-51622172D01*
X31209999Y-51622155D01*
X31203598Y-51562627D01*
X31203596Y-51562620D01*
X31153354Y-51427913D01*
X31153350Y-51427906D01*
X31067190Y-51312812D01*
X31067187Y-51312809D01*
X30952093Y-51226649D01*
X30952086Y-51226645D01*
X30817379Y-51176403D01*
X30817372Y-51176401D01*
X30757844Y-51170000D01*
X30210000Y-51170000D01*
X29710000Y-51170000D01*
X29162155Y-51170000D01*
X29102627Y-51176401D01*
X29102620Y-51176403D01*
X28967913Y-51226645D01*
X28967906Y-51226649D01*
X28852812Y-51312809D01*
X28852809Y-51312812D01*
X28766649Y-51427906D01*
X28766645Y-51427913D01*
X28716403Y-51562620D01*
X28716401Y-51562627D01*
X28710000Y-51622155D01*
X28710000Y-51870000D01*
X26310499Y-51870000D01*
X26310499Y-51622128D01*
X26310499Y-51622127D01*
X26310499Y-51618807D01*
X26311459Y-51618807D01*
X26314897Y-51604243D01*
X26314897Y-49323485D01*
X26313273Y-49320495D01*
X26310499Y-49294421D01*
X26310499Y-48322128D01*
X26304091Y-48262517D01*
X26302711Y-48258818D01*
X26253797Y-48127671D01*
X26253793Y-48127664D01*
X26167547Y-48012455D01*
X26167544Y-48012452D01*
X26052335Y-47926206D01*
X26052329Y-47926203D01*
X25941166Y-47884741D01*
X25885233Y-47842869D01*
X25860816Y-47777405D01*
X25860500Y-47768559D01*
X25860500Y-47207230D01*
X25880185Y-47140191D01*
X25896819Y-47119549D01*
X25913480Y-47102888D01*
X25977712Y-47038656D01*
X26033071Y-46948903D01*
X26085019Y-46902179D01*
X26138610Y-46890000D01*
X26931977Y-46890000D01*
X26999016Y-46909685D01*
X27037516Y-46948903D01*
X27092684Y-47038345D01*
X27216654Y-47162315D01*
X27365875Y-47254356D01*
X27365880Y-47254358D01*
X27532302Y-47309505D01*
X27532309Y-47309506D01*
X27635019Y-47319999D01*
X27759999Y-47319999D01*
X27760000Y-47319998D01*
X27760000Y-46170000D01*
X28260000Y-46170000D01*
X28260000Y-47319999D01*
X28384972Y-47319999D01*
X28384986Y-47319998D01*
X28487697Y-47309505D01*
X28654119Y-47254358D01*
X28654124Y-47254356D01*
X28803345Y-47162315D01*
X28927315Y-47038345D01*
X29019356Y-46889124D01*
X29019358Y-46889119D01*
X29074505Y-46722697D01*
X29074506Y-46722690D01*
X29084999Y-46619986D01*
X29085000Y-46619973D01*
X29085000Y-46170000D01*
X28260000Y-46170000D01*
X27760000Y-46170000D01*
X27760000Y-44520000D01*
X28260000Y-44520000D01*
X28260000Y-45670000D01*
X29084999Y-45670000D01*
X29084999Y-45220028D01*
X29084998Y-45220013D01*
X29074505Y-45117302D01*
X29019358Y-44950880D01*
X29019356Y-44950875D01*
X28927315Y-44801654D01*
X28803345Y-44677684D01*
X28654124Y-44585643D01*
X28654119Y-44585641D01*
X28487697Y-44530494D01*
X28487690Y-44530493D01*
X28384986Y-44520000D01*
X28260000Y-44520000D01*
X27760000Y-44520000D01*
X27635027Y-44520000D01*
X27635012Y-44520001D01*
X27532302Y-44530494D01*
X27365880Y-44585641D01*
X27365875Y-44585643D01*
X27216654Y-44677684D01*
X27092684Y-44801654D01*
X27037516Y-44891097D01*
X26985568Y-44937821D01*
X26931977Y-44950000D01*
X26138610Y-44950000D01*
X26071571Y-44930315D01*
X26033071Y-44891096D01*
X26032281Y-44889816D01*
X25977712Y-44801344D01*
X25853656Y-44677288D01*
X25760888Y-44620069D01*
X25704336Y-44585187D01*
X25704335Y-44585186D01*
X25704334Y-44585186D01*
X25628687Y-44560119D01*
X25595495Y-44549120D01*
X25538050Y-44509347D01*
X25511228Y-44444831D01*
X25510500Y-44431414D01*
X25510500Y-43513601D01*
X25530185Y-43446562D01*
X25582989Y-43400807D01*
X25621247Y-43390311D01*
X25667483Y-43385341D01*
X25802331Y-43335046D01*
X25917546Y-43248796D01*
X26003796Y-43133581D01*
X26054091Y-42998733D01*
X26060500Y-42939123D01*
X26060499Y-41143378D01*
X26054091Y-41083767D01*
X26015814Y-40981142D01*
X26003797Y-40948921D01*
X26003793Y-40948914D01*
X25917547Y-40833705D01*
X25917544Y-40833702D01*
X25802335Y-40747456D01*
X25802328Y-40747452D01*
X25667482Y-40697158D01*
X25667483Y-40697158D01*
X25607883Y-40690751D01*
X25607881Y-40690750D01*
X25607873Y-40690750D01*
X25607864Y-40690750D01*
X23812129Y-40690750D01*
X23812123Y-40690751D01*
X23752516Y-40697158D01*
X23617671Y-40747452D01*
X23617664Y-40747456D01*
X23502455Y-40833702D01*
X23502452Y-40833705D01*
X23416206Y-40948914D01*
X23416202Y-40948921D01*
X23365908Y-41083767D01*
X23364917Y-41092989D01*
X23359501Y-41143373D01*
X23359500Y-41143385D01*
X23359500Y-42939120D01*
X20600500Y-42939120D01*
X20600500Y-38410370D01*
X23359500Y-38410370D01*
X23359501Y-38410376D01*
X23365908Y-38469983D01*
X23416202Y-38604828D01*
X23416206Y-38604835D01*
X23502452Y-38720044D01*
X23502455Y-38720047D01*
X23617664Y-38806293D01*
X23617671Y-38806297D01*
X23752517Y-38856591D01*
X23752516Y-38856591D01*
X23759444Y-38857335D01*
X23812127Y-38863000D01*
X25607872Y-38862999D01*
X25667483Y-38856591D01*
X25802331Y-38806296D01*
X25917546Y-38720046D01*
X26003796Y-38604831D01*
X26054091Y-38469983D01*
X26060500Y-38410373D01*
X26060500Y-38262000D01*
X26080185Y-38194961D01*
X26132989Y-38149206D01*
X26184500Y-38138000D01*
X26192048Y-38138000D01*
X26259087Y-38157685D01*
X26279729Y-38174319D01*
X28171038Y-40065629D01*
X28204523Y-40126952D01*
X28206678Y-40140348D01*
X28210254Y-40174369D01*
X28224326Y-40308256D01*
X28224327Y-40308259D01*
X28282818Y-40488277D01*
X28282821Y-40488284D01*
X28377467Y-40652216D01*
X28448511Y-40731118D01*
X28504129Y-40792888D01*
X28657265Y-40904148D01*
X28657270Y-40904151D01*
X28830192Y-40981142D01*
X28830197Y-40981144D01*
X29015354Y-41020500D01*
X29015355Y-41020500D01*
X29210500Y-41020500D01*
X29277539Y-41040185D01*
X29323294Y-41092989D01*
X29334500Y-41144500D01*
X29334500Y-47745500D01*
X29314815Y-47812539D01*
X29262011Y-47858294D01*
X29210502Y-47869500D01*
X29162131Y-47869500D01*
X29162123Y-47869501D01*
X29102516Y-47875908D01*
X28967671Y-47926202D01*
X28967664Y-47926206D01*
X28852455Y-48012452D01*
X28852452Y-48012455D01*
X28766206Y-48127664D01*
X28766202Y-48127671D01*
X28715908Y-48262517D01*
X28709501Y-48322116D01*
X28709501Y-48322123D01*
X28709500Y-48322135D01*
X28709500Y-49317870D01*
X28709501Y-49317876D01*
X28715908Y-49377483D01*
X28766202Y-49512328D01*
X28766206Y-49512335D01*
X28852452Y-49627544D01*
X28852455Y-49627547D01*
X28967664Y-49713793D01*
X28967671Y-49713797D01*
X29102517Y-49764091D01*
X29102516Y-49764091D01*
X29109444Y-49764835D01*
X29162127Y-49770500D01*
X30757872Y-49770499D01*
X30817483Y-49764091D01*
X30952331Y-49713796D01*
X31067546Y-49627546D01*
X31153796Y-49512331D01*
X31153798Y-49512323D01*
X31155027Y-49510076D01*
X31156849Y-49508253D01*
X31159112Y-49505231D01*
X31159546Y-49505556D01*
X31204431Y-49460669D01*
X31263861Y-49445500D01*
X42699548Y-49445500D01*
X42766587Y-49465185D01*
X42787229Y-49481819D01*
X45023181Y-51717771D01*
X45056666Y-51779094D01*
X45059500Y-51805452D01*
X45059500Y-52617870D01*
X45059501Y-52617876D01*
X45065908Y-52677483D01*
X45116202Y-52812328D01*
X45116206Y-52812335D01*
X45202452Y-52927544D01*
X45202455Y-52927547D01*
X45317664Y-53013793D01*
X45317671Y-53013797D01*
X45452517Y-53064091D01*
X45452516Y-53064091D01*
X45459444Y-53064835D01*
X45512127Y-53070500D01*
X47107872Y-53070499D01*
X47167483Y-53064091D01*
X47302331Y-53013796D01*
X47417546Y-52927546D01*
X47503796Y-52812331D01*
X47554091Y-52677483D01*
X47560500Y-52617873D01*
X47560499Y-51622128D01*
X47554091Y-51562517D01*
X47553142Y-51559973D01*
X47503797Y-51427671D01*
X47503793Y-51427664D01*
X47417547Y-51312455D01*
X47417544Y-51312452D01*
X47302335Y-51226206D01*
X47302328Y-51226202D01*
X47167482Y-51175908D01*
X47167483Y-51175908D01*
X47107883Y-51169501D01*
X47107881Y-51169500D01*
X47107873Y-51169500D01*
X47107865Y-51169500D01*
X46295452Y-51169500D01*
X46228413Y-51149815D01*
X46207771Y-51133181D01*
X44864790Y-49790200D01*
X44144591Y-49070000D01*
X45060000Y-49070000D01*
X45060000Y-49317844D01*
X45066401Y-49377372D01*
X45066403Y-49377379D01*
X45116645Y-49512086D01*
X45116649Y-49512093D01*
X45202809Y-49627187D01*
X45202812Y-49627190D01*
X45317906Y-49713350D01*
X45317913Y-49713354D01*
X45452620Y-49763596D01*
X45452627Y-49763598D01*
X45512155Y-49769999D01*
X45512172Y-49770000D01*
X46060000Y-49770000D01*
X46060000Y-49070000D01*
X46560000Y-49070000D01*
X46560000Y-49770000D01*
X47107828Y-49770000D01*
X47107844Y-49769999D01*
X47167372Y-49763598D01*
X47167379Y-49763596D01*
X47302086Y-49713354D01*
X47302093Y-49713350D01*
X47417187Y-49627190D01*
X47417190Y-49627187D01*
X47503350Y-49512093D01*
X47503354Y-49512086D01*
X47553596Y-49377379D01*
X47553598Y-49377372D01*
X47559999Y-49317844D01*
X47560000Y-49317827D01*
X47560000Y-49070000D01*
X46560000Y-49070000D01*
X46060000Y-49070000D01*
X45060000Y-49070000D01*
X44144591Y-49070000D01*
X43644591Y-48570000D01*
X45060000Y-48570000D01*
X46060000Y-48570000D01*
X46060000Y-47870000D01*
X46560000Y-47870000D01*
X46560000Y-48570000D01*
X47560000Y-48570000D01*
X47560000Y-48322172D01*
X47559999Y-48322155D01*
X47553598Y-48262627D01*
X47553596Y-48262620D01*
X47503354Y-48127913D01*
X47503350Y-48127906D01*
X47417190Y-48012812D01*
X47417187Y-48012809D01*
X47302093Y-47926649D01*
X47302086Y-47926645D01*
X47167379Y-47876403D01*
X47167372Y-47876401D01*
X47107844Y-47870000D01*
X46560000Y-47870000D01*
X46060000Y-47870000D01*
X45512155Y-47870000D01*
X45452627Y-47876401D01*
X45452620Y-47876403D01*
X45317913Y-47926645D01*
X45317906Y-47926649D01*
X45202812Y-48012809D01*
X45202809Y-48012812D01*
X45116649Y-48127906D01*
X45116645Y-48127913D01*
X45066403Y-48262620D01*
X45066401Y-48262627D01*
X45060000Y-48322155D01*
X45060000Y-48570000D01*
X43644591Y-48570000D01*
X43510803Y-48436212D01*
X43500980Y-48423950D01*
X43500759Y-48424134D01*
X43495786Y-48418123D01*
X43495410Y-48417770D01*
X43445364Y-48370773D01*
X43434919Y-48360328D01*
X43424475Y-48349883D01*
X43418986Y-48345625D01*
X43414561Y-48341847D01*
X43380582Y-48309938D01*
X43380580Y-48309936D01*
X43380577Y-48309935D01*
X43363029Y-48300288D01*
X43346763Y-48289604D01*
X43330933Y-48277325D01*
X43288168Y-48258818D01*
X43282922Y-48256248D01*
X43242093Y-48233803D01*
X43242092Y-48233802D01*
X43222693Y-48228822D01*
X43204281Y-48222518D01*
X43185898Y-48214562D01*
X43185892Y-48214560D01*
X43139874Y-48207272D01*
X43134152Y-48206087D01*
X43089021Y-48194500D01*
X43089019Y-48194500D01*
X43068984Y-48194500D01*
X43049586Y-48192973D01*
X43042162Y-48191797D01*
X43029805Y-48189840D01*
X43029804Y-48189840D01*
X42983416Y-48194225D01*
X42977578Y-48194500D01*
X31263861Y-48194500D01*
X31196822Y-48174815D01*
X31159362Y-48134581D01*
X31159112Y-48134769D01*
X31157364Y-48132434D01*
X31155027Y-48129924D01*
X31153797Y-48127673D01*
X31153796Y-48127669D01*
X31153793Y-48127665D01*
X31153792Y-48127663D01*
X31067547Y-48012455D01*
X31067544Y-48012452D01*
X30952335Y-47926206D01*
X30952328Y-47926202D01*
X30817482Y-47875908D01*
X30817483Y-47875908D01*
X30757883Y-47869501D01*
X30757881Y-47869500D01*
X30757873Y-47869500D01*
X30757865Y-47869500D01*
X30709500Y-47869500D01*
X30642461Y-47849815D01*
X30596706Y-47797011D01*
X30585500Y-47745500D01*
X30585500Y-41144500D01*
X30605185Y-41077461D01*
X30657989Y-41031706D01*
X30709500Y-41020500D01*
X30754548Y-41020500D01*
X30821587Y-41040185D01*
X30842229Y-41056819D01*
X31389197Y-41603788D01*
X31399022Y-41616051D01*
X31399243Y-41615869D01*
X31404214Y-41621878D01*
X31430217Y-41646295D01*
X31454635Y-41669226D01*
X31475529Y-41690120D01*
X31481011Y-41694373D01*
X31485443Y-41698157D01*
X31519418Y-41730062D01*
X31536976Y-41739714D01*
X31553233Y-41750393D01*
X31569064Y-41762673D01*
X31588737Y-41771186D01*
X31611833Y-41781182D01*
X31617077Y-41783750D01*
X31657908Y-41806197D01*
X31670523Y-41809435D01*
X31677305Y-41811177D01*
X31695719Y-41817481D01*
X31714104Y-41825438D01*
X31760157Y-41832732D01*
X31765826Y-41833906D01*
X31810981Y-41845500D01*
X31831016Y-41845500D01*
X31850413Y-41847026D01*
X31870196Y-41850160D01*
X31916584Y-41845775D01*
X31922422Y-41845500D01*
X33414850Y-41845500D01*
X33481889Y-41865185D01*
X33527644Y-41917989D01*
X33528405Y-41919689D01*
X33535824Y-41936603D01*
X33671833Y-42144782D01*
X33671836Y-42144785D01*
X33840256Y-42327738D01*
X34036491Y-42480474D01*
X34255190Y-42598828D01*
X34490386Y-42679571D01*
X34735665Y-42720500D01*
X34984335Y-42720500D01*
X35229614Y-42679571D01*
X35464810Y-42598828D01*
X35683509Y-42480474D01*
X35879744Y-42327738D01*
X36048164Y-42144785D01*
X36184173Y-41936607D01*
X36284063Y-41708881D01*
X36345108Y-41467821D01*
X36355327Y-41344500D01*
X36365643Y-41220005D01*
X36365643Y-41219994D01*
X36345109Y-40972187D01*
X36345107Y-40972175D01*
X36284063Y-40731118D01*
X36184173Y-40503393D01*
X36048166Y-40295217D01*
X36019512Y-40264091D01*
X35879744Y-40112262D01*
X35683509Y-39959526D01*
X35683507Y-39959525D01*
X35683506Y-39959524D01*
X35464811Y-39841172D01*
X35464802Y-39841169D01*
X35229616Y-39760429D01*
X34984335Y-39719500D01*
X34735665Y-39719500D01*
X34490383Y-39760429D01*
X34255197Y-39841169D01*
X34255188Y-39841172D01*
X34036493Y-39959524D01*
X33840257Y-40112261D01*
X33671833Y-40295217D01*
X33535824Y-40503396D01*
X33528405Y-40520311D01*
X33483449Y-40573797D01*
X33416713Y-40594486D01*
X33414850Y-40594500D01*
X32200452Y-40594500D01*
X32133413Y-40574815D01*
X32112771Y-40558181D01*
X31728960Y-40174369D01*
X31695475Y-40113046D01*
X31693323Y-40099668D01*
X31675674Y-39931744D01*
X31617179Y-39751716D01*
X31522533Y-39587784D01*
X31395871Y-39447112D01*
X31395870Y-39447111D01*
X31242734Y-39335851D01*
X31242729Y-39335848D01*
X31069807Y-39258857D01*
X31069802Y-39258855D01*
X30924001Y-39227865D01*
X30884646Y-39219500D01*
X30709500Y-39219500D01*
X30642461Y-39199815D01*
X30596706Y-39147011D01*
X30585500Y-39095500D01*
X30585500Y-38316487D01*
X30587224Y-38300873D01*
X30586938Y-38300846D01*
X30587672Y-38293083D01*
X30585500Y-38223953D01*
X30585500Y-38194401D01*
X30585500Y-38194400D01*
X30584629Y-38187509D01*
X30584172Y-38181695D01*
X30582709Y-38135122D01*
X30577122Y-38115894D01*
X30573174Y-38096834D01*
X30572222Y-38089297D01*
X30570664Y-38076958D01*
X30553507Y-38033625D01*
X30551619Y-38028109D01*
X30538619Y-37983362D01*
X30528418Y-37966113D01*
X30519860Y-37948644D01*
X30512486Y-37930018D01*
X30512483Y-37930014D01*
X30512483Y-37930013D01*
X30485098Y-37892321D01*
X30481890Y-37887437D01*
X30458172Y-37847332D01*
X30458163Y-37847321D01*
X30444005Y-37833163D01*
X30431370Y-37818370D01*
X30419593Y-37802162D01*
X30383693Y-37772463D01*
X30379381Y-37768540D01*
X29330846Y-36720005D01*
X33354357Y-36720005D01*
X33374890Y-36967812D01*
X33374892Y-36967824D01*
X33435936Y-37208881D01*
X33535826Y-37436606D01*
X33671833Y-37644782D01*
X33681735Y-37655538D01*
X33840256Y-37827738D01*
X34036491Y-37980474D01*
X34255190Y-38098828D01*
X34490386Y-38179571D01*
X34735665Y-38220500D01*
X34984335Y-38220500D01*
X35229614Y-38179571D01*
X35464810Y-38098828D01*
X35683509Y-37980474D01*
X35879744Y-37827738D01*
X36048164Y-37644785D01*
X36184173Y-37436607D01*
X36184175Y-37436603D01*
X36191595Y-37419689D01*
X36236551Y-37366203D01*
X36303287Y-37345514D01*
X36305150Y-37345500D01*
X39550548Y-37345500D01*
X39617587Y-37365185D01*
X39663342Y-37417989D01*
X39673286Y-37487147D01*
X39644261Y-37550703D01*
X39638229Y-37557181D01*
X37726208Y-39469199D01*
X37713951Y-39479020D01*
X37714134Y-39479241D01*
X37708123Y-39484213D01*
X37660772Y-39534636D01*
X37639889Y-39555519D01*
X37639877Y-39555532D01*
X37635621Y-39561017D01*
X37631837Y-39565447D01*
X37599937Y-39599418D01*
X37599936Y-39599420D01*
X37590284Y-39616976D01*
X37579610Y-39633226D01*
X37567329Y-39649061D01*
X37567324Y-39649068D01*
X37548815Y-39691838D01*
X37546245Y-39697084D01*
X37523803Y-39737906D01*
X37518822Y-39757307D01*
X37512521Y-39775710D01*
X37504562Y-39794102D01*
X37504561Y-39794105D01*
X37497271Y-39840127D01*
X37496087Y-39845846D01*
X37484501Y-39890972D01*
X37484500Y-39890982D01*
X37484500Y-39911016D01*
X37482973Y-39930415D01*
X37479840Y-39950194D01*
X37479840Y-39950195D01*
X37484225Y-39996583D01*
X37484500Y-40002421D01*
X37484500Y-44277255D01*
X37482775Y-44292872D01*
X37483061Y-44292899D01*
X37482326Y-44300665D01*
X37484500Y-44369814D01*
X37484500Y-44399343D01*
X37484501Y-44399360D01*
X37485368Y-44406231D01*
X37485826Y-44412050D01*
X37487290Y-44458624D01*
X37487291Y-44458627D01*
X37492880Y-44477867D01*
X37496824Y-44496911D01*
X37499336Y-44516792D01*
X37504761Y-44530494D01*
X37516490Y-44560119D01*
X37518382Y-44565647D01*
X37531381Y-44610388D01*
X37541580Y-44627634D01*
X37550138Y-44645103D01*
X37557514Y-44663732D01*
X37584898Y-44701423D01*
X37588106Y-44706307D01*
X37611827Y-44746416D01*
X37611833Y-44746424D01*
X37625990Y-44760580D01*
X37638628Y-44775376D01*
X37650405Y-44791586D01*
X37650406Y-44791587D01*
X37686309Y-44821288D01*
X37690620Y-44825210D01*
X38854574Y-45989165D01*
X39241038Y-46375629D01*
X39274523Y-46436952D01*
X39276678Y-46450348D01*
X39283998Y-46519986D01*
X39294326Y-46618256D01*
X39294327Y-46618259D01*
X39352818Y-46798277D01*
X39352821Y-46798284D01*
X39447467Y-46962216D01*
X39537954Y-47062712D01*
X39574129Y-47102888D01*
X39727265Y-47214148D01*
X39727270Y-47214151D01*
X39900192Y-47291142D01*
X39900197Y-47291144D01*
X40085354Y-47330500D01*
X40085355Y-47330500D01*
X40274644Y-47330500D01*
X40274646Y-47330500D01*
X40459803Y-47291144D01*
X40632730Y-47214151D01*
X40785871Y-47102888D01*
X40912533Y-46962216D01*
X41007179Y-46798284D01*
X41065674Y-46618256D01*
X41085460Y-46430000D01*
X41065674Y-46241744D01*
X41009871Y-46070000D01*
X44160001Y-46070000D01*
X44160001Y-46519986D01*
X44170494Y-46622697D01*
X44225641Y-46789119D01*
X44225643Y-46789124D01*
X44317684Y-46938345D01*
X44441654Y-47062315D01*
X44590875Y-47154356D01*
X44590880Y-47154358D01*
X44757302Y-47209505D01*
X44757309Y-47209506D01*
X44860019Y-47219999D01*
X44984999Y-47219999D01*
X44985000Y-47219998D01*
X44985000Y-46070000D01*
X44160001Y-46070000D01*
X41009871Y-46070000D01*
X41007179Y-46061716D01*
X40912533Y-45897784D01*
X40785871Y-45757112D01*
X40775062Y-45749259D01*
X40662804Y-45667699D01*
X40620138Y-45612369D01*
X40616499Y-45570000D01*
X44160000Y-45570000D01*
X44985000Y-45570000D01*
X44985000Y-44420000D01*
X44860027Y-44420000D01*
X44860012Y-44420001D01*
X44757302Y-44430494D01*
X44590880Y-44485641D01*
X44590875Y-44485643D01*
X44441654Y-44577684D01*
X44317684Y-44701654D01*
X44225643Y-44850875D01*
X44225641Y-44850880D01*
X44170494Y-45017302D01*
X44170493Y-45017309D01*
X44160000Y-45120013D01*
X44160000Y-45570000D01*
X40616499Y-45570000D01*
X40614159Y-45542756D01*
X40646764Y-45480961D01*
X40707603Y-45446604D01*
X40758472Y-45445492D01*
X40838757Y-45460500D01*
X40838759Y-45460500D01*
X41061241Y-45460500D01*
X41061243Y-45460500D01*
X41279940Y-45419618D01*
X41487401Y-45339247D01*
X41676562Y-45222124D01*
X41818355Y-45092861D01*
X41881157Y-45062246D01*
X41901892Y-45060500D01*
X42090194Y-45060500D01*
X42130905Y-45051208D01*
X42137760Y-45050043D01*
X42179255Y-45045368D01*
X42218680Y-45031571D01*
X42225321Y-45029658D01*
X42266061Y-45020360D01*
X42303693Y-45002236D01*
X42310105Y-44999580D01*
X42349522Y-44985789D01*
X42384889Y-44963565D01*
X42390961Y-44960209D01*
X42428587Y-44942091D01*
X42461236Y-44916052D01*
X42466895Y-44912037D01*
X42502262Y-44889816D01*
X42629816Y-44762262D01*
X43855259Y-43536819D01*
X43916582Y-43503334D01*
X43942940Y-43500500D01*
X47208108Y-43500500D01*
X47275147Y-43520185D01*
X47291638Y-43532856D01*
X47433438Y-43662124D01*
X47433440Y-43662125D01*
X47433441Y-43662126D01*
X47622595Y-43779245D01*
X47622596Y-43779245D01*
X47622599Y-43779247D01*
X47830060Y-43859618D01*
X48048757Y-43900500D01*
X48048759Y-43900500D01*
X48271241Y-43900500D01*
X48271243Y-43900500D01*
X48489940Y-43859618D01*
X48697401Y-43779247D01*
X48886562Y-43662124D01*
X49028354Y-43532863D01*
X49050979Y-43512238D01*
X49059844Y-43500500D01*
X49185058Y-43334689D01*
X49284229Y-43135528D01*
X49345115Y-42921536D01*
X49365643Y-42700000D01*
X49345115Y-42478464D01*
X49284229Y-42264472D01*
X49224632Y-42144785D01*
X49185061Y-42065316D01*
X49185056Y-42065308D01*
X49050979Y-41887761D01*
X48886562Y-41737876D01*
X48886560Y-41737874D01*
X48697404Y-41620754D01*
X48697398Y-41620752D01*
X48489940Y-41540382D01*
X48271243Y-41499500D01*
X48048757Y-41499500D01*
X47830060Y-41540382D01*
X47698864Y-41591207D01*
X47622601Y-41620752D01*
X47622595Y-41620754D01*
X47433441Y-41737873D01*
X47433438Y-41737876D01*
X47291644Y-41867138D01*
X47228843Y-41897754D01*
X47208108Y-41899500D01*
X43650194Y-41899500D01*
X43469806Y-41899500D01*
X43463888Y-41900850D01*
X43429089Y-41908791D01*
X43422235Y-41909955D01*
X43380744Y-41914632D01*
X43341341Y-41928419D01*
X43334659Y-41930344D01*
X43293939Y-41939639D01*
X43256320Y-41957755D01*
X43249895Y-41960416D01*
X43210483Y-41974208D01*
X43210476Y-41974212D01*
X43175120Y-41996427D01*
X43169033Y-41999791D01*
X43131410Y-42017910D01*
X43098769Y-42043941D01*
X43093096Y-42047966D01*
X43057739Y-42070183D01*
X43057735Y-42070186D01*
X43025748Y-42102174D01*
X41840307Y-43287613D01*
X41778984Y-43321098D01*
X41709292Y-43316114D01*
X41681468Y-43300843D01*
X41681437Y-43300894D01*
X41680477Y-43300299D01*
X41677894Y-43298882D01*
X41676558Y-43297873D01*
X41487404Y-43180754D01*
X41487398Y-43180752D01*
X41279940Y-43100382D01*
X41061243Y-43059500D01*
X40838757Y-43059500D01*
X40620060Y-43100382D01*
X40529351Y-43135523D01*
X40412601Y-43180752D01*
X40412595Y-43180754D01*
X40223439Y-43297874D01*
X40223437Y-43297876D01*
X40059020Y-43447761D01*
X39924943Y-43625308D01*
X39924938Y-43625316D01*
X39825775Y-43824461D01*
X39825769Y-43824476D01*
X39764885Y-44038462D01*
X39764884Y-44038464D01*
X39744357Y-44259999D01*
X39744357Y-44260000D01*
X39764884Y-44481535D01*
X39764885Y-44481537D01*
X39825769Y-44695523D01*
X39825775Y-44695538D01*
X39924938Y-44894683D01*
X39924943Y-44894691D01*
X40059020Y-45072238D01*
X40223437Y-45222123D01*
X40223439Y-45222125D01*
X40349924Y-45300441D01*
X40396560Y-45352469D01*
X40407664Y-45421450D01*
X40379711Y-45485485D01*
X40321576Y-45524241D01*
X40281145Y-45528251D01*
X40281145Y-45529500D01*
X40215452Y-45529500D01*
X40148413Y-45509815D01*
X40127771Y-45493181D01*
X38771819Y-44137228D01*
X38738334Y-44075905D01*
X38735500Y-44049547D01*
X38735500Y-41220005D01*
X39854357Y-41220005D01*
X39874890Y-41467812D01*
X39874892Y-41467824D01*
X39935936Y-41708881D01*
X40035826Y-41936606D01*
X40171833Y-42144782D01*
X40171836Y-42144785D01*
X40340256Y-42327738D01*
X40536491Y-42480474D01*
X40755190Y-42598828D01*
X40990386Y-42679571D01*
X41235665Y-42720500D01*
X41484335Y-42720500D01*
X41729614Y-42679571D01*
X41964810Y-42598828D01*
X42183509Y-42480474D01*
X42379744Y-42327738D01*
X42548164Y-42144785D01*
X42684173Y-41936607D01*
X42784063Y-41708881D01*
X42845108Y-41467821D01*
X42855327Y-41344500D01*
X42865643Y-41220005D01*
X42865643Y-41219994D01*
X42845109Y-40972187D01*
X42845108Y-40972183D01*
X42845108Y-40972179D01*
X42839216Y-40948914D01*
X42791136Y-40759050D01*
X42793760Y-40689230D01*
X42823658Y-40640930D01*
X43882772Y-39581819D01*
X43944095Y-39548334D01*
X43970453Y-39545500D01*
X50035501Y-39545500D01*
X50102540Y-39565185D01*
X50148295Y-39617989D01*
X50159501Y-39669500D01*
X50159501Y-39817876D01*
X50165908Y-39877483D01*
X50216202Y-40012328D01*
X50216206Y-40012335D01*
X50302452Y-40127544D01*
X50302455Y-40127547D01*
X50417664Y-40213793D01*
X50417671Y-40213797D01*
X50552517Y-40264091D01*
X50552516Y-40264091D01*
X50559444Y-40264835D01*
X50612127Y-40270500D01*
X52060500Y-40270499D01*
X52127539Y-40290184D01*
X52173294Y-40342987D01*
X52184500Y-40394499D01*
X52184500Y-41220500D01*
X52164815Y-41287539D01*
X52112011Y-41333294D01*
X52060500Y-41344500D01*
X50612129Y-41344500D01*
X50612123Y-41344501D01*
X50552516Y-41350908D01*
X50417671Y-41401202D01*
X50417664Y-41401206D01*
X50302455Y-41487452D01*
X50302452Y-41487455D01*
X50216206Y-41602664D01*
X50216202Y-41602671D01*
X50165908Y-41737517D01*
X50159501Y-41797116D01*
X50159500Y-41797135D01*
X50159500Y-42862059D01*
X50139815Y-42929098D01*
X50123181Y-42949740D01*
X48686428Y-44386492D01*
X48625105Y-44419977D01*
X48586149Y-44422169D01*
X48560027Y-44419501D01*
X48560013Y-44419500D01*
X48560009Y-44419500D01*
X48560002Y-44419500D01*
X47809998Y-44419500D01*
X47809980Y-44419501D01*
X47707203Y-44430000D01*
X47707200Y-44430001D01*
X47540668Y-44485185D01*
X47540663Y-44485187D01*
X47391342Y-44577289D01*
X47267287Y-44701344D01*
X47211929Y-44791096D01*
X47159981Y-44837821D01*
X47106390Y-44850000D01*
X46313023Y-44850000D01*
X46245984Y-44830315D01*
X46207484Y-44791097D01*
X46152315Y-44701654D01*
X46028345Y-44577684D01*
X45879124Y-44485643D01*
X45879119Y-44485641D01*
X45712697Y-44430494D01*
X45712690Y-44430493D01*
X45609986Y-44420000D01*
X45485000Y-44420000D01*
X45485000Y-47219999D01*
X45609972Y-47219999D01*
X45609986Y-47219998D01*
X45712697Y-47209505D01*
X45879119Y-47154358D01*
X45879124Y-47154356D01*
X46028345Y-47062315D01*
X46152315Y-46938345D01*
X46207484Y-46848903D01*
X46259432Y-46802179D01*
X46313023Y-46790000D01*
X47106390Y-46790000D01*
X47173429Y-46809685D01*
X47211929Y-46848904D01*
X47249418Y-46909685D01*
X47267288Y-46938656D01*
X47391344Y-47062712D01*
X47540666Y-47154814D01*
X47707203Y-47209999D01*
X47809991Y-47220500D01*
X47865500Y-47220499D01*
X47932538Y-47240182D01*
X47978293Y-47292986D01*
X47989500Y-47344499D01*
X47989500Y-49790191D01*
X47989501Y-49790200D01*
X47998791Y-49830908D01*
X47999955Y-49837763D01*
X48004632Y-49879259D01*
X48018420Y-49918662D01*
X48020345Y-49925345D01*
X48029639Y-49966061D01*
X48047759Y-50003688D01*
X48050421Y-50010114D01*
X48064212Y-50049525D01*
X48086422Y-50084872D01*
X48089787Y-50090959D01*
X48107910Y-50128589D01*
X48133940Y-50161229D01*
X48137966Y-50166904D01*
X48160182Y-50202259D01*
X48160184Y-50202262D01*
X49923181Y-51965259D01*
X49956666Y-52026582D01*
X49959500Y-52052940D01*
X49959500Y-52617870D01*
X49959501Y-52617876D01*
X49965908Y-52677483D01*
X50016202Y-52812328D01*
X50016206Y-52812335D01*
X50102452Y-52927544D01*
X50102455Y-52927547D01*
X50217664Y-53013793D01*
X50217671Y-53013797D01*
X50352517Y-53064091D01*
X50352516Y-53064091D01*
X50359444Y-53064835D01*
X50412127Y-53070500D01*
X52007872Y-53070499D01*
X52067483Y-53064091D01*
X52202331Y-53013796D01*
X52317546Y-52927546D01*
X52403796Y-52812331D01*
X52454091Y-52677483D01*
X52460500Y-52617873D01*
X52460499Y-51622128D01*
X52454091Y-51562517D01*
X52453142Y-51559973D01*
X52403797Y-51427671D01*
X52403793Y-51427664D01*
X52317547Y-51312455D01*
X52317544Y-51312452D01*
X52202335Y-51226206D01*
X52202328Y-51226202D01*
X52067482Y-51175908D01*
X52067483Y-51175908D01*
X52008768Y-51169596D01*
X51944216Y-51142858D01*
X51904368Y-51085466D01*
X51898025Y-51046946D01*
X51897143Y-50875909D01*
X51892086Y-49894875D01*
X51911424Y-49827736D01*
X51963992Y-49781710D01*
X52004652Y-49771609D01*
X52004571Y-49770854D01*
X52067483Y-49764091D01*
X52202328Y-49713797D01*
X52202327Y-49713797D01*
X52202331Y-49713796D01*
X52317546Y-49627546D01*
X52403796Y-49512331D01*
X52454091Y-49377483D01*
X52460500Y-49317873D01*
X52460499Y-48505450D01*
X52480183Y-48438412D01*
X52496813Y-48417775D01*
X53193786Y-47720802D01*
X53206048Y-47710980D01*
X53205865Y-47710759D01*
X53211867Y-47705792D01*
X53211877Y-47705786D01*
X53259241Y-47655348D01*
X53280120Y-47634470D01*
X53284373Y-47628986D01*
X53288150Y-47624563D01*
X53320062Y-47590582D01*
X53329714Y-47573023D01*
X53340389Y-47556772D01*
X53352674Y-47540936D01*
X53371186Y-47498152D01*
X53373742Y-47492935D01*
X53396197Y-47452092D01*
X53401180Y-47432680D01*
X53407477Y-47414291D01*
X53415438Y-47395895D01*
X53422729Y-47349853D01*
X53423908Y-47344162D01*
X53435500Y-47299019D01*
X53435500Y-47278983D01*
X53437027Y-47259582D01*
X53440160Y-47239804D01*
X53435775Y-47193415D01*
X53435500Y-47187577D01*
X53435500Y-36502742D01*
X53437224Y-36487122D01*
X53436939Y-36487095D01*
X53437673Y-36479333D01*
X53435500Y-36410172D01*
X53435500Y-36380656D01*
X53435500Y-36380650D01*
X53434631Y-36373779D01*
X53434173Y-36367952D01*
X53432710Y-36321373D01*
X53427119Y-36302130D01*
X53423173Y-36283078D01*
X53420664Y-36263208D01*
X53403504Y-36219867D01*
X53401624Y-36214379D01*
X53388618Y-36169610D01*
X53378422Y-36152370D01*
X53369861Y-36134894D01*
X53362487Y-36116270D01*
X53362486Y-36116268D01*
X53335079Y-36078545D01*
X53331888Y-36073686D01*
X53324020Y-36060382D01*
X53308170Y-36033580D01*
X53308168Y-36033578D01*
X53308165Y-36033574D01*
X53294006Y-36019415D01*
X53281368Y-36004619D01*
X53269594Y-35988413D01*
X53233688Y-35958709D01*
X53229376Y-35954786D01*
X52896818Y-35622228D01*
X52863333Y-35560905D01*
X52860499Y-35534547D01*
X52860499Y-34222129D01*
X52860498Y-34222123D01*
X52857184Y-34191296D01*
X52854091Y-34162517D01*
X52821852Y-34076081D01*
X52803797Y-34027671D01*
X52803793Y-34027664D01*
X52717547Y-33912455D01*
X52717544Y-33912452D01*
X52602335Y-33826206D01*
X52602328Y-33826202D01*
X52467482Y-33775908D01*
X52467483Y-33775908D01*
X52407883Y-33769501D01*
X52407881Y-33769500D01*
X52407873Y-33769500D01*
X52407865Y-33769500D01*
X50891937Y-33769500D01*
X50824898Y-33749815D01*
X50779143Y-33697011D01*
X50769199Y-33627853D01*
X50798224Y-33564297D01*
X50804229Y-33557846D01*
X50905260Y-33456815D01*
X50966582Y-33423333D01*
X50992939Y-33420499D01*
X51585002Y-33420499D01*
X51585008Y-33420499D01*
X51687797Y-33409999D01*
X51854334Y-33354814D01*
X52003656Y-33262712D01*
X52127712Y-33138656D01*
X52219814Y-32989334D01*
X52274999Y-32822797D01*
X52285500Y-32720009D01*
X52285499Y-31319992D01*
X52274999Y-31217203D01*
X52219814Y-31050666D01*
X52127712Y-30901344D01*
X52046819Y-30820451D01*
X52013334Y-30759128D01*
X52010500Y-30732770D01*
X52010500Y-30171439D01*
X52030185Y-30104400D01*
X52082989Y-30058645D01*
X52091168Y-30055257D01*
X52202326Y-30013798D01*
X52202326Y-30013797D01*
X52202331Y-30013796D01*
X52317546Y-29927546D01*
X52403796Y-29812331D01*
X52454091Y-29677483D01*
X52460500Y-29617873D01*
X52460499Y-28622128D01*
X52454091Y-28562517D01*
X52439240Y-28522700D01*
X52403797Y-28427671D01*
X52403793Y-28427664D01*
X52317547Y-28312455D01*
X52317544Y-28312452D01*
X52202335Y-28226206D01*
X52202328Y-28226202D01*
X52067482Y-28175908D01*
X52067483Y-28175908D01*
X52007883Y-28169501D01*
X52007881Y-28169500D01*
X52007873Y-28169500D01*
X52007864Y-28169500D01*
X50412129Y-28169500D01*
X50412123Y-28169501D01*
X50352516Y-28175908D01*
X50217671Y-28226202D01*
X50217664Y-28226206D01*
X50102455Y-28312452D01*
X50102452Y-28312455D01*
X50016206Y-28427664D01*
X50016202Y-28427671D01*
X49965908Y-28562517D01*
X49959501Y-28622116D01*
X49959501Y-28622123D01*
X49959500Y-28622135D01*
X49959500Y-29617870D01*
X49959501Y-29617876D01*
X49965908Y-29677483D01*
X50016202Y-29812328D01*
X50016206Y-29812335D01*
X50102452Y-29927544D01*
X50102455Y-29927547D01*
X50217664Y-30013793D01*
X50217673Y-30013798D01*
X50328832Y-30055257D01*
X50384766Y-30097127D01*
X50409184Y-30162592D01*
X50409500Y-30171439D01*
X50409500Y-30732770D01*
X50389815Y-30799809D01*
X50373181Y-30820451D01*
X50292288Y-30901343D01*
X50292287Y-30901344D01*
X50236929Y-30991096D01*
X50184981Y-31037821D01*
X50131390Y-31050000D01*
X49338023Y-31050000D01*
X49270984Y-31030315D01*
X49232484Y-30991097D01*
X49177315Y-30901654D01*
X49053345Y-30777684D01*
X48904124Y-30685643D01*
X48904119Y-30685641D01*
X48737697Y-30630494D01*
X48737690Y-30630493D01*
X48634986Y-30620000D01*
X48510000Y-30620000D01*
X48510000Y-33423092D01*
X48539764Y-33477601D01*
X48534780Y-33547293D01*
X48506279Y-33591640D01*
X46114739Y-35983181D01*
X46053416Y-36016666D01*
X46027058Y-36019500D01*
X45898755Y-36019500D01*
X45680058Y-36060382D01*
X45548862Y-36111207D01*
X45472599Y-36140752D01*
X45472593Y-36140754D01*
X45283437Y-36257874D01*
X45283435Y-36257876D01*
X45119018Y-36407761D01*
X44984941Y-36585308D01*
X44984936Y-36585316D01*
X44885773Y-36784461D01*
X44885767Y-36784476D01*
X44824883Y-36998462D01*
X44824882Y-36998464D01*
X44804355Y-37219999D01*
X44804355Y-37220000D01*
X44824882Y-37441535D01*
X44824883Y-37441537D01*
X44885767Y-37655523D01*
X44885773Y-37655538D01*
X44984936Y-37854683D01*
X44984941Y-37854691D01*
X45119018Y-38032238D01*
X45170164Y-38078863D01*
X45206446Y-38138574D01*
X45204685Y-38208421D01*
X45165442Y-38266229D01*
X45101175Y-38293644D01*
X45086626Y-38294500D01*
X43742737Y-38294500D01*
X43727120Y-38292776D01*
X43727093Y-38293062D01*
X43719331Y-38292327D01*
X43650203Y-38294500D01*
X43620650Y-38294500D01*
X43619929Y-38294590D01*
X43613757Y-38295369D01*
X43607945Y-38295826D01*
X43561373Y-38297290D01*
X43561372Y-38297290D01*
X43542129Y-38302881D01*
X43523079Y-38306825D01*
X43503211Y-38309334D01*
X43503209Y-38309335D01*
X43459884Y-38326488D01*
X43454357Y-38328380D01*
X43409610Y-38341381D01*
X43409609Y-38341382D01*
X43392367Y-38351579D01*
X43374899Y-38360137D01*
X43356269Y-38367513D01*
X43356267Y-38367514D01*
X43318576Y-38394898D01*
X43313694Y-38398105D01*
X43273579Y-38421830D01*
X43259408Y-38436000D01*
X43244623Y-38448628D01*
X43228412Y-38460407D01*
X43198709Y-38496310D01*
X43194777Y-38500631D01*
X41937228Y-39758179D01*
X41875905Y-39791664D01*
X41809284Y-39787779D01*
X41729616Y-39760429D01*
X41484335Y-39719500D01*
X41235665Y-39719500D01*
X40990383Y-39760429D01*
X40755197Y-39841169D01*
X40755188Y-39841172D01*
X40536493Y-39959524D01*
X40340257Y-40112261D01*
X40171833Y-40295217D01*
X40035826Y-40503393D01*
X39935936Y-40731118D01*
X39874892Y-40972175D01*
X39874890Y-40972187D01*
X39854357Y-41219994D01*
X39854357Y-41220005D01*
X38735500Y-41220005D01*
X38735500Y-40280452D01*
X38755185Y-40213413D01*
X38771819Y-40192771D01*
X39764775Y-39199815D01*
X40782772Y-38181817D01*
X40844093Y-38148334D01*
X40910712Y-38152218D01*
X40962229Y-38169904D01*
X40990385Y-38179571D01*
X41235665Y-38220500D01*
X41484335Y-38220500D01*
X41729614Y-38179571D01*
X41964810Y-38098828D01*
X42183509Y-37980474D01*
X42379744Y-37827738D01*
X42548164Y-37644785D01*
X42684173Y-37436607D01*
X42784063Y-37208881D01*
X42845108Y-36967821D01*
X42845109Y-36967812D01*
X42865643Y-36720005D01*
X42865643Y-36719994D01*
X42845109Y-36472187D01*
X42845107Y-36472175D01*
X42784063Y-36231118D01*
X42684173Y-36003393D01*
X42548166Y-35795217D01*
X42526557Y-35771744D01*
X42379744Y-35612262D01*
X42183509Y-35459526D01*
X42183508Y-35459525D01*
X42183505Y-35459523D01*
X42183503Y-35459522D01*
X42050481Y-35387533D01*
X42000891Y-35338313D01*
X41985500Y-35278479D01*
X41985500Y-32444500D01*
X42005185Y-32377461D01*
X42057989Y-32331706D01*
X42098361Y-32322923D01*
X42098178Y-32321180D01*
X42104644Y-32320500D01*
X42104646Y-32320500D01*
X42289803Y-32281144D01*
X42314833Y-32270000D01*
X47185001Y-32270000D01*
X47185001Y-32719986D01*
X47195494Y-32822697D01*
X47250641Y-32989119D01*
X47250643Y-32989124D01*
X47342684Y-33138345D01*
X47466654Y-33262315D01*
X47615875Y-33354356D01*
X47615880Y-33354358D01*
X47782302Y-33409505D01*
X47782309Y-33409506D01*
X47885019Y-33419999D01*
X48009999Y-33419999D01*
X48010000Y-33419998D01*
X48010000Y-32270000D01*
X47185001Y-32270000D01*
X42314833Y-32270000D01*
X42462730Y-32204151D01*
X42615871Y-32092888D01*
X42742533Y-31952216D01*
X42837179Y-31788284D01*
X42843120Y-31770000D01*
X47185000Y-31770000D01*
X48010000Y-31770000D01*
X48010000Y-30620000D01*
X47885027Y-30620000D01*
X47885012Y-30620001D01*
X47782302Y-30630494D01*
X47615880Y-30685641D01*
X47615875Y-30685643D01*
X47466654Y-30777684D01*
X47342684Y-30901654D01*
X47250643Y-31050875D01*
X47250641Y-31050880D01*
X47195494Y-31217302D01*
X47195493Y-31217309D01*
X47185000Y-31320013D01*
X47185000Y-31770000D01*
X42843120Y-31770000D01*
X42895674Y-31608256D01*
X42915460Y-31420000D01*
X42895674Y-31231744D01*
X42837179Y-31051716D01*
X42742533Y-30887784D01*
X42615871Y-30747112D01*
X42596131Y-30732770D01*
X42462734Y-30635851D01*
X42462729Y-30635848D01*
X42289807Y-30558857D01*
X42289802Y-30558855D01*
X42144001Y-30527865D01*
X42104646Y-30519500D01*
X41915354Y-30519500D01*
X41882897Y-30526398D01*
X41730197Y-30558855D01*
X41730192Y-30558857D01*
X41557270Y-30635848D01*
X41557265Y-30635851D01*
X41404129Y-30747111D01*
X41277466Y-30887785D01*
X41182821Y-31051715D01*
X41182818Y-31051722D01*
X41129016Y-31217309D01*
X41124326Y-31231744D01*
X41115049Y-31320013D01*
X41106679Y-31399649D01*
X41080094Y-31464263D01*
X41071039Y-31474368D01*
X40976208Y-31569199D01*
X40963951Y-31579020D01*
X40964134Y-31579241D01*
X40958123Y-31584213D01*
X40910772Y-31634636D01*
X40889889Y-31655519D01*
X40889877Y-31655532D01*
X40885621Y-31661017D01*
X40881837Y-31665447D01*
X40849937Y-31699418D01*
X40849936Y-31699420D01*
X40840284Y-31716976D01*
X40829610Y-31733226D01*
X40817329Y-31749061D01*
X40817324Y-31749068D01*
X40798815Y-31791838D01*
X40796245Y-31797084D01*
X40773803Y-31837906D01*
X40768822Y-31857307D01*
X40762521Y-31875710D01*
X40754562Y-31894102D01*
X40754561Y-31894105D01*
X40747271Y-31940127D01*
X40746087Y-31945846D01*
X40734501Y-31990972D01*
X40734500Y-31990982D01*
X40734500Y-32011016D01*
X40732973Y-32030415D01*
X40729840Y-32050194D01*
X40729840Y-32050195D01*
X40734225Y-32096583D01*
X40734500Y-32102421D01*
X40734500Y-35278479D01*
X40714815Y-35345518D01*
X40669519Y-35387533D01*
X40536496Y-35459522D01*
X40536494Y-35459523D01*
X40340257Y-35612261D01*
X40171833Y-35795217D01*
X40035824Y-36003396D01*
X40028405Y-36020311D01*
X39983449Y-36073797D01*
X39916713Y-36094486D01*
X39914850Y-36094500D01*
X36305150Y-36094500D01*
X36238111Y-36074815D01*
X36192356Y-36022011D01*
X36191595Y-36020311D01*
X36184175Y-36003396D01*
X36048166Y-35795217D01*
X36026557Y-35771744D01*
X35879744Y-35612262D01*
X35683509Y-35459526D01*
X35683507Y-35459525D01*
X35683506Y-35459524D01*
X35464811Y-35341172D01*
X35464802Y-35341169D01*
X35229616Y-35260429D01*
X34984335Y-35219500D01*
X34735665Y-35219500D01*
X34490383Y-35260429D01*
X34255197Y-35341169D01*
X34255188Y-35341172D01*
X34036493Y-35459524D01*
X33840257Y-35612261D01*
X33671833Y-35795217D01*
X33535826Y-36003393D01*
X33435936Y-36231118D01*
X33374892Y-36472175D01*
X33374890Y-36472187D01*
X33354357Y-36719994D01*
X33354357Y-36720005D01*
X29330846Y-36720005D01*
X26096818Y-33485977D01*
X26063333Y-33424654D01*
X26060499Y-33398296D01*
X26060499Y-32085879D01*
X26060498Y-32085873D01*
X26060497Y-32085866D01*
X26054091Y-32026267D01*
X26040930Y-31990981D01*
X26003797Y-31891421D01*
X26003793Y-31891414D01*
X25917547Y-31776205D01*
X25917544Y-31776202D01*
X25802335Y-31689956D01*
X25802328Y-31689952D01*
X25667482Y-31639658D01*
X25667483Y-31639658D01*
X25607883Y-31633251D01*
X25607881Y-31633250D01*
X25607873Y-31633250D01*
X25607865Y-31633250D01*
X25459500Y-31633250D01*
X25392461Y-31613565D01*
X25346706Y-31560761D01*
X25335500Y-31509250D01*
X25335500Y-30194499D01*
X25355185Y-30127460D01*
X25407989Y-30081705D01*
X25459500Y-30070499D01*
X25857871Y-30070499D01*
X25857872Y-30070499D01*
X25917483Y-30064091D01*
X26052331Y-30013796D01*
X26153828Y-29937814D01*
X26219292Y-29913398D01*
X26228586Y-29913083D01*
X28804826Y-29922451D01*
X28871793Y-29942379D01*
X28878686Y-29947183D01*
X28967669Y-30013796D01*
X28967673Y-30013798D01*
X29078832Y-30055257D01*
X29134766Y-30097127D01*
X29159184Y-30162592D01*
X29159500Y-30171439D01*
X29159500Y-30237060D01*
X29139815Y-30304099D01*
X29123181Y-30324741D01*
X28804741Y-30643181D01*
X28743418Y-30676666D01*
X28717060Y-30679500D01*
X28588757Y-30679500D01*
X28370060Y-30720382D01*
X28238864Y-30771207D01*
X28162601Y-30800752D01*
X28162595Y-30800754D01*
X27973439Y-30917874D01*
X27973437Y-30917876D01*
X27809020Y-31067761D01*
X27674943Y-31245308D01*
X27674938Y-31245316D01*
X27575775Y-31444461D01*
X27575769Y-31444476D01*
X27514885Y-31658462D01*
X27514884Y-31658464D01*
X27494357Y-31879999D01*
X27494357Y-31880000D01*
X27514884Y-32101535D01*
X27514885Y-32101537D01*
X27575769Y-32315523D01*
X27575775Y-32315538D01*
X27674938Y-32514683D01*
X27674943Y-32514691D01*
X27809020Y-32692238D01*
X27973437Y-32842123D01*
X27973439Y-32842125D01*
X28162595Y-32959245D01*
X28162596Y-32959245D01*
X28162599Y-32959247D01*
X28370060Y-33039618D01*
X28588757Y-33080500D01*
X28588759Y-33080500D01*
X28811241Y-33080500D01*
X28811243Y-33080500D01*
X29029940Y-33039618D01*
X29237401Y-32959247D01*
X29426562Y-32842124D01*
X29590981Y-32692236D01*
X29725058Y-32514689D01*
X29824229Y-32315528D01*
X29885115Y-32101536D01*
X29905643Y-31880000D01*
X29904775Y-31870633D01*
X29918190Y-31802064D01*
X29940562Y-31771514D01*
X30557826Y-31154252D01*
X30589816Y-31122262D01*
X30612037Y-31086895D01*
X30616052Y-31081236D01*
X30642091Y-31048587D01*
X30660209Y-31010961D01*
X30663565Y-31004889D01*
X30685789Y-30969522D01*
X30699580Y-30930105D01*
X30702236Y-30923693D01*
X30720360Y-30886061D01*
X30729658Y-30845321D01*
X30731571Y-30838680D01*
X30745368Y-30799255D01*
X30750043Y-30757760D01*
X30751208Y-30750905D01*
X30755347Y-30732770D01*
X30760500Y-30710194D01*
X30760500Y-30529806D01*
X30760500Y-30171439D01*
X30780185Y-30104400D01*
X30832989Y-30058645D01*
X30841168Y-30055257D01*
X30952326Y-30013798D01*
X30952326Y-30013797D01*
X30952331Y-30013796D01*
X31010819Y-29970011D01*
X31043920Y-29945233D01*
X31109385Y-29920816D01*
X31118231Y-29920500D01*
X31722770Y-29920500D01*
X31789809Y-29940185D01*
X31810451Y-29956819D01*
X31891344Y-30037712D01*
X32040666Y-30129814D01*
X32207203Y-30184999D01*
X32309991Y-30195500D01*
X33710008Y-30195499D01*
X33719798Y-30194499D01*
X33727895Y-30193671D01*
X33812797Y-30184999D01*
X33979334Y-30129814D01*
X34128656Y-30037712D01*
X34252712Y-29913656D01*
X34344814Y-29764334D01*
X34399999Y-29597797D01*
X34410500Y-29495009D01*
X34410499Y-28744992D01*
X34407718Y-28717771D01*
X34399999Y-28642203D01*
X34399998Y-28642200D01*
X34376094Y-28570062D01*
X34344814Y-28475666D01*
X34325649Y-28444595D01*
X34307210Y-28377204D01*
X34328133Y-28310541D01*
X34381775Y-28265771D01*
X34431189Y-28255500D01*
X44509548Y-28255500D01*
X44576587Y-28275185D01*
X44597229Y-28291819D01*
X45023181Y-28717771D01*
X45056666Y-28779094D01*
X45059500Y-28805452D01*
X45059500Y-29617870D01*
X45059501Y-29617876D01*
X45065908Y-29677483D01*
X45116202Y-29812328D01*
X45116206Y-29812335D01*
X45202452Y-29927544D01*
X45202455Y-29927547D01*
X45317664Y-30013793D01*
X45317671Y-30013797D01*
X45452517Y-30064091D01*
X45452516Y-30064091D01*
X45459444Y-30064835D01*
X45512127Y-30070500D01*
X47107872Y-30070499D01*
X47167483Y-30064091D01*
X47302331Y-30013796D01*
X47417546Y-29927546D01*
X47503796Y-29812331D01*
X47554091Y-29677483D01*
X47560500Y-29617873D01*
X47560499Y-28622128D01*
X47554091Y-28562517D01*
X47539240Y-28522700D01*
X47503797Y-28427671D01*
X47503793Y-28427664D01*
X47417547Y-28312455D01*
X47417544Y-28312452D01*
X47302335Y-28226206D01*
X47302328Y-28226202D01*
X47167482Y-28175908D01*
X47167483Y-28175908D01*
X47107883Y-28169501D01*
X47107881Y-28169500D01*
X47107873Y-28169500D01*
X47107865Y-28169500D01*
X46295453Y-28169500D01*
X46228414Y-28149815D01*
X46207772Y-28133181D01*
X45320803Y-27246212D01*
X45310980Y-27233950D01*
X45310759Y-27234134D01*
X45305786Y-27228123D01*
X45287159Y-27210631D01*
X45255364Y-27180773D01*
X45244919Y-27170328D01*
X45234475Y-27159883D01*
X45228986Y-27155625D01*
X45224561Y-27151847D01*
X45190582Y-27119938D01*
X45190580Y-27119936D01*
X45190577Y-27119935D01*
X45173029Y-27110288D01*
X45156763Y-27099604D01*
X45140933Y-27087325D01*
X45098168Y-27068818D01*
X45092922Y-27066248D01*
X45052093Y-27043803D01*
X45052092Y-27043802D01*
X45032693Y-27038822D01*
X45014281Y-27032518D01*
X44995898Y-27024562D01*
X44995892Y-27024560D01*
X44949874Y-27017272D01*
X44944152Y-27016087D01*
X44899021Y-27004500D01*
X44899019Y-27004500D01*
X44878984Y-27004500D01*
X44859586Y-27002973D01*
X44852162Y-27001797D01*
X44839805Y-26999840D01*
X44839804Y-26999840D01*
X44793416Y-27004225D01*
X44787578Y-27004500D01*
X43359466Y-27004500D01*
X43292427Y-26984815D01*
X43246672Y-26932011D01*
X43236728Y-26862853D01*
X43260199Y-26806189D01*
X43330462Y-26712331D01*
X43380757Y-26577483D01*
X43387166Y-26517873D01*
X43387166Y-26070000D01*
X45060000Y-26070000D01*
X45060000Y-26317844D01*
X45066401Y-26377372D01*
X45066403Y-26377379D01*
X45116645Y-26512086D01*
X45116649Y-26512093D01*
X45202809Y-26627187D01*
X45202812Y-26627190D01*
X45317906Y-26713350D01*
X45317913Y-26713354D01*
X45452620Y-26763596D01*
X45452627Y-26763598D01*
X45512155Y-26769999D01*
X45512172Y-26770000D01*
X46060000Y-26770000D01*
X46060000Y-26070000D01*
X46560000Y-26070000D01*
X46560000Y-26770000D01*
X47107828Y-26770000D01*
X47107844Y-26769999D01*
X47167372Y-26763598D01*
X47167379Y-26763596D01*
X47302086Y-26713354D01*
X47302093Y-26713350D01*
X47417187Y-26627190D01*
X47417190Y-26627187D01*
X47503350Y-26512093D01*
X47503354Y-26512086D01*
X47553596Y-26377379D01*
X47553598Y-26377372D01*
X47559996Y-26317870D01*
X49959500Y-26317870D01*
X49959501Y-26317876D01*
X49965908Y-26377483D01*
X50016202Y-26512328D01*
X50016206Y-26512335D01*
X50102452Y-26627544D01*
X50102455Y-26627547D01*
X50217664Y-26713793D01*
X50217671Y-26713797D01*
X50352517Y-26764091D01*
X50352516Y-26764091D01*
X50354628Y-26764318D01*
X50412127Y-26770500D01*
X52007872Y-26770499D01*
X52067483Y-26764091D01*
X52202331Y-26713796D01*
X52317546Y-26627546D01*
X52403796Y-26512331D01*
X52454091Y-26377483D01*
X52460500Y-26317873D01*
X52460499Y-25322128D01*
X52454091Y-25262517D01*
X52416094Y-25160643D01*
X52403797Y-25127671D01*
X52403793Y-25127664D01*
X52317547Y-25012455D01*
X52317544Y-25012452D01*
X52202335Y-24926206D01*
X52202328Y-24926202D01*
X52067482Y-24875908D01*
X52067483Y-24875908D01*
X52007883Y-24869501D01*
X52007881Y-24869500D01*
X52007873Y-24869500D01*
X52007864Y-24869500D01*
X50412129Y-24869500D01*
X50412123Y-24869501D01*
X50352516Y-24875908D01*
X50217671Y-24926202D01*
X50217664Y-24926206D01*
X50102455Y-25012452D01*
X50102452Y-25012455D01*
X50016206Y-25127664D01*
X50016202Y-25127671D01*
X49965908Y-25262517D01*
X49959501Y-25322116D01*
X49959501Y-25322123D01*
X49959500Y-25322135D01*
X49959500Y-26317870D01*
X47559996Y-26317870D01*
X47559999Y-26317844D01*
X47560000Y-26317827D01*
X47560000Y-26070000D01*
X46560000Y-26070000D01*
X46060000Y-26070000D01*
X45060000Y-26070000D01*
X43387166Y-26070000D01*
X43387165Y-25570000D01*
X45060000Y-25570000D01*
X46060000Y-25570000D01*
X46060000Y-24870000D01*
X46560000Y-24870000D01*
X46560000Y-25570000D01*
X47560000Y-25570000D01*
X47560000Y-25322172D01*
X47559999Y-25322155D01*
X47553598Y-25262627D01*
X47553596Y-25262620D01*
X47503354Y-25127913D01*
X47503350Y-25127906D01*
X47417190Y-25012812D01*
X47417187Y-25012809D01*
X47302093Y-24926649D01*
X47302086Y-24926645D01*
X47167379Y-24876403D01*
X47167372Y-24876401D01*
X47107844Y-24870000D01*
X46560000Y-24870000D01*
X46060000Y-24870000D01*
X45512155Y-24870000D01*
X45452627Y-24876401D01*
X45452620Y-24876403D01*
X45317913Y-24926645D01*
X45317906Y-24926649D01*
X45202812Y-25012809D01*
X45202809Y-25012812D01*
X45116649Y-25127906D01*
X45116645Y-25127913D01*
X45066403Y-25262620D01*
X45066401Y-25262627D01*
X45060000Y-25322155D01*
X45060000Y-25570000D01*
X43387165Y-25570000D01*
X43387165Y-24722128D01*
X43380757Y-24662517D01*
X43330550Y-24527906D01*
X43330463Y-24527671D01*
X43330459Y-24527664D01*
X43244213Y-24412455D01*
X43244210Y-24412452D01*
X43129001Y-24326206D01*
X43128994Y-24326202D01*
X42994148Y-24275908D01*
X42994149Y-24275908D01*
X42934549Y-24269501D01*
X42934547Y-24269500D01*
X42934539Y-24269500D01*
X42934530Y-24269500D01*
X41138795Y-24269500D01*
X41138789Y-24269501D01*
X41079182Y-24275908D01*
X40944337Y-24326202D01*
X40944330Y-24326206D01*
X40829121Y-24412452D01*
X40829118Y-24412455D01*
X40742872Y-24527664D01*
X40742868Y-24527671D01*
X40692574Y-24662517D01*
X40686167Y-24722116D01*
X40686167Y-24722123D01*
X40686166Y-24722135D01*
X40686166Y-26517870D01*
X40686167Y-26517876D01*
X40692574Y-26577483D01*
X40742868Y-26712328D01*
X40742870Y-26712331D01*
X40813132Y-26806189D01*
X40837550Y-26871653D01*
X40822699Y-26939926D01*
X40773294Y-26989332D01*
X40713866Y-27004500D01*
X38520509Y-27004500D01*
X38453470Y-26984815D01*
X38407715Y-26932011D01*
X38397771Y-26862853D01*
X38421243Y-26806189D01*
X38491683Y-26712093D01*
X38491687Y-26712086D01*
X38541929Y-26577379D01*
X38541931Y-26577372D01*
X38548332Y-26517844D01*
X38548333Y-26517827D01*
X38548333Y-25870000D01*
X37632019Y-25870000D01*
X37657826Y-25829844D01*
X37698333Y-25691889D01*
X37698333Y-25548111D01*
X37657826Y-25410156D01*
X37632019Y-25370000D01*
X38548333Y-25370000D01*
X38548333Y-24722172D01*
X38548332Y-24722155D01*
X38541931Y-24662627D01*
X38541929Y-24662620D01*
X38491687Y-24527913D01*
X38491683Y-24527906D01*
X38405523Y-24412812D01*
X38405520Y-24412809D01*
X38290426Y-24326649D01*
X38290419Y-24326645D01*
X38155712Y-24276403D01*
X38155705Y-24276401D01*
X38096177Y-24270000D01*
X37448333Y-24270000D01*
X37448333Y-25184498D01*
X37340648Y-25135320D01*
X37234096Y-25120000D01*
X37162570Y-25120000D01*
X37056018Y-25135320D01*
X36948333Y-25184498D01*
X36948333Y-24270000D01*
X36300488Y-24270000D01*
X36240960Y-24276401D01*
X36240953Y-24276403D01*
X36106246Y-24326645D01*
X36106239Y-24326649D01*
X35991145Y-24412809D01*
X35991142Y-24412812D01*
X35904982Y-24527906D01*
X35904978Y-24527913D01*
X35854736Y-24662620D01*
X35854734Y-24662627D01*
X35848333Y-24722155D01*
X35848333Y-25370000D01*
X36764647Y-25370000D01*
X36738840Y-25410156D01*
X36698333Y-25548111D01*
X36698333Y-25691889D01*
X36738840Y-25829844D01*
X36764647Y-25870000D01*
X35848333Y-25870000D01*
X35848333Y-26517844D01*
X35854734Y-26577372D01*
X35854736Y-26577379D01*
X35904978Y-26712086D01*
X35904982Y-26712093D01*
X35975423Y-26806189D01*
X35999841Y-26871653D01*
X35984990Y-26939926D01*
X35935585Y-26989332D01*
X35876157Y-27004500D01*
X34449106Y-27004500D01*
X34382067Y-26984815D01*
X34336312Y-26932011D01*
X34326368Y-26862853D01*
X34341607Y-26820811D01*
X34341304Y-26820670D01*
X34342900Y-26817246D01*
X34343570Y-26815399D01*
X34344355Y-26814125D01*
X34344358Y-26814119D01*
X34399505Y-26647697D01*
X34399506Y-26647690D01*
X34409999Y-26544986D01*
X34410000Y-26544973D01*
X34410000Y-26420000D01*
X31610001Y-26420000D01*
X31610001Y-26544986D01*
X31620494Y-26647697D01*
X31675641Y-26814119D01*
X31675644Y-26814125D01*
X31676430Y-26815399D01*
X31676702Y-26816394D01*
X31678696Y-26820670D01*
X31677965Y-26821010D01*
X31694873Y-26882791D01*
X31673953Y-26949455D01*
X31620313Y-26994227D01*
X31570894Y-27004500D01*
X30860208Y-27004500D01*
X30793169Y-26984815D01*
X30747414Y-26932011D01*
X30737470Y-26862853D01*
X30766495Y-26799297D01*
X30816875Y-26764318D01*
X30952328Y-26713797D01*
X30952327Y-26713797D01*
X30952331Y-26713796D01*
X31067546Y-26627546D01*
X31153796Y-26512331D01*
X31204091Y-26377483D01*
X31210500Y-26317873D01*
X31210500Y-25920000D01*
X31610000Y-25920000D01*
X32760000Y-25920000D01*
X32760000Y-25095000D01*
X33260000Y-25095000D01*
X33260000Y-25920000D01*
X34409999Y-25920000D01*
X34409999Y-25795028D01*
X34409998Y-25795013D01*
X34399505Y-25692302D01*
X34344358Y-25525880D01*
X34344356Y-25525875D01*
X34252315Y-25376654D01*
X34128345Y-25252684D01*
X33979124Y-25160643D01*
X33979119Y-25160641D01*
X33812697Y-25105494D01*
X33812690Y-25105493D01*
X33709986Y-25095000D01*
X33260000Y-25095000D01*
X32760000Y-25095000D01*
X32310028Y-25095000D01*
X32310012Y-25095001D01*
X32207302Y-25105494D01*
X32040880Y-25160641D01*
X32040875Y-25160643D01*
X31891654Y-25252684D01*
X31767684Y-25376654D01*
X31675643Y-25525875D01*
X31675641Y-25525880D01*
X31620494Y-25692302D01*
X31620493Y-25692309D01*
X31610000Y-25795013D01*
X31610000Y-25920000D01*
X31210500Y-25920000D01*
X31210499Y-25322128D01*
X31204091Y-25262517D01*
X31166094Y-25160643D01*
X31153797Y-25127671D01*
X31153793Y-25127664D01*
X31067547Y-25012455D01*
X31067544Y-25012452D01*
X30952335Y-24926206D01*
X30952328Y-24926202D01*
X30817482Y-24875908D01*
X30817483Y-24875908D01*
X30757883Y-24869501D01*
X30757881Y-24869500D01*
X30757873Y-24869500D01*
X30757864Y-24869500D01*
X29162129Y-24869500D01*
X29162123Y-24869501D01*
X29102516Y-24875908D01*
X28967671Y-24926202D01*
X28967664Y-24926206D01*
X28852455Y-25012452D01*
X28852452Y-25012455D01*
X28766206Y-25127664D01*
X28766202Y-25127671D01*
X28715908Y-25262517D01*
X28709501Y-25322116D01*
X28709501Y-25322123D01*
X28709500Y-25322135D01*
X28709500Y-26317870D01*
X28709501Y-26317876D01*
X28715908Y-26377483D01*
X28766202Y-26512328D01*
X28766206Y-26512335D01*
X28852452Y-26627544D01*
X28852455Y-26627547D01*
X28967664Y-26713793D01*
X28967671Y-26713797D01*
X29103125Y-26764318D01*
X29159059Y-26806189D01*
X29183476Y-26871653D01*
X29168625Y-26939926D01*
X29119220Y-26989332D01*
X29059792Y-27004500D01*
X26632737Y-27004500D01*
X26617120Y-27002776D01*
X26617093Y-27003062D01*
X26609331Y-27002327D01*
X26540203Y-27004500D01*
X26510650Y-27004500D01*
X26509929Y-27004590D01*
X26503757Y-27005369D01*
X26497945Y-27005826D01*
X26451373Y-27007290D01*
X26451372Y-27007290D01*
X26432129Y-27012881D01*
X26413079Y-27016825D01*
X26393211Y-27019334D01*
X26393209Y-27019335D01*
X26349884Y-27036488D01*
X26344357Y-27038380D01*
X26299610Y-27051381D01*
X26299609Y-27051382D01*
X26282367Y-27061579D01*
X26264899Y-27070137D01*
X26246269Y-27077513D01*
X26246267Y-27077514D01*
X26208576Y-27104898D01*
X26203694Y-27108105D01*
X26163579Y-27131830D01*
X26149408Y-27146000D01*
X26134623Y-27158628D01*
X26118412Y-27170407D01*
X26088709Y-27206310D01*
X26084777Y-27210631D01*
X25162226Y-28133181D01*
X25100903Y-28166666D01*
X25074545Y-28169500D01*
X24262129Y-28169500D01*
X24262123Y-28169501D01*
X24202516Y-28175908D01*
X24067671Y-28226202D01*
X24067664Y-28226206D01*
X23952455Y-28312452D01*
X23952452Y-28312455D01*
X23866206Y-28427664D01*
X23866202Y-28427671D01*
X23815908Y-28562517D01*
X23809501Y-28622116D01*
X23809501Y-28622123D01*
X23809500Y-28622135D01*
X23809500Y-29617870D01*
X23809501Y-29617876D01*
X23815908Y-29677483D01*
X23866202Y-29812328D01*
X23866206Y-29812335D01*
X23952452Y-29927544D01*
X23952453Y-29927545D01*
X23952454Y-29927546D01*
X24034811Y-29989198D01*
X24076682Y-30045131D01*
X24084500Y-30088464D01*
X24084500Y-31509250D01*
X24064815Y-31576289D01*
X24012011Y-31622044D01*
X23960501Y-31633250D01*
X23812130Y-31633250D01*
X23812123Y-31633251D01*
X23752516Y-31639658D01*
X23617671Y-31689952D01*
X23617664Y-31689956D01*
X23502455Y-31776202D01*
X23502452Y-31776205D01*
X23416206Y-31891414D01*
X23416202Y-31891421D01*
X23365908Y-32026267D01*
X23363336Y-32050194D01*
X23359501Y-32085873D01*
X23359500Y-32085885D01*
X23359500Y-33881620D01*
X23359501Y-33881626D01*
X23365908Y-33941233D01*
X23416202Y-34076078D01*
X23416206Y-34076085D01*
X23502452Y-34191294D01*
X23502455Y-34191297D01*
X23617664Y-34277543D01*
X23617671Y-34277547D01*
X23752517Y-34327841D01*
X23752516Y-34327841D01*
X23759444Y-34328585D01*
X23812127Y-34334250D01*
X25124547Y-34334249D01*
X25191586Y-34353934D01*
X25212228Y-34370568D01*
X29298181Y-38456521D01*
X29331666Y-38517844D01*
X29334500Y-38544202D01*
X29334500Y-39095500D01*
X29314815Y-39162539D01*
X29262011Y-39208294D01*
X29210500Y-39219500D01*
X29145452Y-39219500D01*
X29078413Y-39199815D01*
X29057771Y-39183181D01*
X28032275Y-38157685D01*
X27003303Y-37128712D01*
X26993480Y-37116450D01*
X26993259Y-37116634D01*
X26988286Y-37110623D01*
X26937864Y-37063273D01*
X26927419Y-37052828D01*
X26916975Y-37042383D01*
X26911486Y-37038125D01*
X26907061Y-37034347D01*
X26873082Y-37002438D01*
X26873080Y-37002436D01*
X26873077Y-37002435D01*
X26855529Y-36992788D01*
X26839263Y-36982104D01*
X26823433Y-36969825D01*
X26780668Y-36951318D01*
X26775422Y-36948748D01*
X26734593Y-36926303D01*
X26734592Y-36926302D01*
X26715193Y-36921322D01*
X26696781Y-36915018D01*
X26678398Y-36907062D01*
X26678392Y-36907060D01*
X26632374Y-36899772D01*
X26626652Y-36898587D01*
X26581521Y-36887000D01*
X26581519Y-36887000D01*
X26561484Y-36887000D01*
X26542086Y-36885473D01*
X26534662Y-36884297D01*
X26522305Y-36882340D01*
X26522304Y-36882340D01*
X26475916Y-36886725D01*
X26470078Y-36887000D01*
X26184499Y-36887000D01*
X26117460Y-36867315D01*
X26071705Y-36814511D01*
X26060499Y-36763000D01*
X26060499Y-36614629D01*
X26060498Y-36614623D01*
X26060497Y-36614616D01*
X26054091Y-36555017D01*
X26029488Y-36489054D01*
X26003797Y-36420171D01*
X26003793Y-36420164D01*
X25917547Y-36304955D01*
X25917544Y-36304952D01*
X25802335Y-36218706D01*
X25802328Y-36218702D01*
X25667482Y-36168408D01*
X25667483Y-36168408D01*
X25607883Y-36162001D01*
X25607881Y-36162000D01*
X25607873Y-36162000D01*
X25607864Y-36162000D01*
X23812129Y-36162000D01*
X23812123Y-36162001D01*
X23752516Y-36168408D01*
X23617671Y-36218702D01*
X23617664Y-36218706D01*
X23502455Y-36304952D01*
X23502452Y-36304955D01*
X23416206Y-36420164D01*
X23416202Y-36420171D01*
X23365908Y-36555017D01*
X23362651Y-36585316D01*
X23359501Y-36614623D01*
X23359500Y-36614635D01*
X23359500Y-38410370D01*
X20600500Y-38410370D01*
X20600500Y-26070000D01*
X23810000Y-26070000D01*
X23810000Y-26317844D01*
X23816401Y-26377372D01*
X23816403Y-26377379D01*
X23866645Y-26512086D01*
X23866649Y-26512093D01*
X23952809Y-26627187D01*
X23952812Y-26627190D01*
X24067906Y-26713350D01*
X24067913Y-26713354D01*
X24202620Y-26763596D01*
X24202627Y-26763598D01*
X24262155Y-26769999D01*
X24262172Y-26770000D01*
X24810000Y-26770000D01*
X24810000Y-26070000D01*
X25310000Y-26070000D01*
X25310000Y-26770000D01*
X25857828Y-26770000D01*
X25857844Y-26769999D01*
X25917372Y-26763598D01*
X25917379Y-26763596D01*
X26052086Y-26713354D01*
X26052093Y-26713350D01*
X26167187Y-26627190D01*
X26167190Y-26627187D01*
X26253350Y-26512093D01*
X26253354Y-26512086D01*
X26303596Y-26377379D01*
X26303598Y-26377372D01*
X26309999Y-26317844D01*
X26310000Y-26317827D01*
X26310000Y-26070000D01*
X25310000Y-26070000D01*
X24810000Y-26070000D01*
X23810000Y-26070000D01*
X20600500Y-26070000D01*
X20600500Y-25570000D01*
X23810000Y-25570000D01*
X24810000Y-25570000D01*
X24810000Y-24870000D01*
X25310000Y-24870000D01*
X25310000Y-25570000D01*
X26310000Y-25570000D01*
X26310000Y-25322172D01*
X26309999Y-25322155D01*
X26303598Y-25262627D01*
X26303596Y-25262620D01*
X26253354Y-25127913D01*
X26253350Y-25127906D01*
X26167190Y-25012812D01*
X26167187Y-25012809D01*
X26052093Y-24926649D01*
X26052086Y-24926645D01*
X25917379Y-24876403D01*
X25917372Y-24876401D01*
X25857844Y-24870000D01*
X25310000Y-24870000D01*
X24810000Y-24870000D01*
X24262155Y-24870000D01*
X24202627Y-24876401D01*
X24202620Y-24876403D01*
X24067913Y-24926645D01*
X24067906Y-24926649D01*
X23952812Y-25012809D01*
X23952809Y-25012812D01*
X23866649Y-25127906D01*
X23866645Y-25127913D01*
X23816403Y-25262620D01*
X23816401Y-25262627D01*
X23810000Y-25322155D01*
X23810000Y-25570000D01*
X20600500Y-25570000D01*
X20600500Y-21594500D01*
X20620185Y-21527461D01*
X20672989Y-21481706D01*
X20724500Y-21470500D01*
X55475500Y-21470500D01*
X55542539Y-21490185D01*
G37*
%TD.AperFunction*%
%TD*%
M02*
